<?xml version="1.0" encoding="utf-8" standalone="no"?>
<!DOCTYPE svg PUBLIC "-//W3C//DTD SVG 1.1//EN"
  "http://www.w3.org/Graphics/SVG/1.1/DTD/svg11.dtd">
<svg xmlns:xlink="http://www.w3.org/1999/xlink" width="661.256312pt" height="351.034375pt" viewBox="0 0 661.256312 351.034375" xmlns="http://www.w3.org/2000/svg" version="1.1">
 <metadata>
  <rdf:RDF xmlns:dc="http://purl.org/dc/elements/1.1/" xmlns:cc="http://creativecommons.org/ns#" xmlns:rdf="http://www.w3.org/1999/02/22-rdf-syntax-ns#">
   <cc:Work>
    <dc:type rdf:resource="http://purl.org/dc/dcmitype/StillImage"/>
    <dc:date>2026-06-04T02:26:29.393427</dc:date>
    <dc:format>image/svg+xml</dc:format>
    <dc:creator>
     <cc:Agent>
      <dc:title>Matplotlib v3.10.9, https://matplotlib.org/</dc:title>
     </cc:Agent>
    </dc:creator>
   </cc:Work>
  </rdf:RDF>
 </metadata>
 <defs>
  <style type="text/css">*{stroke-linejoin: round; stroke-linecap: butt}</style>
 </defs>
 <g id="figure_1">
  <g id="patch_1">
   <path d="M 0 351.034375 
L 661.256312 351.034375 
L 661.256312 0 
L 0 0 
z
" style="fill: #ffffff"/>
  </g>
  <g id="axes_1">
   <g id="patch_2">
    <path d="M 42.620313 313.478125 
L 654.056313 313.478125 
L 654.056313 22.318125 
L 42.620313 22.318125 
z
" style="fill: #ffffff"/>
   </g>
   <g id="patch_3">
    <path d="M 100.852313 262.525125 
C 102.782726 262.525125 104.634334 261.758164 105.999343 260.393155 
C 107.364351 259.028147 108.131313 257.176538 108.131313 255.246125 
C 108.131313 253.315712 107.364351 251.464103 105.999343 250.099095 
C 104.634334 248.734086 102.782726 247.967125 100.852313 247.967125 
C 98.921899 247.967125 97.070291 248.734086 95.705282 250.099095 
C 94.340274 251.464103 93.573313 253.315712 93.573313 255.246125 
C 93.573313 257.176538 94.340274 259.028147 95.705282 260.393155 
C 97.070291 261.758164 98.921899 262.525125 100.852313 262.525125 
z
" clip-path="url(#pad23b1c31c)" style="fill: #7cb342; opacity: 0.85; stroke: #000000; stroke-width: 0.8; stroke-linejoin: miter"/>
   </g>
   <g id="patch_4">
    <path d="M 188.200313 262.525125 
C 190.130726 262.525125 191.982334 261.758164 193.347343 260.393155 
C 194.712351 259.028147 195.479313 257.176538 195.479313 255.246125 
C 195.479313 253.315712 194.712351 251.464103 193.347343 250.099095 
C 191.982334 248.734086 190.130726 247.967125 188.200313 247.967125 
C 186.269899 247.967125 184.418291 248.734086 183.053282 250.099095 
C 181.688274 251.464103 180.921313 253.315712 180.921313 255.246125 
C 180.921313 257.176538 181.688274 259.028147 183.053282 260.393155 
C 184.418291 261.758164 186.269899 262.525125 188.200313 262.525125 
z
" clip-path="url(#pad23b1c31c)" style="fill: #7cb342; opacity: 0.85; stroke: #000000; stroke-width: 0.8; stroke-linejoin: miter"/>
   </g>
   <g id="patch_5">
    <path d="M 275.548313 262.525125 
C 277.478726 262.525125 279.330334 261.758164 280.695343 260.393155 
C 282.060351 259.028147 282.827313 257.176538 282.827313 255.246125 
C 282.827313 253.315712 282.060351 251.464103 280.695343 250.099095 
C 279.330334 248.734086 277.478726 247.967125 275.548313 247.967125 
C 273.617899 247.967125 271.766291 248.734086 270.401282 250.099095 
C 269.036274 251.464103 268.269313 253.315712 268.269313 255.246125 
C 268.269313 257.176538 269.036274 259.028147 270.401282 260.393155 
C 271.766291 261.758164 273.617899 262.525125 275.548313 262.525125 
z
" clip-path="url(#pad23b1c31c)" style="fill: #a1887f; opacity: 0.85; stroke: #000000; stroke-width: 0.8; stroke-linejoin: miter"/>
   </g>
   <g id="patch_6">
    <path d="M 362.896313 262.525125 
C 364.826726 262.525125 366.678334 261.758164 368.043343 260.393155 
C 369.408351 259.028147 370.175313 257.176538 370.175313 255.246125 
C 370.175313 253.315712 369.408351 251.464103 368.043343 250.099095 
C 366.678334 248.734086 364.826726 247.967125 362.896313 247.967125 
C 360.965899 247.967125 359.114291 248.734086 357.749282 250.099095 
C 356.384274 251.464103 355.617313 253.315712 355.617313 255.246125 
C 355.617313 257.176538 356.384274 259.028147 357.749282 260.393155 
C 359.114291 261.758164 360.965899 262.525125 362.896313 262.525125 
z
" clip-path="url(#pad23b1c31c)" style="fill: #a1887f; opacity: 0.85; stroke: #000000; stroke-width: 0.8; stroke-linejoin: miter"/>
   </g>
   <g id="patch_7">
    <path d="M 450.244313 262.525125 
C 452.174726 262.525125 454.026334 261.758164 455.391343 260.393155 
C 456.756351 259.028147 457.523313 257.176538 457.523313 255.246125 
C 457.523313 253.315712 456.756351 251.464103 455.391343 250.099095 
C 454.026334 248.734086 452.174726 247.967125 450.244313 247.967125 
C 448.313899 247.967125 446.462291 248.734086 445.097282 250.099095 
C 443.732274 251.464103 442.965313 253.315712 442.965313 255.246125 
C 442.965313 257.176538 443.732274 259.028147 445.097282 260.393155 
C 446.462291 261.758164 448.313899 262.525125 450.244313 262.525125 
z
" clip-path="url(#pad23b1c31c)" style="fill: #fafafa; opacity: 0.85; stroke: #000000; stroke-width: 0.8; stroke-linejoin: miter"/>
   </g>
   <g id="patch_8">
    <path d="M 537.592313 262.525125 
C 539.522726 262.525125 541.374334 261.758164 542.739343 260.393155 
C 544.104351 259.028147 544.871313 257.176538 544.871313 255.246125 
C 544.871313 253.315712 544.104351 251.464103 542.739343 250.099095 
C 541.374334 248.734086 539.522726 247.967125 537.592313 247.967125 
C 535.661899 247.967125 533.810291 248.734086 532.445282 250.099095 
C 531.080274 251.464103 530.313313 253.315712 530.313313 255.246125 
C 530.313313 257.176538 531.080274 259.028147 532.445282 260.393155 
C 533.810291 261.758164 535.661899 262.525125 537.592313 262.525125 
z
" clip-path="url(#pad23b1c31c)" style="fill: #fafafa; opacity: 0.85; stroke: #000000; stroke-width: 0.8; stroke-linejoin: miter"/>
   </g>
   <g id="patch_9">
    <path d="M 144.526313 87.829125 
C 146.456726 87.829125 148.308334 87.062164 149.673343 85.697155 
C 151.038351 84.332147 151.805313 82.480538 151.805313 80.550125 
C 151.805313 78.619712 151.038351 76.768103 149.673343 75.403095 
C 148.308334 74.038086 146.456726 73.271125 144.526313 73.271125 
C 142.595899 73.271125 140.744291 74.038086 139.379282 75.403095 
C 138.014274 76.768103 137.247313 78.619712 137.247313 80.550125 
C 137.247313 82.480538 138.014274 84.332147 139.379282 85.697155 
C 140.744291 87.062164 142.595899 87.829125 144.526313 87.829125 
z
" clip-path="url(#pad23b1c31c)" style="fill: #7cb342; opacity: 0.85; stroke: #000000; stroke-width: 0.8; stroke-linejoin: miter"/>
   </g>
   <g id="patch_10">
    <path d="M 231.874313 87.829125 
C 233.804726 87.829125 235.656334 87.062164 237.021343 85.697155 
C 238.386351 84.332147 239.153313 82.480538 239.153313 80.550125 
C 239.153313 78.619712 238.386351 76.768103 237.021343 75.403095 
C 235.656334 74.038086 233.804726 73.271125 231.874313 73.271125 
C 229.943899 73.271125 228.092291 74.038086 226.727282 75.403095 
C 225.362274 76.768103 224.595313 78.619712 224.595313 80.550125 
C 224.595313 82.480538 225.362274 84.332147 226.727282 85.697155 
C 228.092291 87.062164 229.943899 87.829125 231.874313 87.829125 
z
" clip-path="url(#pad23b1c31c)" style="fill: #7cb342; opacity: 0.85; stroke: #000000; stroke-width: 0.8; stroke-linejoin: miter"/>
   </g>
   <g id="patch_11">
    <path d="M 319.222313 87.829125 
C 321.152726 87.829125 323.004334 87.062164 324.369343 85.697155 
C 325.734351 84.332147 326.501313 82.480538 326.501313 80.550125 
C 326.501313 78.619712 325.734351 76.768103 324.369343 75.403095 
C 323.004334 74.038086 321.152726 73.271125 319.222313 73.271125 
C 317.291899 73.271125 315.440291 74.038086 314.075282 75.403095 
C 312.710274 76.768103 311.943313 78.619712 311.943313 80.550125 
C 311.943313 82.480538 312.710274 84.332147 314.075282 85.697155 
C 315.440291 87.062164 317.291899 87.829125 319.222313 87.829125 
z
" clip-path="url(#pad23b1c31c)" style="fill: #a1887f; opacity: 0.85; stroke: #000000; stroke-width: 0.8; stroke-linejoin: miter"/>
   </g>
   <g id="patch_12">
    <path d="M 406.570313 87.829125 
C 408.500726 87.829125 410.352334 87.062164 411.717343 85.697155 
C 413.082351 84.332147 413.849313 82.480538 413.849313 80.550125 
C 413.849313 78.619712 413.082351 76.768103 411.717343 75.403095 
C 410.352334 74.038086 408.500726 73.271125 406.570313 73.271125 
C 404.639899 73.271125 402.788291 74.038086 401.423282 75.403095 
C 400.058274 76.768103 399.291313 78.619712 399.291313 80.550125 
C 399.291313 82.480538 400.058274 84.332147 401.423282 85.697155 
C 402.788291 87.062164 404.639899 87.829125 406.570313 87.829125 
z
" clip-path="url(#pad23b1c31c)" style="fill: #a1887f; opacity: 0.85; stroke: #000000; stroke-width: 0.8; stroke-linejoin: miter"/>
   </g>
   <g id="patch_13">
    <path d="M 493.918313 87.829125 
C 495.848726 87.829125 497.700334 87.062164 499.065343 85.697155 
C 500.430351 84.332147 501.197313 82.480538 501.197313 80.550125 
C 501.197313 78.619712 500.430351 76.768103 499.065343 75.403095 
C 497.700334 74.038086 495.848726 73.271125 493.918313 73.271125 
C 491.987899 73.271125 490.136291 74.038086 488.771282 75.403095 
C 487.406274 76.768103 486.639313 78.619712 486.639313 80.550125 
C 486.639313 82.480538 487.406274 84.332147 488.771282 85.697155 
C 490.136291 87.062164 491.987899 87.829125 493.918313 87.829125 
z
" clip-path="url(#pad23b1c31c)" style="fill: #fafafa; opacity: 0.85; stroke: #000000; stroke-width: 0.8; stroke-linejoin: miter"/>
   </g>
   <g id="patch_14">
    <path d="M 581.266313 87.829125 
C 583.196726 87.829125 585.048334 87.062164 586.413343 85.697155 
C 587.778351 84.332147 588.545313 82.480538 588.545313 80.550125 
C 588.545313 78.619712 587.778351 76.768103 586.413343 75.403095 
C 585.048334 74.038086 583.196726 73.271125 581.266313 73.271125 
C 579.335899 73.271125 577.484291 74.038086 576.119282 75.403095 
C 574.754274 76.768103 573.987313 78.619712 573.987313 80.550125 
C 573.987313 82.480538 574.754274 84.332147 576.119282 85.697155 
C 577.484291 87.062164 579.335899 87.829125 581.266313 87.829125 
z
" clip-path="url(#pad23b1c31c)" style="fill: #fafafa; opacity: 0.85; stroke: #000000; stroke-width: 0.8; stroke-linejoin: miter"/>
   </g>
   <g id="patch_15">
    <path d="M 86.439893 235.883985 
L 115.264733 235.883985 
L 115.264733 216.376265 
L 86.439893 216.376265 
z
" clip-path="url(#pad23b1c31c)" style="fill: #f2a900; opacity: 0.7; stroke: #000000; stroke-width: 1.2; stroke-linejoin: miter"/>
   </g>
   <g id="patch_16">
    <path d="M 88.623593 235.665615 
L 98.231873 235.665615 
L 98.231873 232.754015 
L 88.623593 232.754015 
z
" clip-path="url(#pad23b1c31c)" style="fill: #1a1a1a; stroke: #000000; stroke-width: 0.6; stroke-linejoin: miter"/>
   </g>
   <g id="patch_17">
    <path d="M 88.623593 219.506235 
L 98.231873 219.506235 
L 98.231873 216.594635 
L 88.623593 216.594635 
z
" clip-path="url(#pad23b1c31c)" style="fill: #1a1a1a; stroke: #000000; stroke-width: 0.6; stroke-linejoin: miter"/>
   </g>
   <g id="patch_18">
    <path d="M 103.472753 235.665615 
L 113.081033 235.665615 
L 113.081033 232.754015 
L 103.472753 232.754015 
z
" clip-path="url(#pad23b1c31c)" style="fill: #1a1a1a; stroke: #000000; stroke-width: 0.6; stroke-linejoin: miter"/>
   </g>
   <g id="patch_19">
    <path d="M 103.472753 219.506235 
L 113.081033 219.506235 
L 113.081033 216.594635 
L 103.472753 216.594635 
z
" clip-path="url(#pad23b1c31c)" style="fill: #1a1a1a; stroke: #000000; stroke-width: 0.6; stroke-linejoin: miter"/>
   </g>
   <g id="patch_20">
    <path d="M 103.763913 229.041725 
L 109.587113 229.041725 
L 109.587113 223.218525 
L 103.763913 223.218525 
z
" clip-path="url(#pad23b1c31c)" style="fill: #4d4d4d; opacity: 0.9; stroke: #000000; stroke-width: 0.8; stroke-linejoin: miter"/>
   </g>
   <g id="patch_21">
    <path d="M 86.294313 231.953325 
L 97.940713 231.953325 
L 97.940713 220.306925 
L 86.294313 220.306925 
z
" clip-path="url(#pad23b1c31c)" style="fill: #3f51b5; opacity: 0.65; stroke: #000000; stroke-width: 0.8; stroke-linejoin: miter"/>
   </g>
   <g id="matplotlib.axis_1">
    <g id="xtick_1">
     <g id="line2d_1">
      <path d="M 100.852313 313.478125 
L 100.852313 22.318125 
" clip-path="url(#pad23b1c31c)" style="fill: none; stroke: #b0b0b0; stroke-opacity: 0.5; stroke-width: 0.3; stroke-linecap: square"/>
     </g>
     <g id="line2d_2">
      <defs>
       <path id="m24de383438" d="M 0 0 
L 0 3.5 
" style="stroke: #000000; stroke-width: 0.8"/>
      </defs>
      <g>
       <use xlink:href="#m24de383438" x="100.852313" y="313.478125" style="stroke: #000000; stroke-width: 0.8"/>
      </g>
     </g>
     <g id="text_1">
      <!-- 0.0 -->
      <g transform="translate(92.90075 328.076563) scale(0.1 -0.1)">
       <defs>
        <path id="DejaVuSans-30" d="M 2034 4250 
Q 1547 4250 1301 3770 
Q 1056 3291 1056 2328 
Q 1056 1369 1301 889 
Q 1547 409 2034 409 
Q 2525 409 2770 889 
Q 3016 1369 3016 2328 
Q 3016 3291 2770 3770 
Q 2525 4250 2034 4250 
z
M 2034 4750 
Q 2819 4750 3233 4129 
Q 3647 3509 3647 2328 
Q 3647 1150 3233 529 
Q 2819 -91 2034 -91 
Q 1250 -91 836 529 
Q 422 1150 422 2328 
Q 422 3509 836 4129 
Q 1250 4750 2034 4750 
z
" transform="scale(0.015625)"/>
        <path id="DejaVuSans-2e" d="M 684 794 
L 1344 794 
L 1344 0 
L 684 0 
L 684 794 
z
" transform="scale(0.015625)"/>
       </defs>
       <use xlink:href="#DejaVuSans-30"/>
       <use xlink:href="#DejaVuSans-2e" transform="translate(63.623047 0)"/>
       <use xlink:href="#DejaVuSans-30" transform="translate(95.410156 0)"/>
      </g>
     </g>
    </g>
    <g id="xtick_2">
     <g id="line2d_3">
      <path d="M 173.642313 313.478125 
L 173.642313 22.318125 
" clip-path="url(#pad23b1c31c)" style="fill: none; stroke: #b0b0b0; stroke-opacity: 0.5; stroke-width: 0.3; stroke-linecap: square"/>
     </g>
     <g id="line2d_4">
      <g>
       <use xlink:href="#m24de383438" x="173.642313" y="313.478125" style="stroke: #000000; stroke-width: 0.8"/>
      </g>
     </g>
     <g id="text_2">
      <!-- 2.5 -->
      <g transform="translate(165.69075 328.076563) scale(0.1 -0.1)">
       <defs>
        <path id="DejaVuSans-32" d="M 1228 531 
L 3431 531 
L 3431 0 
L 469 0 
L 469 531 
Q 828 903 1448 1529 
Q 2069 2156 2228 2338 
Q 2531 2678 2651 2914 
Q 2772 3150 2772 3378 
Q 2772 3750 2511 3984 
Q 2250 4219 1831 4219 
Q 1534 4219 1204 4116 
Q 875 4013 500 3803 
L 500 4441 
Q 881 4594 1212 4672 
Q 1544 4750 1819 4750 
Q 2544 4750 2975 4387 
Q 3406 4025 3406 3419 
Q 3406 3131 3298 2873 
Q 3191 2616 2906 2266 
Q 2828 2175 2409 1742 
Q 1991 1309 1228 531 
z
" transform="scale(0.015625)"/>
        <path id="DejaVuSans-35" d="M 691 4666 
L 3169 4666 
L 3169 4134 
L 1269 4134 
L 1269 2991 
Q 1406 3038 1543 3061 
Q 1681 3084 1819 3084 
Q 2600 3084 3056 2656 
Q 3513 2228 3513 1497 
Q 3513 744 3044 326 
Q 2575 -91 1722 -91 
Q 1428 -91 1123 -41 
Q 819 9 494 109 
L 494 744 
Q 775 591 1075 516 
Q 1375 441 1709 441 
Q 2250 441 2565 725 
Q 2881 1009 2881 1497 
Q 2881 1984 2565 2268 
Q 2250 2553 1709 2553 
Q 1456 2553 1204 2497 
Q 953 2441 691 2322 
L 691 4666 
z
" transform="scale(0.015625)"/>
       </defs>
       <use xlink:href="#DejaVuSans-32"/>
       <use xlink:href="#DejaVuSans-2e" transform="translate(63.623047 0)"/>
       <use xlink:href="#DejaVuSans-35" transform="translate(95.410156 0)"/>
      </g>
     </g>
    </g>
    <g id="xtick_3">
     <g id="line2d_5">
      <path d="M 246.432313 313.478125 
L 246.432313 22.318125 
" clip-path="url(#pad23b1c31c)" style="fill: none; stroke: #b0b0b0; stroke-opacity: 0.5; stroke-width: 0.3; stroke-linecap: square"/>
     </g>
     <g id="line2d_6">
      <g>
       <use xlink:href="#m24de383438" x="246.432313" y="313.478125" style="stroke: #000000; stroke-width: 0.8"/>
      </g>
     </g>
     <g id="text_3">
      <!-- 5.0 -->
      <g transform="translate(238.48075 328.076563) scale(0.1 -0.1)">
       <use xlink:href="#DejaVuSans-35"/>
       <use xlink:href="#DejaVuSans-2e" transform="translate(63.623047 0)"/>
       <use xlink:href="#DejaVuSans-30" transform="translate(95.410156 0)"/>
      </g>
     </g>
    </g>
    <g id="xtick_4">
     <g id="line2d_7">
      <path d="M 319.222313 313.478125 
L 319.222313 22.318125 
" clip-path="url(#pad23b1c31c)" style="fill: none; stroke: #b0b0b0; stroke-opacity: 0.5; stroke-width: 0.3; stroke-linecap: square"/>
     </g>
     <g id="line2d_8">
      <g>
       <use xlink:href="#m24de383438" x="319.222313" y="313.478125" style="stroke: #000000; stroke-width: 0.8"/>
      </g>
     </g>
     <g id="text_4">
      <!-- 7.5 -->
      <g transform="translate(311.27075 328.076563) scale(0.1 -0.1)">
       <defs>
        <path id="DejaVuSans-37" d="M 525 4666 
L 3525 4666 
L 3525 4397 
L 1831 0 
L 1172 0 
L 2766 4134 
L 525 4134 
L 525 4666 
z
" transform="scale(0.015625)"/>
       </defs>
       <use xlink:href="#DejaVuSans-37"/>
       <use xlink:href="#DejaVuSans-2e" transform="translate(63.623047 0)"/>
       <use xlink:href="#DejaVuSans-35" transform="translate(95.410156 0)"/>
      </g>
     </g>
    </g>
    <g id="xtick_5">
     <g id="line2d_9">
      <path d="M 392.012313 313.478125 
L 392.012313 22.318125 
" clip-path="url(#pad23b1c31c)" style="fill: none; stroke: #b0b0b0; stroke-opacity: 0.5; stroke-width: 0.3; stroke-linecap: square"/>
     </g>
     <g id="line2d_10">
      <g>
       <use xlink:href="#m24de383438" x="392.012313" y="313.478125" style="stroke: #000000; stroke-width: 0.8"/>
      </g>
     </g>
     <g id="text_5">
      <!-- 10.0 -->
      <g transform="translate(380.8795 328.076563) scale(0.1 -0.1)">
       <defs>
        <path id="DejaVuSans-31" d="M 794 531 
L 1825 531 
L 1825 4091 
L 703 3866 
L 703 4441 
L 1819 4666 
L 2450 4666 
L 2450 531 
L 3481 531 
L 3481 0 
L 794 0 
L 794 531 
z
" transform="scale(0.015625)"/>
       </defs>
       <use xlink:href="#DejaVuSans-31"/>
       <use xlink:href="#DejaVuSans-30" transform="translate(63.623047 0)"/>
       <use xlink:href="#DejaVuSans-2e" transform="translate(127.246094 0)"/>
       <use xlink:href="#DejaVuSans-30" transform="translate(159.033203 0)"/>
      </g>
     </g>
    </g>
    <g id="xtick_6">
     <g id="line2d_11">
      <path d="M 464.802313 313.478125 
L 464.802313 22.318125 
" clip-path="url(#pad23b1c31c)" style="fill: none; stroke: #b0b0b0; stroke-opacity: 0.5; stroke-width: 0.3; stroke-linecap: square"/>
     </g>
     <g id="line2d_12">
      <g>
       <use xlink:href="#m24de383438" x="464.802313" y="313.478125" style="stroke: #000000; stroke-width: 0.8"/>
      </g>
     </g>
     <g id="text_6">
      <!-- 12.5 -->
      <g transform="translate(453.6695 328.076563) scale(0.1 -0.1)">
       <use xlink:href="#DejaVuSans-31"/>
       <use xlink:href="#DejaVuSans-32" transform="translate(63.623047 0)"/>
       <use xlink:href="#DejaVuSans-2e" transform="translate(127.246094 0)"/>
       <use xlink:href="#DejaVuSans-35" transform="translate(159.033203 0)"/>
      </g>
     </g>
    </g>
    <g id="xtick_7">
     <g id="line2d_13">
      <path d="M 537.592313 313.478125 
L 537.592313 22.318125 
" clip-path="url(#pad23b1c31c)" style="fill: none; stroke: #b0b0b0; stroke-opacity: 0.5; stroke-width: 0.3; stroke-linecap: square"/>
     </g>
     <g id="line2d_14">
      <g>
       <use xlink:href="#m24de383438" x="537.592313" y="313.478125" style="stroke: #000000; stroke-width: 0.8"/>
      </g>
     </g>
     <g id="text_7">
      <!-- 15.0 -->
      <g transform="translate(526.4595 328.076563) scale(0.1 -0.1)">
       <use xlink:href="#DejaVuSans-31"/>
       <use xlink:href="#DejaVuSans-35" transform="translate(63.623047 0)"/>
       <use xlink:href="#DejaVuSans-2e" transform="translate(127.246094 0)"/>
       <use xlink:href="#DejaVuSans-30" transform="translate(159.033203 0)"/>
      </g>
     </g>
    </g>
    <g id="xtick_8">
     <g id="line2d_15">
      <path d="M 610.382313 313.478125 
L 610.382313 22.318125 
" clip-path="url(#pad23b1c31c)" style="fill: none; stroke: #b0b0b0; stroke-opacity: 0.5; stroke-width: 0.3; stroke-linecap: square"/>
     </g>
     <g id="line2d_16">
      <g>
       <use xlink:href="#m24de383438" x="610.382313" y="313.478125" style="stroke: #000000; stroke-width: 0.8"/>
      </g>
     </g>
     <g id="text_8">
      <!-- 17.5 -->
      <g transform="translate(599.2495 328.076563) scale(0.1 -0.1)">
       <use xlink:href="#DejaVuSans-31"/>
       <use xlink:href="#DejaVuSans-37" transform="translate(63.623047 0)"/>
       <use xlink:href="#DejaVuSans-2e" transform="translate(127.246094 0)"/>
       <use xlink:href="#DejaVuSans-35" transform="translate(159.033203 0)"/>
      </g>
     </g>
    </g>
    <g id="text_9">
     <!-- X (m, world) -->
     <g transform="translate(317.607063 341.754687) scale(0.1 -0.1)">
      <defs>
       <path id="DejaVuSans-58" d="M 403 4666 
L 1081 4666 
L 2241 2931 
L 3406 4666 
L 4084 4666 
L 2584 2425 
L 4184 0 
L 3506 0 
L 2194 1984 
L 872 0 
L 191 0 
L 1856 2491 
L 403 4666 
z
" transform="scale(0.015625)"/>
       <path id="DejaVuSans-20" transform="scale(0.015625)"/>
       <path id="DejaVuSans-28" d="M 1984 4856 
Q 1566 4138 1362 3434 
Q 1159 2731 1159 2009 
Q 1159 1288 1364 580 
Q 1569 -128 1984 -844 
L 1484 -844 
Q 1016 -109 783 600 
Q 550 1309 550 2009 
Q 550 2706 781 3412 
Q 1013 4119 1484 4856 
L 1984 4856 
z
" transform="scale(0.015625)"/>
       <path id="DejaVuSans-6d" d="M 3328 2828 
Q 3544 3216 3844 3400 
Q 4144 3584 4550 3584 
Q 5097 3584 5394 3201 
Q 5691 2819 5691 2113 
L 5691 0 
L 5113 0 
L 5113 2094 
Q 5113 2597 4934 2840 
Q 4756 3084 4391 3084 
Q 3944 3084 3684 2787 
Q 3425 2491 3425 1978 
L 3425 0 
L 2847 0 
L 2847 2094 
Q 2847 2600 2669 2842 
Q 2491 3084 2119 3084 
Q 1678 3084 1418 2786 
Q 1159 2488 1159 1978 
L 1159 0 
L 581 0 
L 581 3500 
L 1159 3500 
L 1159 2956 
Q 1356 3278 1631 3431 
Q 1906 3584 2284 3584 
Q 2666 3584 2933 3390 
Q 3200 3197 3328 2828 
z
" transform="scale(0.015625)"/>
       <path id="DejaVuSans-2c" d="M 750 794 
L 1409 794 
L 1409 256 
L 897 -744 
L 494 -744 
L 750 256 
L 750 794 
z
" transform="scale(0.015625)"/>
       <path id="DejaVuSans-77" d="M 269 3500 
L 844 3500 
L 1563 769 
L 2278 3500 
L 2956 3500 
L 3675 769 
L 4391 3500 
L 4966 3500 
L 4050 0 
L 3372 0 
L 2619 2869 
L 1863 0 
L 1184 0 
L 269 3500 
z
" transform="scale(0.015625)"/>
       <path id="DejaVuSans-6f" d="M 1959 3097 
Q 1497 3097 1228 2736 
Q 959 2375 959 1747 
Q 959 1119 1226 758 
Q 1494 397 1959 397 
Q 2419 397 2687 759 
Q 2956 1122 2956 1747 
Q 2956 2369 2687 2733 
Q 2419 3097 1959 3097 
z
M 1959 3584 
Q 2709 3584 3137 3096 
Q 3566 2609 3566 1747 
Q 3566 888 3137 398 
Q 2709 -91 1959 -91 
Q 1206 -91 779 398 
Q 353 888 353 1747 
Q 353 2609 779 3096 
Q 1206 3584 1959 3584 
z
" transform="scale(0.015625)"/>
       <path id="DejaVuSans-72" d="M 2631 2963 
Q 2534 3019 2420 3045 
Q 2306 3072 2169 3072 
Q 1681 3072 1420 2755 
Q 1159 2438 1159 1844 
L 1159 0 
L 581 0 
L 581 3500 
L 1159 3500 
L 1159 2956 
Q 1341 3275 1631 3429 
Q 1922 3584 2338 3584 
Q 2397 3584 2469 3576 
Q 2541 3569 2628 3553 
L 2631 2963 
z
" transform="scale(0.015625)"/>
       <path id="DejaVuSans-6c" d="M 603 4863 
L 1178 4863 
L 1178 0 
L 603 0 
L 603 4863 
z
" transform="scale(0.015625)"/>
       <path id="DejaVuSans-64" d="M 2906 2969 
L 2906 4863 
L 3481 4863 
L 3481 0 
L 2906 0 
L 2906 525 
Q 2725 213 2448 61 
Q 2172 -91 1784 -91 
Q 1150 -91 751 415 
Q 353 922 353 1747 
Q 353 2572 751 3078 
Q 1150 3584 1784 3584 
Q 2172 3584 2448 3432 
Q 2725 3281 2906 2969 
z
M 947 1747 
Q 947 1113 1208 752 
Q 1469 391 1925 391 
Q 2381 391 2643 752 
Q 2906 1113 2906 1747 
Q 2906 2381 2643 2742 
Q 2381 3103 1925 3103 
Q 1469 3103 1208 2742 
Q 947 2381 947 1747 
z
" transform="scale(0.015625)"/>
       <path id="DejaVuSans-29" d="M 513 4856 
L 1013 4856 
Q 1481 4119 1714 3412 
Q 1947 2706 1947 2009 
Q 1947 1309 1714 600 
Q 1481 -109 1013 -844 
L 513 -844 
Q 928 -128 1133 580 
Q 1338 1288 1338 2009 
Q 1338 2731 1133 3434 
Q 928 4138 513 4856 
z
" transform="scale(0.015625)"/>
      </defs>
      <use xlink:href="#DejaVuSans-58"/>
      <use xlink:href="#DejaVuSans-20" transform="translate(68.505859 0)"/>
      <use xlink:href="#DejaVuSans-28" transform="translate(100.292969 0)"/>
      <use xlink:href="#DejaVuSans-6d" transform="translate(139.306641 0)"/>
      <use xlink:href="#DejaVuSans-2c" transform="translate(236.71875 0)"/>
      <use xlink:href="#DejaVuSans-20" transform="translate(268.505859 0)"/>
      <use xlink:href="#DejaVuSans-77" transform="translate(300.292969 0)"/>
      <use xlink:href="#DejaVuSans-6f" transform="translate(382.080078 0)"/>
      <use xlink:href="#DejaVuSans-72" transform="translate(443.261719 0)"/>
      <use xlink:href="#DejaVuSans-6c" transform="translate(484.375 0)"/>
      <use xlink:href="#DejaVuSans-64" transform="translate(512.158203 0)"/>
      <use xlink:href="#DejaVuSans-29" transform="translate(575.634766 0)"/>
     </g>
    </g>
   </g>
   <g id="matplotlib.axis_2">
    <g id="ytick_1">
     <g id="line2d_17">
      <path d="M 42.620313 313.478125 
L 654.056313 313.478125 
" clip-path="url(#pad23b1c31c)" style="fill: none; stroke: #b0b0b0; stroke-opacity: 0.5; stroke-width: 0.3; stroke-linecap: square"/>
     </g>
     <g id="line2d_18">
      <defs>
       <path id="m6895bf1deb" d="M 0 0 
L -3.5 0 
" style="stroke: #000000; stroke-width: 0.8"/>
      </defs>
      <g>
       <use xlink:href="#m6895bf1deb" x="42.620313" y="313.478125" style="stroke: #000000; stroke-width: 0.8"/>
      </g>
     </g>
     <g id="text_10">
      <!-- −2 -->
      <g transform="translate(20.878125 317.277344) scale(0.1 -0.1)">
       <defs>
        <path id="DejaVuSans-2212" d="M 678 2272 
L 4684 2272 
L 4684 1741 
L 678 1741 
L 678 2272 
z
" transform="scale(0.015625)"/>
       </defs>
       <use xlink:href="#DejaVuSans-2212"/>
       <use xlink:href="#DejaVuSans-32" transform="translate(83.789062 0)"/>
      </g>
     </g>
    </g>
    <g id="ytick_2">
     <g id="line2d_19">
      <path d="M 42.620313 255.246125 
L 654.056313 255.246125 
" clip-path="url(#pad23b1c31c)" style="fill: none; stroke: #b0b0b0; stroke-opacity: 0.5; stroke-width: 0.3; stroke-linecap: square"/>
     </g>
     <g id="line2d_20">
      <g>
       <use xlink:href="#m6895bf1deb" x="42.620313" y="255.246125" style="stroke: #000000; stroke-width: 0.8"/>
      </g>
     </g>
     <g id="text_11">
      <!-- 0 -->
      <g transform="translate(29.257813 259.045344) scale(0.1 -0.1)">
       <use xlink:href="#DejaVuSans-30"/>
      </g>
     </g>
    </g>
    <g id="ytick_3">
     <g id="line2d_21">
      <path d="M 42.620313 197.014125 
L 654.056313 197.014125 
" clip-path="url(#pad23b1c31c)" style="fill: none; stroke: #b0b0b0; stroke-opacity: 0.5; stroke-width: 0.3; stroke-linecap: square"/>
     </g>
     <g id="line2d_22">
      <g>
       <use xlink:href="#m6895bf1deb" x="42.620313" y="197.014125" style="stroke: #000000; stroke-width: 0.8"/>
      </g>
     </g>
     <g id="text_12">
      <!-- 2 -->
      <g transform="translate(29.257813 200.813344) scale(0.1 -0.1)">
       <use xlink:href="#DejaVuSans-32"/>
      </g>
     </g>
    </g>
    <g id="ytick_4">
     <g id="line2d_23">
      <path d="M 42.620313 138.782125 
L 654.056313 138.782125 
" clip-path="url(#pad23b1c31c)" style="fill: none; stroke: #b0b0b0; stroke-opacity: 0.5; stroke-width: 0.3; stroke-linecap: square"/>
     </g>
     <g id="line2d_24">
      <g>
       <use xlink:href="#m6895bf1deb" x="42.620313" y="138.782125" style="stroke: #000000; stroke-width: 0.8"/>
      </g>
     </g>
     <g id="text_13">
      <!-- 4 -->
      <g transform="translate(29.257813 142.581344) scale(0.1 -0.1)">
       <defs>
        <path id="DejaVuSans-34" d="M 2419 4116 
L 825 1625 
L 2419 1625 
L 2419 4116 
z
M 2253 4666 
L 3047 4666 
L 3047 1625 
L 3713 1625 
L 3713 1100 
L 3047 1100 
L 3047 0 
L 2419 0 
L 2419 1100 
L 313 1100 
L 313 1709 
L 2253 4666 
z
" transform="scale(0.015625)"/>
       </defs>
       <use xlink:href="#DejaVuSans-34"/>
      </g>
     </g>
    </g>
    <g id="ytick_5">
     <g id="line2d_25">
      <path d="M 42.620313 80.550125 
L 654.056313 80.550125 
" clip-path="url(#pad23b1c31c)" style="fill: none; stroke: #b0b0b0; stroke-opacity: 0.5; stroke-width: 0.3; stroke-linecap: square"/>
     </g>
     <g id="line2d_26">
      <g>
       <use xlink:href="#m6895bf1deb" x="42.620313" y="80.550125" style="stroke: #000000; stroke-width: 0.8"/>
      </g>
     </g>
     <g id="text_14">
      <!-- 6 -->
      <g transform="translate(29.257813 84.349344) scale(0.1 -0.1)">
       <defs>
        <path id="DejaVuSans-36" d="M 2113 2584 
Q 1688 2584 1439 2293 
Q 1191 2003 1191 1497 
Q 1191 994 1439 701 
Q 1688 409 2113 409 
Q 2538 409 2786 701 
Q 3034 994 3034 1497 
Q 3034 2003 2786 2293 
Q 2538 2584 2113 2584 
z
M 3366 4563 
L 3366 3988 
Q 3128 4100 2886 4159 
Q 2644 4219 2406 4219 
Q 1781 4219 1451 3797 
Q 1122 3375 1075 2522 
Q 1259 2794 1537 2939 
Q 1816 3084 2150 3084 
Q 2853 3084 3261 2657 
Q 3669 2231 3669 1497 
Q 3669 778 3244 343 
Q 2819 -91 2113 -91 
Q 1303 -91 875 529 
Q 447 1150 447 2328 
Q 447 3434 972 4092 
Q 1497 4750 2381 4750 
Q 2619 4750 2861 4703 
Q 3103 4656 3366 4563 
z
" transform="scale(0.015625)"/>
       </defs>
       <use xlink:href="#DejaVuSans-36"/>
      </g>
     </g>
    </g>
    <g id="ytick_6">
     <g id="line2d_27">
      <path d="M 42.620313 22.318125 
L 654.056313 22.318125 
" clip-path="url(#pad23b1c31c)" style="fill: none; stroke: #b0b0b0; stroke-opacity: 0.5; stroke-width: 0.3; stroke-linecap: square"/>
     </g>
     <g id="line2d_28">
      <g>
       <use xlink:href="#m6895bf1deb" x="42.620313" y="22.318125" style="stroke: #000000; stroke-width: 0.8"/>
      </g>
     </g>
     <g id="text_15">
      <!-- 8 -->
      <g transform="translate(29.257813 26.117344) scale(0.1 -0.1)">
       <defs>
        <path id="DejaVuSans-38" d="M 2034 2216 
Q 1584 2216 1326 1975 
Q 1069 1734 1069 1313 
Q 1069 891 1326 650 
Q 1584 409 2034 409 
Q 2484 409 2743 651 
Q 3003 894 3003 1313 
Q 3003 1734 2745 1975 
Q 2488 2216 2034 2216 
z
M 1403 2484 
Q 997 2584 770 2862 
Q 544 3141 544 3541 
Q 544 4100 942 4425 
Q 1341 4750 2034 4750 
Q 2731 4750 3128 4425 
Q 3525 4100 3525 3541 
Q 3525 3141 3298 2862 
Q 3072 2584 2669 2484 
Q 3125 2378 3379 2068 
Q 3634 1759 3634 1313 
Q 3634 634 3220 271 
Q 2806 -91 2034 -91 
Q 1263 -91 848 271 
Q 434 634 434 1313 
Q 434 1759 690 2068 
Q 947 2378 1403 2484 
z
M 1172 3481 
Q 1172 3119 1398 2916 
Q 1625 2713 2034 2713 
Q 2441 2713 2670 2916 
Q 2900 3119 2900 3481 
Q 2900 3844 2670 4047 
Q 2441 4250 2034 4250 
Q 1625 4250 1398 4047 
Q 1172 3844 1172 3481 
z
" transform="scale(0.015625)"/>
       </defs>
       <use xlink:href="#DejaVuSans-38"/>
      </g>
     </g>
    </g>
    <g id="text_16">
     <!-- Y (m, world) -->
     <g transform="translate(14.798438 198.258281) rotate(-90) scale(0.1 -0.1)">
      <defs>
       <path id="DejaVuSans-59" d="M -13 4666 
L 666 4666 
L 1959 2747 
L 3244 4666 
L 3922 4666 
L 2272 2222 
L 2272 0 
L 1638 0 
L 1638 2222 
L -13 4666 
z
" transform="scale(0.015625)"/>
      </defs>
      <use xlink:href="#DejaVuSans-59"/>
      <use xlink:href="#DejaVuSans-20" transform="translate(61.083984 0)"/>
      <use xlink:href="#DejaVuSans-28" transform="translate(92.871094 0)"/>
      <use xlink:href="#DejaVuSans-6d" transform="translate(131.884766 0)"/>
      <use xlink:href="#DejaVuSans-2c" transform="translate(229.296875 0)"/>
      <use xlink:href="#DejaVuSans-20" transform="translate(261.083984 0)"/>
      <use xlink:href="#DejaVuSans-77" transform="translate(292.871094 0)"/>
      <use xlink:href="#DejaVuSans-6f" transform="translate(374.658203 0)"/>
      <use xlink:href="#DejaVuSans-72" transform="translate(435.839844 0)"/>
      <use xlink:href="#DejaVuSans-6c" transform="translate(476.953125 0)"/>
      <use xlink:href="#DejaVuSans-64" transform="translate(504.736328 0)"/>
      <use xlink:href="#DejaVuSans-29" transform="translate(568.212891 0)"/>
     </g>
    </g>
   </g>
   <g id="line2d_29">
    <path d="M 71.736313 226.130125 
L 595.824313 226.130125 
" clip-path="url(#pad23b1c31c)" style="fill: none; stroke-dasharray: 2.59,1.12; stroke-dashoffset: 0; stroke: #999999; stroke-width: 0.7"/>
   </g>
   <g id="line2d_30">
    <defs>
     <path id="m6fc6f4fd96" d="M -5 0 
L 5 0 
M 0 5 
L 0 -5 
" style="stroke: #000000; stroke-width: 1.5"/>
    </defs>
    <g clip-path="url(#pad23b1c31c)">
     <use xlink:href="#m6fc6f4fd96" x="100.852313" y="226.130125" style="stroke: #000000; stroke-width: 1.5"/>
    </g>
   </g>
   <g id="patch_22">
    <path d="M 42.620313 313.478125 
L 42.620313 22.318125 
" style="fill: none; stroke: #000000; stroke-width: 0.8; stroke-linejoin: miter; stroke-linecap: square"/>
   </g>
   <g id="patch_23">
    <path d="M 654.056313 313.478125 
L 654.056313 22.318125 
" style="fill: none; stroke: #000000; stroke-width: 0.8; stroke-linejoin: miter; stroke-linecap: square"/>
   </g>
   <g id="patch_24">
    <path d="M 42.620313 313.478125 
L 654.056313 313.478125 
" style="fill: none; stroke: #000000; stroke-width: 0.8; stroke-linejoin: miter; stroke-linecap: square"/>
   </g>
   <g id="patch_25">
    <path d="M 42.620313 22.318125 
L 654.056313 22.318125 
" style="fill: none; stroke: #000000; stroke-width: 0.8; stroke-linejoin: miter; stroke-linecap: square"/>
   </g>
   <g id="text_17">
    <!-- A_01 -->
    <g transform="translate(93.025906 276.084144) scale(0.065 -0.065)">
     <defs>
      <path id="DejaVuSansMono-41" d="M 1925 4109 
L 1259 1722 
L 2591 1722 
L 1925 4109 
z
M 1544 4666 
L 2309 4666 
L 3738 0 
L 3084 0 
L 2741 1216 
L 1106 1216 
L 769 0 
L 116 0 
L 1544 4666 
z
" transform="scale(0.015625)"/>
      <path id="DejaVuSansMono-5f" d="M 3853 -1259 
L 3853 -1509 
L 0 -1509 
L 0 -1259 
L 3853 -1259 
z
" transform="scale(0.015625)"/>
      <path id="DejaVuSansMono-30" d="M 1509 2344 
Q 1509 2516 1629 2641 
Q 1750 2766 1919 2766 
Q 2094 2766 2219 2641 
Q 2344 2516 2344 2344 
Q 2344 2169 2220 2047 
Q 2097 1925 1919 1925 
Q 1744 1925 1626 2044 
Q 1509 2163 1509 2344 
z
M 1925 4250 
Q 1484 4250 1267 3775 
Q 1050 3300 1050 2328 
Q 1050 1359 1267 884 
Q 1484 409 1925 409 
Q 2369 409 2586 884 
Q 2803 1359 2803 2328 
Q 2803 3300 2586 3775 
Q 2369 4250 1925 4250 
z
M 1925 4750 
Q 2672 4750 3055 4137 
Q 3438 3525 3438 2328 
Q 3438 1134 3055 521 
Q 2672 -91 1925 -91 
Q 1178 -91 797 521 
Q 416 1134 416 2328 
Q 416 3525 797 4137 
Q 1178 4750 1925 4750 
z
" transform="scale(0.015625)"/>
      <path id="DejaVuSansMono-31" d="M 844 531 
L 1825 531 
L 1825 4097 
L 769 3859 
L 769 4434 
L 1819 4666 
L 2450 4666 
L 2450 531 
L 3419 531 
L 3419 0 
L 844 0 
L 844 531 
z
" transform="scale(0.015625)"/>
     </defs>
     <use xlink:href="#DejaVuSansMono-41"/>
     <use xlink:href="#DejaVuSansMono-5f" transform="translate(60.205078 0)"/>
     <use xlink:href="#DejaVuSansMono-30" transform="translate(120.410156 0)"/>
     <use xlink:href="#DejaVuSansMono-31" transform="translate(180.615234 0)"/>
    </g>
    <!-- B -->
    <g transform="translate(98.895711 283.584941) scale(0.065 -0.065)">
     <defs>
      <path id="DejaVuSansMono-42" d="M 1153 2228 
L 1153 519 
L 1900 519 
Q 2450 519 2684 711 
Q 2919 903 2919 1344 
Q 2919 1800 2672 2014 
Q 2425 2228 1900 2228 
L 1153 2228 
z
M 1153 4147 
L 1153 2741 
L 1888 2741 
Q 2344 2741 2548 2916 
Q 2753 3091 2753 3481 
Q 2753 3834 2551 3990 
Q 2350 4147 1888 4147 
L 1153 4147 
z
M 519 4666 
L 1900 4666 
Q 2616 4666 3003 4356 
Q 3391 4047 3391 3481 
Q 3391 3053 3186 2806 
Q 2981 2559 2572 2497 
Q 3031 2428 3292 2104 
Q 3553 1781 3553 1281 
Q 3553 647 3137 323 
Q 2722 0 1900 0 
L 519 0 
L 519 4666 
z
" transform="scale(0.015625)"/>
     </defs>
     <use xlink:href="#DejaVuSansMono-42"/>
    </g>
   </g>
   <g id="text_18">
    <!-- B_01 -->
    <g transform="translate(180.373906 276.084144) scale(0.065 -0.065)">
     <use xlink:href="#DejaVuSansMono-42"/>
     <use xlink:href="#DejaVuSansMono-5f" transform="translate(60.205078 0)"/>
     <use xlink:href="#DejaVuSansMono-30" transform="translate(120.410156 0)"/>
     <use xlink:href="#DejaVuSansMono-31" transform="translate(180.615234 0)"/>
    </g>
    <!-- D -->
    <g transform="translate(186.243711 283.584941) scale(0.065 -0.065)">
     <defs>
      <path id="DejaVuSansMono-44" d="M 1363 519 
Q 2159 519 2475 911 
Q 2791 1303 2791 2328 
Q 2791 3363 2477 3755 
Q 2163 4147 1363 4147 
L 1063 4147 
L 1063 519 
L 1363 519 
z
M 1375 4666 
Q 2444 4666 2950 4097 
Q 3456 3528 3456 2328 
Q 3456 1134 2950 567 
Q 2444 0 1375 0 
L 428 0 
L 428 4666 
L 1375 4666 
z
" transform="scale(0.015625)"/>
     </defs>
     <use xlink:href="#DejaVuSansMono-44"/>
    </g>
   </g>
   <g id="text_19">
    <!-- C_01 -->
    <g transform="translate(267.721906 276.084144) scale(0.065 -0.065)">
     <defs>
      <path id="DejaVuSansMono-43" d="M 3353 166 
Q 3113 38 2859 -26 
Q 2606 -91 2322 -91 
Q 1425 -91 929 543 
Q 434 1178 434 2328 
Q 434 3472 932 4111 
Q 1431 4750 2322 4750 
Q 2606 4750 2859 4686 
Q 3113 4622 3353 4494 
L 3353 3847 
Q 3122 4038 2856 4138 
Q 2591 4238 2322 4238 
Q 1706 4238 1400 3763 
Q 1094 3288 1094 2328 
Q 1094 1372 1400 897 
Q 1706 422 2322 422 
Q 2597 422 2861 522 
Q 3125 622 3353 813 
L 3353 166 
z
" transform="scale(0.015625)"/>
     </defs>
     <use xlink:href="#DejaVuSansMono-43"/>
     <use xlink:href="#DejaVuSansMono-5f" transform="translate(60.205078 0)"/>
     <use xlink:href="#DejaVuSansMono-30" transform="translate(120.410156 0)"/>
     <use xlink:href="#DejaVuSansMono-31" transform="translate(180.615234 0)"/>
    </g>
    <!-- C -->
    <g transform="translate(273.591711 283.584941) scale(0.065 -0.065)">
     <use xlink:href="#DejaVuSansMono-43"/>
    </g>
   </g>
   <g id="text_20">
    <!-- A_02 -->
    <g transform="translate(355.069906 276.084144) scale(0.065 -0.065)">
     <defs>
      <path id="DejaVuSansMono-32" d="M 1166 531 
L 3309 531 
L 3309 0 
L 475 0 
L 475 531 
Q 1059 1147 1496 1619 
Q 1934 2091 2100 2284 
Q 2413 2666 2522 2902 
Q 2631 3138 2631 3384 
Q 2631 3775 2401 3997 
Q 2172 4219 1772 4219 
Q 1488 4219 1175 4116 
Q 863 4013 513 3803 
L 513 4441 
Q 834 4594 1145 4672 
Q 1456 4750 1759 4750 
Q 2444 4750 2861 4386 
Q 3278 4022 3278 3431 
Q 3278 3131 3139 2831 
Q 3000 2531 2688 2169 
Q 2513 1966 2180 1606 
Q 1847 1247 1166 531 
z
" transform="scale(0.015625)"/>
     </defs>
     <use xlink:href="#DejaVuSansMono-41"/>
     <use xlink:href="#DejaVuSansMono-5f" transform="translate(60.205078 0)"/>
     <use xlink:href="#DejaVuSansMono-30" transform="translate(120.410156 0)"/>
     <use xlink:href="#DejaVuSansMono-32" transform="translate(180.615234 0)"/>
    </g>
    <!-- F -->
    <g transform="translate(360.939711 283.584941) scale(0.065 -0.065)">
     <defs>
      <path id="DejaVuSansMono-46" d="M 728 4666 
L 3475 4666 
L 3475 4134 
L 1363 4134 
L 1363 2759 
L 3278 2759 
L 3278 2228 
L 1363 2228 
L 1363 0 
L 728 0 
L 728 4666 
z
" transform="scale(0.015625)"/>
     </defs>
     <use xlink:href="#DejaVuSansMono-46"/>
    </g>
   </g>
   <g id="text_21">
    <!-- B_02 -->
    <g transform="translate(442.417906 276.084144) scale(0.065 -0.065)">
     <use xlink:href="#DejaVuSansMono-42"/>
     <use xlink:href="#DejaVuSansMono-5f" transform="translate(60.205078 0)"/>
     <use xlink:href="#DejaVuSansMono-30" transform="translate(120.410156 0)"/>
     <use xlink:href="#DejaVuSansMono-32" transform="translate(180.615234 0)"/>
    </g>
    <!-- A -->
    <g transform="translate(448.287711 283.584941) scale(0.065 -0.065)">
     <use xlink:href="#DejaVuSansMono-41"/>
    </g>
   </g>
   <g id="text_22">
    <!-- C_02 -->
    <g transform="translate(529.765906 276.084144) scale(0.065 -0.065)">
     <use xlink:href="#DejaVuSansMono-43"/>
     <use xlink:href="#DejaVuSansMono-5f" transform="translate(60.205078 0)"/>
     <use xlink:href="#DejaVuSansMono-30" transform="translate(120.410156 0)"/>
     <use xlink:href="#DejaVuSansMono-32" transform="translate(180.615234 0)"/>
    </g>
    <!-- E -->
    <g transform="translate(535.635711 283.584941) scale(0.065 -0.065)">
     <defs>
      <path id="DejaVuSansMono-45" d="M 616 4666 
L 3384 4666 
L 3384 4134 
L 1247 4134 
L 1247 2753 
L 3291 2753 
L 3291 2222 
L 1247 2222 
L 1247 531 
L 3444 531 
L 3444 0 
L 616 0 
L 616 4666 
z
" transform="scale(0.015625)"/>
     </defs>
     <use xlink:href="#DejaVuSansMono-45"/>
    </g>
   </g>
   <g id="text_23">
    <!-- A_03 -->
    <g transform="translate(136.699906 101.388144) scale(0.065 -0.065)">
     <defs>
      <path id="DejaVuSansMono-33" d="M 2425 2497 
Q 2884 2375 3128 2064 
Q 3372 1753 3372 1288 
Q 3372 644 2939 276 
Q 2506 -91 1741 -91 
Q 1419 -91 1084 -31 
Q 750 28 428 141 
L 428 769 
Q 747 603 1056 522 
Q 1366 441 1672 441 
Q 2191 441 2469 675 
Q 2747 909 2747 1350 
Q 2747 1756 2469 1995 
Q 2191 2234 1716 2234 
L 1234 2234 
L 1234 2753 
L 1716 2753 
Q 2150 2753 2394 2943 
Q 2638 3134 2638 3475 
Q 2638 3834 2411 4026 
Q 2184 4219 1766 4219 
Q 1488 4219 1191 4156 
Q 894 4094 569 3969 
L 569 4550 
Q 947 4650 1242 4700 
Q 1538 4750 1766 4750 
Q 2447 4750 2855 4408 
Q 3263 4066 3263 3500 
Q 3263 3116 3048 2859 
Q 2834 2603 2425 2497 
z
" transform="scale(0.015625)"/>
     </defs>
     <use xlink:href="#DejaVuSansMono-41"/>
     <use xlink:href="#DejaVuSansMono-5f" transform="translate(60.205078 0)"/>
     <use xlink:href="#DejaVuSansMono-30" transform="translate(120.410156 0)"/>
     <use xlink:href="#DejaVuSansMono-33" transform="translate(180.615234 0)"/>
    </g>
    <!-- B -->
    <g transform="translate(142.569711 108.888941) scale(0.065 -0.065)">
     <use xlink:href="#DejaVuSansMono-42"/>
    </g>
   </g>
   <g id="text_24">
    <!-- B_03 -->
    <g transform="translate(224.047906 101.388144) scale(0.065 -0.065)">
     <use xlink:href="#DejaVuSansMono-42"/>
     <use xlink:href="#DejaVuSansMono-5f" transform="translate(60.205078 0)"/>
     <use xlink:href="#DejaVuSansMono-30" transform="translate(120.410156 0)"/>
     <use xlink:href="#DejaVuSansMono-33" transform="translate(180.615234 0)"/>
    </g>
    <!-- D -->
    <g transform="translate(229.917711 108.888941) scale(0.065 -0.065)">
     <use xlink:href="#DejaVuSansMono-44"/>
    </g>
   </g>
   <g id="text_25">
    <!-- C_03 -->
    <g transform="translate(311.395906 101.388144) scale(0.065 -0.065)">
     <use xlink:href="#DejaVuSansMono-43"/>
     <use xlink:href="#DejaVuSansMono-5f" transform="translate(60.205078 0)"/>
     <use xlink:href="#DejaVuSansMono-30" transform="translate(120.410156 0)"/>
     <use xlink:href="#DejaVuSansMono-33" transform="translate(180.615234 0)"/>
    </g>
    <!-- C -->
    <g transform="translate(317.265711 108.888941) scale(0.065 -0.065)">
     <use xlink:href="#DejaVuSansMono-43"/>
    </g>
   </g>
   <g id="text_26">
    <!-- A_04 -->
    <g transform="translate(398.743906 101.388144) scale(0.065 -0.065)">
     <defs>
      <path id="DejaVuSansMono-34" d="M 2297 4091 
L 825 1625 
L 2297 1625 
L 2297 4091 
z
M 2194 4666 
L 2925 4666 
L 2925 1625 
L 3547 1625 
L 3547 1113 
L 2925 1113 
L 2925 0 
L 2297 0 
L 2297 1113 
L 319 1113 
L 319 1709 
L 2194 4666 
z
" transform="scale(0.015625)"/>
     </defs>
     <use xlink:href="#DejaVuSansMono-41"/>
     <use xlink:href="#DejaVuSansMono-5f" transform="translate(60.205078 0)"/>
     <use xlink:href="#DejaVuSansMono-30" transform="translate(120.410156 0)"/>
     <use xlink:href="#DejaVuSansMono-34" transform="translate(180.615234 0)"/>
    </g>
    <!-- F -->
    <g transform="translate(404.613711 108.888941) scale(0.065 -0.065)">
     <use xlink:href="#DejaVuSansMono-46"/>
    </g>
   </g>
   <g id="text_27">
    <!-- B_04 -->
    <g transform="translate(486.091906 101.388144) scale(0.065 -0.065)">
     <use xlink:href="#DejaVuSansMono-42"/>
     <use xlink:href="#DejaVuSansMono-5f" transform="translate(60.205078 0)"/>
     <use xlink:href="#DejaVuSansMono-30" transform="translate(120.410156 0)"/>
     <use xlink:href="#DejaVuSansMono-34" transform="translate(180.615234 0)"/>
    </g>
    <!-- A -->
    <g transform="translate(491.961711 108.888941) scale(0.065 -0.065)">
     <use xlink:href="#DejaVuSansMono-41"/>
    </g>
   </g>
   <g id="text_28">
    <!-- C_04 -->
    <g transform="translate(573.439906 101.388144) scale(0.065 -0.065)">
     <use xlink:href="#DejaVuSansMono-43"/>
     <use xlink:href="#DejaVuSansMono-5f" transform="translate(60.205078 0)"/>
     <use xlink:href="#DejaVuSansMono-30" transform="translate(120.410156 0)"/>
     <use xlink:href="#DejaVuSansMono-34" transform="translate(180.615234 0)"/>
    </g>
    <!-- E -->
    <g transform="translate(579.309711 108.888941) scale(0.065 -0.065)">
     <use xlink:href="#DejaVuSansMono-45"/>
    </g>
   </g>
   <g id="text_29">
    <!-- Husky aisle -->
    <g style="fill: #666666" transform="translate(601.647513 224.142453) scale(0.07 -0.07)">
     <defs>
      <path id="DejaVuSans-48" d="M 628 4666 
L 1259 4666 
L 1259 2753 
L 3553 2753 
L 3553 4666 
L 4184 4666 
L 4184 0 
L 3553 0 
L 3553 2222 
L 1259 2222 
L 1259 0 
L 628 0 
L 628 4666 
z
" transform="scale(0.015625)"/>
      <path id="DejaVuSans-75" d="M 544 1381 
L 544 3500 
L 1119 3500 
L 1119 1403 
Q 1119 906 1312 657 
Q 1506 409 1894 409 
Q 2359 409 2629 706 
Q 2900 1003 2900 1516 
L 2900 3500 
L 3475 3500 
L 3475 0 
L 2900 0 
L 2900 538 
Q 2691 219 2414 64 
Q 2138 -91 1772 -91 
Q 1169 -91 856 284 
Q 544 659 544 1381 
z
M 1991 3584 
L 1991 3584 
z
" transform="scale(0.015625)"/>
      <path id="DejaVuSans-73" d="M 2834 3397 
L 2834 2853 
Q 2591 2978 2328 3040 
Q 2066 3103 1784 3103 
Q 1356 3103 1142 2972 
Q 928 2841 928 2578 
Q 928 2378 1081 2264 
Q 1234 2150 1697 2047 
L 1894 2003 
Q 2506 1872 2764 1633 
Q 3022 1394 3022 966 
Q 3022 478 2636 193 
Q 2250 -91 1575 -91 
Q 1294 -91 989 -36 
Q 684 19 347 128 
L 347 722 
Q 666 556 975 473 
Q 1284 391 1588 391 
Q 1994 391 2212 530 
Q 2431 669 2431 922 
Q 2431 1156 2273 1281 
Q 2116 1406 1581 1522 
L 1381 1569 
Q 847 1681 609 1914 
Q 372 2147 372 2553 
Q 372 3047 722 3315 
Q 1072 3584 1716 3584 
Q 2034 3584 2315 3537 
Q 2597 3491 2834 3397 
z
" transform="scale(0.015625)"/>
      <path id="DejaVuSans-6b" d="M 581 4863 
L 1159 4863 
L 1159 1991 
L 2875 3500 
L 3609 3500 
L 1753 1863 
L 3688 0 
L 2938 0 
L 1159 1709 
L 1159 0 
L 581 0 
L 581 4863 
z
" transform="scale(0.015625)"/>
      <path id="DejaVuSans-79" d="M 2059 -325 
Q 1816 -950 1584 -1140 
Q 1353 -1331 966 -1331 
L 506 -1331 
L 506 -850 
L 844 -850 
Q 1081 -850 1212 -737 
Q 1344 -625 1503 -206 
L 1606 56 
L 191 3500 
L 800 3500 
L 1894 763 
L 2988 3500 
L 3597 3500 
L 2059 -325 
z
" transform="scale(0.015625)"/>
      <path id="DejaVuSans-61" d="M 2194 1759 
Q 1497 1759 1228 1600 
Q 959 1441 959 1056 
Q 959 750 1161 570 
Q 1363 391 1709 391 
Q 2188 391 2477 730 
Q 2766 1069 2766 1631 
L 2766 1759 
L 2194 1759 
z
M 3341 1997 
L 3341 0 
L 2766 0 
L 2766 531 
Q 2569 213 2275 61 
Q 1981 -91 1556 -91 
Q 1019 -91 701 211 
Q 384 513 384 1019 
Q 384 1609 779 1909 
Q 1175 2209 1959 2209 
L 2766 2209 
L 2766 2266 
Q 2766 2663 2505 2880 
Q 2244 3097 1772 3097 
Q 1472 3097 1187 3025 
Q 903 2953 641 2809 
L 641 3341 
Q 956 3463 1253 3523 
Q 1550 3584 1831 3584 
Q 2591 3584 2966 3190 
Q 3341 2797 3341 1997 
z
" transform="scale(0.015625)"/>
      <path id="DejaVuSans-69" d="M 603 3500 
L 1178 3500 
L 1178 0 
L 603 0 
L 603 3500 
z
M 603 4863 
L 1178 4863 
L 1178 4134 
L 603 4134 
L 603 4863 
z
" transform="scale(0.015625)"/>
      <path id="DejaVuSans-65" d="M 3597 1894 
L 3597 1613 
L 953 1613 
Q 991 1019 1311 708 
Q 1631 397 2203 397 
Q 2534 397 2845 478 
Q 3156 559 3463 722 
L 3463 178 
Q 3153 47 2828 -22 
Q 2503 -91 2169 -91 
Q 1331 -91 842 396 
Q 353 884 353 1716 
Q 353 2575 817 3079 
Q 1281 3584 2069 3584 
Q 2775 3584 3186 3129 
Q 3597 2675 3597 1894 
z
M 3022 2063 
Q 3016 2534 2758 2815 
Q 2500 3097 2075 3097 
Q 1594 3097 1305 2825 
Q 1016 2553 972 2059 
L 3022 2063 
z
" transform="scale(0.015625)"/>
     </defs>
     <use xlink:href="#DejaVuSans-48"/>
     <use xlink:href="#DejaVuSans-75" transform="translate(75.195312 0)"/>
     <use xlink:href="#DejaVuSans-73" transform="translate(138.574219 0)"/>
     <use xlink:href="#DejaVuSans-6b" transform="translate(190.673828 0)"/>
     <use xlink:href="#DejaVuSans-79" transform="translate(244.958984 0)"/>
     <use xlink:href="#DejaVuSans-20" transform="translate(304.138672 0)"/>
     <use xlink:href="#DejaVuSans-61" transform="translate(335.925781 0)"/>
     <use xlink:href="#DejaVuSans-69" transform="translate(397.205078 0)"/>
     <use xlink:href="#DejaVuSans-73" transform="translate(424.988281 0)"/>
     <use xlink:href="#DejaVuSans-6c" transform="translate(477.087891 0)"/>
     <use xlink:href="#DejaVuSans-65" transform="translate(504.871094 0)"/>
    </g>
    <!-- (Y=1.0) -->
    <g style="fill: #666666" transform="translate(601.647513 231.980922) scale(0.07 -0.07)">
     <defs>
      <path id="DejaVuSans-3d" d="M 678 2906 
L 4684 2906 
L 4684 2381 
L 678 2381 
L 678 2906 
z
M 678 1631 
L 4684 1631 
L 4684 1100 
L 678 1100 
L 678 1631 
z
" transform="scale(0.015625)"/>
     </defs>
     <use xlink:href="#DejaVuSans-28"/>
     <use xlink:href="#DejaVuSans-59" transform="translate(39.013672 0)"/>
     <use xlink:href="#DejaVuSans-3d" transform="translate(100.097656 0)"/>
     <use xlink:href="#DejaVuSans-31" transform="translate(183.886719 0)"/>
     <use xlink:href="#DejaVuSans-2e" transform="translate(247.509766 0)"/>
     <use xlink:href="#DejaVuSans-30" transform="translate(279.296875 0)"/>
     <use xlink:href="#DejaVuSans-29" transform="translate(342.919922 0)"/>
    </g>
   </g>
   <g id="patch_26">
    <path d="M 102.855921 226.130125 
Q 110.242615 226.130125 116.511274 226.130125 
" style="fill: none; stroke: #000000; stroke-linecap: round"/>
    <path d="M 112.511274 224.130125 
L 116.511274 226.130125 
L 112.511274 228.130125 
" style="fill: none; stroke: #000000; stroke-linecap: round"/>
   </g>
   <g id="text_30">
    <!-- Row 1 -->
    <g transform="translate(44.433969 257.729562) scale(0.09 -0.09)">
     <defs>
      <path id="DejaVuSans-52" d="M 2841 2188 
Q 3044 2119 3236 1894 
Q 3428 1669 3622 1275 
L 4263 0 
L 3584 0 
L 2988 1197 
Q 2756 1666 2539 1819 
Q 2322 1972 1947 1972 
L 1259 1972 
L 1259 0 
L 628 0 
L 628 4666 
L 2053 4666 
Q 2853 4666 3247 4331 
Q 3641 3997 3641 3322 
Q 3641 2881 3436 2590 
Q 3231 2300 2841 2188 
z
M 1259 4147 
L 1259 2491 
L 2053 2491 
Q 2509 2491 2742 2702 
Q 2975 2913 2975 3322 
Q 2975 3731 2742 3939 
Q 2509 4147 2053 4147 
L 1259 4147 
z
" transform="scale(0.015625)"/>
     </defs>
     <use xlink:href="#DejaVuSans-52"/>
     <use xlink:href="#DejaVuSans-6f" transform="translate(64.982422 0)"/>
     <use xlink:href="#DejaVuSans-77" transform="translate(126.164062 0)"/>
     <use xlink:href="#DejaVuSans-20" transform="translate(207.951172 0)"/>
     <use xlink:href="#DejaVuSans-31" transform="translate(239.738281 0)"/>
    </g>
   </g>
   <g id="text_31">
    <!-- Row 2 -->
    <g transform="translate(44.433969 83.033563) scale(0.09 -0.09)">
     <use xlink:href="#DejaVuSans-52"/>
     <use xlink:href="#DejaVuSans-6f" transform="translate(64.982422 0)"/>
     <use xlink:href="#DejaVuSans-77" transform="translate(126.164062 0)"/>
     <use xlink:href="#DejaVuSans-20" transform="translate(207.951172 0)"/>
     <use xlink:href="#DejaVuSans-32" transform="translate(239.738281 0)"/>
    </g>
   </g>
   <g id="patch_27">
    <path d="M 103.972249 281.450525 
Q 144.528417 281.450525 185.084584 281.450525 
" style="fill: none; stroke: #000000; stroke-linecap: round"/>
    <path d="M 107.972249 283.450525 
L 103.972249 281.450525 
L 107.972249 279.450525 
" style="fill: none; stroke: #000000; stroke-linecap: round"/>
    <path d="M 181.084584 279.450525 
L 185.084584 281.450525 
L 181.084584 283.450525 
" style="fill: none; stroke: #000000; stroke-linecap: round"/>
   </g>
   <g id="text_32">
    <!-- 3.0 m -->
    <g transform="translate(134.438656 287.273725) scale(0.07 -0.07)">
     <defs>
      <path id="DejaVuSans-33" d="M 2597 2516 
Q 3050 2419 3304 2112 
Q 3559 1806 3559 1356 
Q 3559 666 3084 287 
Q 2609 -91 1734 -91 
Q 1441 -91 1130 -33 
Q 819 25 488 141 
L 488 750 
Q 750 597 1062 519 
Q 1375 441 1716 441 
Q 2309 441 2620 675 
Q 2931 909 2931 1356 
Q 2931 1769 2642 2001 
Q 2353 2234 1838 2234 
L 1294 2234 
L 1294 2753 
L 1863 2753 
Q 2328 2753 2575 2939 
Q 2822 3125 2822 3475 
Q 2822 3834 2567 4026 
Q 2313 4219 1838 4219 
Q 1578 4219 1281 4162 
Q 984 4106 628 3988 
L 628 4550 
Q 988 4650 1302 4700 
Q 1616 4750 1894 4750 
Q 2613 4750 3031 4423 
Q 3450 4097 3450 3541 
Q 3450 3153 3228 2886 
Q 3006 2619 2597 2516 
z
" transform="scale(0.015625)"/>
     </defs>
     <use xlink:href="#DejaVuSans-33"/>
     <use xlink:href="#DejaVuSans-2e" transform="translate(63.623047 0)"/>
     <use xlink:href="#DejaVuSans-30" transform="translate(95.410156 0)"/>
     <use xlink:href="#DejaVuSans-20" transform="translate(159.033203 0)"/>
     <use xlink:href="#DejaVuSans-6d" transform="translate(190.820312 0)"/>
    </g>
   </g>
   <g id="patch_28">
    <path d="M 100.852313 252.126188 
Q 100.852313 167.897195 100.852313 83.668202 
" style="fill: none; stroke: #000000; stroke-linecap: round"/>
    <path d="M 102.852313 248.126188 
L 100.852313 252.126188 
L 98.852313 248.126188 
" style="fill: none; stroke: #000000; stroke-linecap: round"/>
    <path d="M 98.852313 87.668202 
L 100.852313 83.668202 
L 102.852313 87.668202 
" style="fill: none; stroke: #000000; stroke-linecap: round"/>
   </g>
   <g id="text_33">
    <!-- 6.0 m -->
    <g transform="translate(101.803819 177.985781) rotate(-90) scale(0.07 -0.07)">
     <use xlink:href="#DejaVuSans-36"/>
     <use xlink:href="#DejaVuSans-2e" transform="translate(63.623047 0)"/>
     <use xlink:href="#DejaVuSans-30" transform="translate(95.410156 0)"/>
     <use xlink:href="#DejaVuSans-20" transform="translate(159.033203 0)"/>
     <use xlink:href="#DejaVuSans-6d" transform="translate(190.820312 0)"/>
    </g>
   </g>
   <g id="text_34">
    <!-- Top-down: cotton field + Husky aisle (X right, Y left) -->
    <g transform="translate(193.297375 16.318125) scale(0.12 -0.12)">
     <defs>
      <path id="DejaVuSans-54" d="M -19 4666 
L 3928 4666 
L 3928 4134 
L 2272 4134 
L 2272 0 
L 1638 0 
L 1638 4134 
L -19 4134 
L -19 4666 
z
" transform="scale(0.015625)"/>
      <path id="DejaVuSans-70" d="M 1159 525 
L 1159 -1331 
L 581 -1331 
L 581 3500 
L 1159 3500 
L 1159 2969 
Q 1341 3281 1617 3432 
Q 1894 3584 2278 3584 
Q 2916 3584 3314 3078 
Q 3713 2572 3713 1747 
Q 3713 922 3314 415 
Q 2916 -91 2278 -91 
Q 1894 -91 1617 61 
Q 1341 213 1159 525 
z
M 3116 1747 
Q 3116 2381 2855 2742 
Q 2594 3103 2138 3103 
Q 1681 3103 1420 2742 
Q 1159 2381 1159 1747 
Q 1159 1113 1420 752 
Q 1681 391 2138 391 
Q 2594 391 2855 752 
Q 3116 1113 3116 1747 
z
" transform="scale(0.015625)"/>
      <path id="DejaVuSans-2d" d="M 313 2009 
L 1997 2009 
L 1997 1497 
L 313 1497 
L 313 2009 
z
" transform="scale(0.015625)"/>
      <path id="DejaVuSans-6e" d="M 3513 2113 
L 3513 0 
L 2938 0 
L 2938 2094 
Q 2938 2591 2744 2837 
Q 2550 3084 2163 3084 
Q 1697 3084 1428 2787 
Q 1159 2491 1159 1978 
L 1159 0 
L 581 0 
L 581 3500 
L 1159 3500 
L 1159 2956 
Q 1366 3272 1645 3428 
Q 1925 3584 2291 3584 
Q 2894 3584 3203 3211 
Q 3513 2838 3513 2113 
z
" transform="scale(0.015625)"/>
      <path id="DejaVuSans-3a" d="M 750 794 
L 1409 794 
L 1409 0 
L 750 0 
L 750 794 
z
M 750 3309 
L 1409 3309 
L 1409 2516 
L 750 2516 
L 750 3309 
z
" transform="scale(0.015625)"/>
      <path id="DejaVuSans-63" d="M 3122 3366 
L 3122 2828 
Q 2878 2963 2633 3030 
Q 2388 3097 2138 3097 
Q 1578 3097 1268 2742 
Q 959 2388 959 1747 
Q 959 1106 1268 751 
Q 1578 397 2138 397 
Q 2388 397 2633 464 
Q 2878 531 3122 666 
L 3122 134 
Q 2881 22 2623 -34 
Q 2366 -91 2075 -91 
Q 1284 -91 818 406 
Q 353 903 353 1747 
Q 353 2603 823 3093 
Q 1294 3584 2113 3584 
Q 2378 3584 2631 3529 
Q 2884 3475 3122 3366 
z
" transform="scale(0.015625)"/>
      <path id="DejaVuSans-74" d="M 1172 4494 
L 1172 3500 
L 2356 3500 
L 2356 3053 
L 1172 3053 
L 1172 1153 
Q 1172 725 1289 603 
Q 1406 481 1766 481 
L 2356 481 
L 2356 0 
L 1766 0 
Q 1100 0 847 248 
Q 594 497 594 1153 
L 594 3053 
L 172 3053 
L 172 3500 
L 594 3500 
L 594 4494 
L 1172 4494 
z
" transform="scale(0.015625)"/>
      <path id="DejaVuSans-66" d="M 2375 4863 
L 2375 4384 
L 1825 4384 
Q 1516 4384 1395 4259 
Q 1275 4134 1275 3809 
L 1275 3500 
L 2222 3500 
L 2222 3053 
L 1275 3053 
L 1275 0 
L 697 0 
L 697 3053 
L 147 3053 
L 147 3500 
L 697 3500 
L 697 3744 
Q 697 4328 969 4595 
Q 1241 4863 1831 4863 
L 2375 4863 
z
" transform="scale(0.015625)"/>
      <path id="DejaVuSans-2b" d="M 2944 4013 
L 2944 2272 
L 4684 2272 
L 4684 1741 
L 2944 1741 
L 2944 0 
L 2419 0 
L 2419 1741 
L 678 1741 
L 678 2272 
L 2419 2272 
L 2419 4013 
L 2944 4013 
z
" transform="scale(0.015625)"/>
      <path id="DejaVuSans-67" d="M 2906 1791 
Q 2906 2416 2648 2759 
Q 2391 3103 1925 3103 
Q 1463 3103 1205 2759 
Q 947 2416 947 1791 
Q 947 1169 1205 825 
Q 1463 481 1925 481 
Q 2391 481 2648 825 
Q 2906 1169 2906 1791 
z
M 3481 434 
Q 3481 -459 3084 -895 
Q 2688 -1331 1869 -1331 
Q 1566 -1331 1297 -1286 
Q 1028 -1241 775 -1147 
L 775 -588 
Q 1028 -725 1275 -790 
Q 1522 -856 1778 -856 
Q 2344 -856 2625 -561 
Q 2906 -266 2906 331 
L 2906 616 
Q 2728 306 2450 153 
Q 2172 0 1784 0 
Q 1141 0 747 490 
Q 353 981 353 1791 
Q 353 2603 747 3093 
Q 1141 3584 1784 3584 
Q 2172 3584 2450 3431 
Q 2728 3278 2906 2969 
L 2906 3500 
L 3481 3500 
L 3481 434 
z
" transform="scale(0.015625)"/>
      <path id="DejaVuSans-68" d="M 3513 2113 
L 3513 0 
L 2938 0 
L 2938 2094 
Q 2938 2591 2744 2837 
Q 2550 3084 2163 3084 
Q 1697 3084 1428 2787 
Q 1159 2491 1159 1978 
L 1159 0 
L 581 0 
L 581 4863 
L 1159 4863 
L 1159 2956 
Q 1366 3272 1645 3428 
Q 1925 3584 2291 3584 
Q 2894 3584 3203 3211 
Q 3513 2838 3513 2113 
z
" transform="scale(0.015625)"/>
     </defs>
     <use xlink:href="#DejaVuSans-54"/>
     <use xlink:href="#DejaVuSans-6f" transform="translate(44.083984 0)"/>
     <use xlink:href="#DejaVuSans-70" transform="translate(105.265625 0)"/>
     <use xlink:href="#DejaVuSans-2d" transform="translate(168.742188 0)"/>
     <use xlink:href="#DejaVuSans-64" transform="translate(204.826172 0)"/>
     <use xlink:href="#DejaVuSans-6f" transform="translate(268.302734 0)"/>
     <use xlink:href="#DejaVuSans-77" transform="translate(329.484375 0)"/>
     <use xlink:href="#DejaVuSans-6e" transform="translate(411.271484 0)"/>
     <use xlink:href="#DejaVuSans-3a" transform="translate(474.650391 0)"/>
     <use xlink:href="#DejaVuSans-20" transform="translate(508.341797 0)"/>
     <use xlink:href="#DejaVuSans-63" transform="translate(540.128906 0)"/>
     <use xlink:href="#DejaVuSans-6f" transform="translate(595.109375 0)"/>
     <use xlink:href="#DejaVuSans-74" transform="translate(656.291016 0)"/>
     <use xlink:href="#DejaVuSans-74" transform="translate(695.5 0)"/>
     <use xlink:href="#DejaVuSans-6f" transform="translate(734.708984 0)"/>
     <use xlink:href="#DejaVuSans-6e" transform="translate(795.890625 0)"/>
     <use xlink:href="#DejaVuSans-20" transform="translate(859.269531 0)"/>
     <use xlink:href="#DejaVuSans-66" transform="translate(891.056641 0)"/>
     <use xlink:href="#DejaVuSans-69" transform="translate(926.261719 0)"/>
     <use xlink:href="#DejaVuSans-65" transform="translate(954.044922 0)"/>
     <use xlink:href="#DejaVuSans-6c" transform="translate(1015.568359 0)"/>
     <use xlink:href="#DejaVuSans-64" transform="translate(1043.351562 0)"/>
     <use xlink:href="#DejaVuSans-20" transform="translate(1106.828125 0)"/>
     <use xlink:href="#DejaVuSans-2b" transform="translate(1138.615234 0)"/>
     <use xlink:href="#DejaVuSans-20" transform="translate(1222.404297 0)"/>
     <use xlink:href="#DejaVuSans-48" transform="translate(1254.191406 0)"/>
     <use xlink:href="#DejaVuSans-75" transform="translate(1329.386719 0)"/>
     <use xlink:href="#DejaVuSans-73" transform="translate(1392.765625 0)"/>
     <use xlink:href="#DejaVuSans-6b" transform="translate(1444.865234 0)"/>
     <use xlink:href="#DejaVuSans-79" transform="translate(1499.150391 0)"/>
     <use xlink:href="#DejaVuSans-20" transform="translate(1558.330078 0)"/>
     <use xlink:href="#DejaVuSans-61" transform="translate(1590.117188 0)"/>
     <use xlink:href="#DejaVuSans-69" transform="translate(1651.396484 0)"/>
     <use xlink:href="#DejaVuSans-73" transform="translate(1679.179688 0)"/>
     <use xlink:href="#DejaVuSans-6c" transform="translate(1731.279297 0)"/>
     <use xlink:href="#DejaVuSans-65" transform="translate(1759.0625 0)"/>
     <use xlink:href="#DejaVuSans-20" transform="translate(1820.585938 0)"/>
     <use xlink:href="#DejaVuSans-28" transform="translate(1852.373047 0)"/>
     <use xlink:href="#DejaVuSans-58" transform="translate(1891.386719 0)"/>
     <use xlink:href="#DejaVuSans-20" transform="translate(1959.892578 0)"/>
     <use xlink:href="#DejaVuSans-72" transform="translate(1991.679688 0)"/>
     <use xlink:href="#DejaVuSans-69" transform="translate(2032.792969 0)"/>
     <use xlink:href="#DejaVuSans-67" transform="translate(2060.576172 0)"/>
     <use xlink:href="#DejaVuSans-68" transform="translate(2124.052734 0)"/>
     <use xlink:href="#DejaVuSans-74" transform="translate(2187.431641 0)"/>
     <use xlink:href="#DejaVuSans-2c" transform="translate(2226.640625 0)"/>
     <use xlink:href="#DejaVuSans-20" transform="translate(2258.427734 0)"/>
     <use xlink:href="#DejaVuSans-59" transform="translate(2290.214844 0)"/>
     <use xlink:href="#DejaVuSans-20" transform="translate(2351.298828 0)"/>
     <use xlink:href="#DejaVuSans-6c" transform="translate(2383.085938 0)"/>
     <use xlink:href="#DejaVuSans-65" transform="translate(2410.869141 0)"/>
     <use xlink:href="#DejaVuSans-66" transform="translate(2472.392578 0)"/>
     <use xlink:href="#DejaVuSans-74" transform="translate(2505.847656 0)"/>
     <use xlink:href="#DejaVuSans-29" transform="translate(2545.056641 0)"/>
    </g>
   </g>
   <g id="legend_1">
    <g id="patch_29">
     <path d="M 47.520313 89.56625 
L 170.202969 89.56625 
Q 171.602969 89.56625 171.602969 88.16625 
L 171.602969 27.218125 
Q 171.602969 25.818125 170.202969 25.818125 
L 47.520313 25.818125 
Q 46.120313 25.818125 46.120313 27.218125 
L 46.120313 88.16625 
Q 46.120313 89.56625 47.520313 89.56625 
z
" style="fill: #ffffff; opacity: 0.95; stroke: #cccccc; stroke-linejoin: miter"/>
    </g>
    <g id="patch_30">
     <path d="M 48.920313 33.937031 
L 62.920313 33.937031 
L 62.920313 29.037031 
L 48.920313 29.037031 
z
" style="fill: #f2a900; stroke: #f2a900; stroke-linejoin: miter"/>
    </g>
    <g id="text_35">
     <!-- Husky body -->
     <g transform="translate(68.520313 33.937031) scale(0.07 -0.07)">
      <defs>
       <path id="DejaVuSans-62" d="M 3116 1747 
Q 3116 2381 2855 2742 
Q 2594 3103 2138 3103 
Q 1681 3103 1420 2742 
Q 1159 2381 1159 1747 
Q 1159 1113 1420 752 
Q 1681 391 2138 391 
Q 2594 391 2855 752 
Q 3116 1113 3116 1747 
z
M 1159 2969 
Q 1341 3281 1617 3432 
Q 1894 3584 2278 3584 
Q 2916 3584 3314 3078 
Q 3713 2572 3713 1747 
Q 3713 922 3314 415 
Q 2916 -91 2278 -91 
Q 1894 -91 1617 61 
Q 1341 213 1159 525 
L 1159 0 
L 581 0 
L 581 4863 
L 1159 4863 
L 1159 2969 
z
" transform="scale(0.015625)"/>
      </defs>
      <use xlink:href="#DejaVuSans-48"/>
      <use xlink:href="#DejaVuSans-75" transform="translate(75.195312 0)"/>
      <use xlink:href="#DejaVuSans-73" transform="translate(138.574219 0)"/>
      <use xlink:href="#DejaVuSans-6b" transform="translate(190.673828 0)"/>
      <use xlink:href="#DejaVuSans-79" transform="translate(244.958984 0)"/>
      <use xlink:href="#DejaVuSans-20" transform="translate(304.138672 0)"/>
      <use xlink:href="#DejaVuSans-62" transform="translate(335.925781 0)"/>
      <use xlink:href="#DejaVuSans-6f" transform="translate(399.402344 0)"/>
      <use xlink:href="#DejaVuSans-64" transform="translate(460.583984 0)"/>
      <use xlink:href="#DejaVuSans-79" transform="translate(524.060547 0)"/>
     </g>
    </g>
    <g id="patch_31">
     <path d="M 48.920313 44.211719 
L 62.920313 44.211719 
L 62.920313 39.311719 
L 48.920313 39.311719 
z
" style="fill: #4d4d4d; stroke: #4d4d4d; stroke-linejoin: miter"/>
    </g>
    <g id="text_36">
     <!-- Arm mount -->
     <g transform="translate(68.520313 44.211719) scale(0.07 -0.07)">
      <defs>
       <path id="DejaVuSans-41" d="M 2188 4044 
L 1331 1722 
L 3047 1722 
L 2188 4044 
z
M 1831 4666 
L 2547 4666 
L 4325 0 
L 3669 0 
L 3244 1197 
L 1141 1197 
L 716 0 
L 50 0 
L 1831 4666 
z
" transform="scale(0.015625)"/>
      </defs>
      <use xlink:href="#DejaVuSans-41"/>
      <use xlink:href="#DejaVuSans-72" transform="translate(68.408203 0)"/>
      <use xlink:href="#DejaVuSans-6d" transform="translate(107.771484 0)"/>
      <use xlink:href="#DejaVuSans-20" transform="translate(205.183594 0)"/>
      <use xlink:href="#DejaVuSans-6d" transform="translate(236.970703 0)"/>
      <use xlink:href="#DejaVuSans-6f" transform="translate(334.382812 0)"/>
      <use xlink:href="#DejaVuSans-75" transform="translate(395.564453 0)"/>
      <use xlink:href="#DejaVuSans-6e" transform="translate(458.943359 0)"/>
      <use xlink:href="#DejaVuSans-74" transform="translate(522.322266 0)"/>
     </g>
    </g>
    <g id="patch_32">
     <path d="M 48.920313 54.486406 
L 62.920313 54.486406 
L 62.920313 49.586406 
L 48.920313 49.586406 
z
" style="fill: #3f51b5; opacity: 0.65; stroke: #3f51b5; stroke-linejoin: miter"/>
    </g>
    <g id="text_37">
     <!-- Reservoir -->
     <g transform="translate(68.520313 54.486406) scale(0.07 -0.07)">
      <defs>
       <path id="DejaVuSans-76" d="M 191 3500 
L 800 3500 
L 1894 563 
L 2988 3500 
L 3597 3500 
L 2284 0 
L 1503 0 
L 191 3500 
z
" transform="scale(0.015625)"/>
      </defs>
      <use xlink:href="#DejaVuSans-52"/>
      <use xlink:href="#DejaVuSans-65" transform="translate(64.982422 0)"/>
      <use xlink:href="#DejaVuSans-73" transform="translate(126.505859 0)"/>
      <use xlink:href="#DejaVuSans-65" transform="translate(178.605469 0)"/>
      <use xlink:href="#DejaVuSans-72" transform="translate(240.128906 0)"/>
      <use xlink:href="#DejaVuSans-76" transform="translate(281.242188 0)"/>
      <use xlink:href="#DejaVuSans-6f" transform="translate(340.421875 0)"/>
      <use xlink:href="#DejaVuSans-69" transform="translate(401.603516 0)"/>
      <use xlink:href="#DejaVuSans-72" transform="translate(429.386719 0)"/>
     </g>
    </g>
    <g id="patch_33">
     <path d="M 48.920313 64.761094 
L 62.920313 64.761094 
L 62.920313 59.861094 
L 48.920313 59.861094 
z
" style="fill: #7cb342; stroke: #7cb342; stroke-linejoin: miter"/>
    </g>
    <g id="text_38">
     <!-- Cluster (B/D = green unripe) -->
     <g transform="translate(68.520313 64.761094) scale(0.07 -0.07)">
      <defs>
       <path id="DejaVuSans-43" d="M 4122 4306 
L 4122 3641 
Q 3803 3938 3442 4084 
Q 3081 4231 2675 4231 
Q 1875 4231 1450 3742 
Q 1025 3253 1025 2328 
Q 1025 1406 1450 917 
Q 1875 428 2675 428 
Q 3081 428 3442 575 
Q 3803 722 4122 1019 
L 4122 359 
Q 3791 134 3420 21 
Q 3050 -91 2638 -91 
Q 1578 -91 968 557 
Q 359 1206 359 2328 
Q 359 3453 968 4101 
Q 1578 4750 2638 4750 
Q 3056 4750 3426 4639 
Q 3797 4528 4122 4306 
z
" transform="scale(0.015625)"/>
       <path id="DejaVuSans-42" d="M 1259 2228 
L 1259 519 
L 2272 519 
Q 2781 519 3026 730 
Q 3272 941 3272 1375 
Q 3272 1813 3026 2020 
Q 2781 2228 2272 2228 
L 1259 2228 
z
M 1259 4147 
L 1259 2741 
L 2194 2741 
Q 2656 2741 2882 2914 
Q 3109 3088 3109 3444 
Q 3109 3797 2882 3972 
Q 2656 4147 2194 4147 
L 1259 4147 
z
M 628 4666 
L 2241 4666 
Q 2963 4666 3353 4366 
Q 3744 4066 3744 3513 
Q 3744 3084 3544 2831 
Q 3344 2578 2956 2516 
Q 3422 2416 3680 2098 
Q 3938 1781 3938 1306 
Q 3938 681 3513 340 
Q 3088 0 2303 0 
L 628 0 
L 628 4666 
z
" transform="scale(0.015625)"/>
       <path id="DejaVuSans-2f" d="M 1625 4666 
L 2156 4666 
L 531 -594 
L 0 -594 
L 1625 4666 
z
" transform="scale(0.015625)"/>
       <path id="DejaVuSans-44" d="M 1259 4147 
L 1259 519 
L 2022 519 
Q 2988 519 3436 956 
Q 3884 1394 3884 2338 
Q 3884 3275 3436 3711 
Q 2988 4147 2022 4147 
L 1259 4147 
z
M 628 4666 
L 1925 4666 
Q 3281 4666 3915 4102 
Q 4550 3538 4550 2338 
Q 4550 1131 3912 565 
Q 3275 0 1925 0 
L 628 0 
L 628 4666 
z
" transform="scale(0.015625)"/>
      </defs>
      <use xlink:href="#DejaVuSans-43"/>
      <use xlink:href="#DejaVuSans-6c" transform="translate(69.824219 0)"/>
      <use xlink:href="#DejaVuSans-75" transform="translate(97.607422 0)"/>
      <use xlink:href="#DejaVuSans-73" transform="translate(160.986328 0)"/>
      <use xlink:href="#DejaVuSans-74" transform="translate(213.085938 0)"/>
      <use xlink:href="#DejaVuSans-65" transform="translate(252.294922 0)"/>
      <use xlink:href="#DejaVuSans-72" transform="translate(313.818359 0)"/>
      <use xlink:href="#DejaVuSans-20" transform="translate(354.931641 0)"/>
      <use xlink:href="#DejaVuSans-28" transform="translate(386.71875 0)"/>
      <use xlink:href="#DejaVuSans-42" transform="translate(425.732422 0)"/>
      <use xlink:href="#DejaVuSans-2f" transform="translate(494.335938 0)"/>
      <use xlink:href="#DejaVuSans-44" transform="translate(528.027344 0)"/>
      <use xlink:href="#DejaVuSans-20" transform="translate(605.029297 0)"/>
      <use xlink:href="#DejaVuSans-3d" transform="translate(636.816406 0)"/>
      <use xlink:href="#DejaVuSans-20" transform="translate(720.605469 0)"/>
      <use xlink:href="#DejaVuSans-67" transform="translate(752.392578 0)"/>
      <use xlink:href="#DejaVuSans-72" transform="translate(815.869141 0)"/>
      <use xlink:href="#DejaVuSans-65" transform="translate(854.732422 0)"/>
      <use xlink:href="#DejaVuSans-65" transform="translate(916.255859 0)"/>
      <use xlink:href="#DejaVuSans-6e" transform="translate(977.779297 0)"/>
      <use xlink:href="#DejaVuSans-20" transform="translate(1041.158203 0)"/>
      <use xlink:href="#DejaVuSans-75" transform="translate(1072.945312 0)"/>
      <use xlink:href="#DejaVuSans-6e" transform="translate(1136.324219 0)"/>
      <use xlink:href="#DejaVuSans-72" transform="translate(1199.703125 0)"/>
      <use xlink:href="#DejaVuSans-69" transform="translate(1240.816406 0)"/>
      <use xlink:href="#DejaVuSans-70" transform="translate(1268.599609 0)"/>
      <use xlink:href="#DejaVuSans-65" transform="translate(1332.076172 0)"/>
      <use xlink:href="#DejaVuSans-29" transform="translate(1393.599609 0)"/>
     </g>
    </g>
    <g id="patch_34">
     <path d="M 48.920313 75.035781 
L 62.920313 75.035781 
L 62.920313 70.135781 
L 48.920313 70.135781 
z
" style="fill: #a1887f; stroke: #a1887f; stroke-linejoin: miter"/>
    </g>
    <g id="text_39">
     <!-- Cluster (C/F = brown dry) -->
     <g transform="translate(68.520313 75.035781) scale(0.07 -0.07)">
      <defs>
       <path id="DejaVuSans-46" d="M 628 4666 
L 3309 4666 
L 3309 4134 
L 1259 4134 
L 1259 2759 
L 3109 2759 
L 3109 2228 
L 1259 2228 
L 1259 0 
L 628 0 
L 628 4666 
z
" transform="scale(0.015625)"/>
      </defs>
      <use xlink:href="#DejaVuSans-43"/>
      <use xlink:href="#DejaVuSans-6c" transform="translate(69.824219 0)"/>
      <use xlink:href="#DejaVuSans-75" transform="translate(97.607422 0)"/>
      <use xlink:href="#DejaVuSans-73" transform="translate(160.986328 0)"/>
      <use xlink:href="#DejaVuSans-74" transform="translate(213.085938 0)"/>
      <use xlink:href="#DejaVuSans-65" transform="translate(252.294922 0)"/>
      <use xlink:href="#DejaVuSans-72" transform="translate(313.818359 0)"/>
      <use xlink:href="#DejaVuSans-20" transform="translate(354.931641 0)"/>
      <use xlink:href="#DejaVuSans-28" transform="translate(386.71875 0)"/>
      <use xlink:href="#DejaVuSans-43" transform="translate(425.732422 0)"/>
      <use xlink:href="#DejaVuSans-2f" transform="translate(495.556641 0)"/>
      <use xlink:href="#DejaVuSans-46" transform="translate(529.248047 0)"/>
      <use xlink:href="#DejaVuSans-20" transform="translate(586.767578 0)"/>
      <use xlink:href="#DejaVuSans-3d" transform="translate(618.554688 0)"/>
      <use xlink:href="#DejaVuSans-20" transform="translate(702.34375 0)"/>
      <use xlink:href="#DejaVuSans-62" transform="translate(734.130859 0)"/>
      <use xlink:href="#DejaVuSans-72" transform="translate(797.607422 0)"/>
      <use xlink:href="#DejaVuSans-6f" transform="translate(836.470703 0)"/>
      <use xlink:href="#DejaVuSans-77" transform="translate(897.652344 0)"/>
      <use xlink:href="#DejaVuSans-6e" transform="translate(979.439453 0)"/>
      <use xlink:href="#DejaVuSans-20" transform="translate(1042.818359 0)"/>
      <use xlink:href="#DejaVuSans-64" transform="translate(1074.605469 0)"/>
      <use xlink:href="#DejaVuSans-72" transform="translate(1138.082031 0)"/>
      <use xlink:href="#DejaVuSans-79" transform="translate(1179.195312 0)"/>
      <use xlink:href="#DejaVuSans-29" transform="translate(1238.375 0)"/>
     </g>
    </g>
    <g id="patch_35">
     <path d="M 48.920313 85.310469 
L 62.920313 85.310469 
L 62.920313 80.410469 
L 48.920313 80.410469 
z
" style="fill: #fafafa; stroke: #fafafa; stroke-linejoin: miter"/>
    </g>
    <g id="text_40">
     <!-- Cluster (A/E = full mature) -->
     <g transform="translate(68.520313 85.310469) scale(0.07 -0.07)">
      <defs>
       <path id="DejaVuSans-45" d="M 628 4666 
L 3578 4666 
L 3578 4134 
L 1259 4134 
L 1259 2753 
L 3481 2753 
L 3481 2222 
L 1259 2222 
L 1259 531 
L 3634 531 
L 3634 0 
L 628 0 
L 628 4666 
z
" transform="scale(0.015625)"/>
      </defs>
      <use xlink:href="#DejaVuSans-43"/>
      <use xlink:href="#DejaVuSans-6c" transform="translate(69.824219 0)"/>
      <use xlink:href="#DejaVuSans-75" transform="translate(97.607422 0)"/>
      <use xlink:href="#DejaVuSans-73" transform="translate(160.986328 0)"/>
      <use xlink:href="#DejaVuSans-74" transform="translate(213.085938 0)"/>
      <use xlink:href="#DejaVuSans-65" transform="translate(252.294922 0)"/>
      <use xlink:href="#DejaVuSans-72" transform="translate(313.818359 0)"/>
      <use xlink:href="#DejaVuSans-20" transform="translate(354.931641 0)"/>
      <use xlink:href="#DejaVuSans-28" transform="translate(386.71875 0)"/>
      <use xlink:href="#DejaVuSans-41" transform="translate(425.732422 0)"/>
      <use xlink:href="#DejaVuSans-2f" transform="translate(494.140625 0)"/>
      <use xlink:href="#DejaVuSans-45" transform="translate(527.832031 0)"/>
      <use xlink:href="#DejaVuSans-20" transform="translate(591.015625 0)"/>
      <use xlink:href="#DejaVuSans-3d" transform="translate(622.802734 0)"/>
      <use xlink:href="#DejaVuSans-20" transform="translate(706.591797 0)"/>
      <use xlink:href="#DejaVuSans-66" transform="translate(738.378906 0)"/>
      <use xlink:href="#DejaVuSans-75" transform="translate(773.583984 0)"/>
      <use xlink:href="#DejaVuSans-6c" transform="translate(836.962891 0)"/>
      <use xlink:href="#DejaVuSans-6c" transform="translate(864.746094 0)"/>
      <use xlink:href="#DejaVuSans-20" transform="translate(892.529297 0)"/>
      <use xlink:href="#DejaVuSans-6d" transform="translate(924.316406 0)"/>
      <use xlink:href="#DejaVuSans-61" transform="translate(1021.728516 0)"/>
      <use xlink:href="#DejaVuSans-74" transform="translate(1083.007812 0)"/>
      <use xlink:href="#DejaVuSans-75" transform="translate(1122.216797 0)"/>
      <use xlink:href="#DejaVuSans-72" transform="translate(1185.595703 0)"/>
      <use xlink:href="#DejaVuSans-65" transform="translate(1224.458984 0)"/>
      <use xlink:href="#DejaVuSans-29" transform="translate(1285.982422 0)"/>
     </g>
    </g>
   </g>
  </g>
 </g>
 <defs>
  <clipPath id="pad23b1c31c">
   <rect x="42.620313" y="22.318125" width="611.436" height="291.16"/>
  </clipPath>
 </defs>
</svg>
