<?xml version="1.0" encoding="utf-8" standalone="no"?>
<!DOCTYPE svg PUBLIC "-//W3C//DTD SVG 1.1//EN"
  "http://www.w3.org/Graphics/SVG/1.1/DTD/svg11.dtd">
<svg xmlns:xlink="http://www.w3.org/1999/xlink" width="640.46125pt" height="350.441469pt" viewBox="0 0 640.46125 350.441469" xmlns="http://www.w3.org/2000/svg" version="1.1">
 <metadata>
  <rdf:RDF xmlns:dc="http://purl.org/dc/elements/1.1/" xmlns:cc="http://creativecommons.org/ns#" xmlns:rdf="http://www.w3.org/1999/02/22-rdf-syntax-ns#">
   <cc:Work>
    <dc:type rdf:resource="http://purl.org/dc/dcmitype/StillImage"/>
    <dc:date>2026-06-04T02:26:30.486072</dc:date>
    <dc:format>image/svg+xml</dc:format>
    <dc:creator>
     <cc:Agent>
      <dc:title>Matplotlib v3.10.9, https://matplotlib.org/</dc:title>
     </cc:Agent>
    </dc:creator>
   </cc:Work>
  </rdf:RDF>
 </metadata>
 <defs>
  <style type="text/css">*{stroke-linejoin: round; stroke-linecap: butt}</style>
 </defs>
 <g id="figure_1">
  <g id="patch_1">
   <path d="M 0 350.441469 
L 640.46125 350.441469 
L 640.46125 0 
L 0 0 
z
" style="fill: #ffffff"/>
  </g>
  <g id="axes_1">
   <g id="patch_2">
    <path d="M 43.78125 321.433625 
L 633.26125 321.433625 
L 633.26125 22.318125 
L 43.78125 22.318125 
z
" style="fill: #ffffff"/>
   </g>
   <g id="patch_3">
    <path d="M 70.575795 321.433625 
L 103.42375 321.433625 
L 103.42375 109.419868 
L 70.575795 109.419868 
z
" clip-path="url(#p12df17957f)" style="fill: #bdbdbd; stroke: #000000; stroke-width: 0.6; stroke-linejoin: miter"/>
   </g>
   <g id="patch_4">
    <path d="M 164.427093 321.433625 
L 197.275047 321.433625 
L 197.275047 83.177123 
L 164.427093 83.177123 
z
" clip-path="url(#p12df17957f)" style="fill: #bdbdbd; stroke: #000000; stroke-width: 0.6; stroke-linejoin: miter"/>
   </g>
   <g id="patch_5">
    <path d="M 258.278391 321.433625 
L 291.126345 321.433625 
L 291.126345 118.742949 
L 258.278391 118.742949 
z
" clip-path="url(#p12df17957f)" style="fill: #bdbdbd; stroke: #000000; stroke-width: 0.6; stroke-linejoin: miter"/>
   </g>
   <g id="patch_6">
    <path d="M 352.129688 321.433625 
L 384.977642 321.433625 
L 384.977642 147.402789 
L 352.129688 147.402789 
z
" clip-path="url(#p12df17957f)" style="fill: #bdbdbd; stroke: #000000; stroke-width: 0.6; stroke-linejoin: miter"/>
   </g>
   <g id="patch_7">
    <path d="M 445.980986 321.433625 
L 478.82894 321.433625 
L 478.82894 36.56172 
L 445.980986 36.56172 
z
" clip-path="url(#p12df17957f)" style="fill: #bdbdbd; stroke: #000000; stroke-width: 0.6; stroke-linejoin: miter"/>
   </g>
   <g id="patch_8">
    <path d="M 539.832283 321.433625 
L 572.680237 321.433625 
L 572.680237 133.936117 
L 539.832283 133.936117 
z
" clip-path="url(#p12df17957f)" style="fill: #bdbdbd; stroke: #000000; stroke-width: 0.6; stroke-linejoin: miter"/>
   </g>
   <g id="patch_9">
    <path d="M 104.362263 321.433625 
L 137.210217 321.433625 
L 137.210217 147.370331 
L 104.362263 147.370331 
z
" clip-path="url(#p12df17957f)" style="fill: #43a047; stroke: #000000; stroke-width: 0.6; stroke-linejoin: miter"/>
   </g>
   <g id="patch_10">
    <path d="M 198.21356 321.433625 
L 231.061514 321.433625 
L 231.061514 147.506378 
L 198.21356 147.506378 
z
" clip-path="url(#p12df17957f)" style="fill: #43a047; stroke: #000000; stroke-width: 0.6; stroke-linejoin: miter"/>
   </g>
   <g id="patch_11">
    <path d="M 292.064858 321.433625 
L 324.912812 321.433625 
L 324.912812 147.322334 
L 292.064858 147.322334 
z
" clip-path="url(#p12df17957f)" style="fill: #43a047; stroke: #000000; stroke-width: 0.6; stroke-linejoin: miter"/>
   </g>
   <g id="patch_12">
    <path d="M 385.916155 321.433625 
L 418.764109 321.433625 
L 418.764109 147.402789 
L 385.916155 147.402789 
z
" clip-path="url(#p12df17957f)" style="fill: #43a047; stroke: #000000; stroke-width: 0.6; stroke-linejoin: miter"/>
   </g>
   <g id="patch_13">
    <path d="M 479.767453 321.433625 
L 512.615407 321.433625 
L 512.615407 147.376891 
L 479.767453 147.376891 
z
" clip-path="url(#p12df17957f)" style="fill: #43a047; stroke: #000000; stroke-width: 0.6; stroke-linejoin: miter"/>
   </g>
   <g id="patch_14">
    <path d="M 573.61875 321.433625 
L 606.466705 321.433625 
L 606.466705 147.435937 
L 573.61875 147.435937 
z
" clip-path="url(#p12df17957f)" style="fill: #43a047; stroke: #000000; stroke-width: 0.6; stroke-linejoin: miter"/>
   </g>
   <g id="matplotlib.axis_1">
    <g id="xtick_1">
     <g id="line2d_1">
      <defs>
       <path id="m4dceb151f2" d="M 0 0 
L 0 3.5 
" style="stroke: #000000; stroke-width: 0.8"/>
      </defs>
      <g>
       <use xlink:href="#m4dceb151f2" x="103.893006" y="321.433625" style="stroke: #000000; stroke-width: 0.8"/>
      </g>
     </g>
     <g id="text_1">
      <!-- A -->
      <g transform="translate(101.498787 333.752531) scale(0.07 -0.07)">
       <defs>
        <path id="DejaVuSans-41" d="M 2188 4044 
L 1331 1722 
L 3047 1722 
L 2188 4044 
z
M 1831 4666 
L 2547 4666 
L 4325 0 
L 3669 0 
L 3244 1197 
L 1141 1197 
L 716 0 
L 50 0 
L 1831 4666 
z
" transform="scale(0.015625)"/>
       </defs>
       <use xlink:href="#DejaVuSans-41"/>
      </g>
      <!-- mature_white -->
      <g transform="translate(79.906522 341.591) scale(0.07 -0.07)">
       <defs>
        <path id="DejaVuSans-6d" d="M 3328 2828 
Q 3544 3216 3844 3400 
Q 4144 3584 4550 3584 
Q 5097 3584 5394 3201 
Q 5691 2819 5691 2113 
L 5691 0 
L 5113 0 
L 5113 2094 
Q 5113 2597 4934 2840 
Q 4756 3084 4391 3084 
Q 3944 3084 3684 2787 
Q 3425 2491 3425 1978 
L 3425 0 
L 2847 0 
L 2847 2094 
Q 2847 2600 2669 2842 
Q 2491 3084 2119 3084 
Q 1678 3084 1418 2786 
Q 1159 2488 1159 1978 
L 1159 0 
L 581 0 
L 581 3500 
L 1159 3500 
L 1159 2956 
Q 1356 3278 1631 3431 
Q 1906 3584 2284 3584 
Q 2666 3584 2933 3390 
Q 3200 3197 3328 2828 
z
" transform="scale(0.015625)"/>
        <path id="DejaVuSans-61" d="M 2194 1759 
Q 1497 1759 1228 1600 
Q 959 1441 959 1056 
Q 959 750 1161 570 
Q 1363 391 1709 391 
Q 2188 391 2477 730 
Q 2766 1069 2766 1631 
L 2766 1759 
L 2194 1759 
z
M 3341 1997 
L 3341 0 
L 2766 0 
L 2766 531 
Q 2569 213 2275 61 
Q 1981 -91 1556 -91 
Q 1019 -91 701 211 
Q 384 513 384 1019 
Q 384 1609 779 1909 
Q 1175 2209 1959 2209 
L 2766 2209 
L 2766 2266 
Q 2766 2663 2505 2880 
Q 2244 3097 1772 3097 
Q 1472 3097 1187 3025 
Q 903 2953 641 2809 
L 641 3341 
Q 956 3463 1253 3523 
Q 1550 3584 1831 3584 
Q 2591 3584 2966 3190 
Q 3341 2797 3341 1997 
z
" transform="scale(0.015625)"/>
        <path id="DejaVuSans-74" d="M 1172 4494 
L 1172 3500 
L 2356 3500 
L 2356 3053 
L 1172 3053 
L 1172 1153 
Q 1172 725 1289 603 
Q 1406 481 1766 481 
L 2356 481 
L 2356 0 
L 1766 0 
Q 1100 0 847 248 
Q 594 497 594 1153 
L 594 3053 
L 172 3053 
L 172 3500 
L 594 3500 
L 594 4494 
L 1172 4494 
z
" transform="scale(0.015625)"/>
        <path id="DejaVuSans-75" d="M 544 1381 
L 544 3500 
L 1119 3500 
L 1119 1403 
Q 1119 906 1312 657 
Q 1506 409 1894 409 
Q 2359 409 2629 706 
Q 2900 1003 2900 1516 
L 2900 3500 
L 3475 3500 
L 3475 0 
L 2900 0 
L 2900 538 
Q 2691 219 2414 64 
Q 2138 -91 1772 -91 
Q 1169 -91 856 284 
Q 544 659 544 1381 
z
M 1991 3584 
L 1991 3584 
z
" transform="scale(0.015625)"/>
        <path id="DejaVuSans-72" d="M 2631 2963 
Q 2534 3019 2420 3045 
Q 2306 3072 2169 3072 
Q 1681 3072 1420 2755 
Q 1159 2438 1159 1844 
L 1159 0 
L 581 0 
L 581 3500 
L 1159 3500 
L 1159 2956 
Q 1341 3275 1631 3429 
Q 1922 3584 2338 3584 
Q 2397 3584 2469 3576 
Q 2541 3569 2628 3553 
L 2631 2963 
z
" transform="scale(0.015625)"/>
        <path id="DejaVuSans-65" d="M 3597 1894 
L 3597 1613 
L 953 1613 
Q 991 1019 1311 708 
Q 1631 397 2203 397 
Q 2534 397 2845 478 
Q 3156 559 3463 722 
L 3463 178 
Q 3153 47 2828 -22 
Q 2503 -91 2169 -91 
Q 1331 -91 842 396 
Q 353 884 353 1716 
Q 353 2575 817 3079 
Q 1281 3584 2069 3584 
Q 2775 3584 3186 3129 
Q 3597 2675 3597 1894 
z
M 3022 2063 
Q 3016 2534 2758 2815 
Q 2500 3097 2075 3097 
Q 1594 3097 1305 2825 
Q 1016 2553 972 2059 
L 3022 2063 
z
" transform="scale(0.015625)"/>
        <path id="DejaVuSans-5f" d="M 3263 -1063 
L 3263 -1509 
L -63 -1509 
L -63 -1063 
L 3263 -1063 
z
" transform="scale(0.015625)"/>
        <path id="DejaVuSans-77" d="M 269 3500 
L 844 3500 
L 1563 769 
L 2278 3500 
L 2956 3500 
L 3675 769 
L 4391 3500 
L 4966 3500 
L 4050 0 
L 3372 0 
L 2619 2869 
L 1863 0 
L 1184 0 
L 269 3500 
z
" transform="scale(0.015625)"/>
        <path id="DejaVuSans-68" d="M 3513 2113 
L 3513 0 
L 2938 0 
L 2938 2094 
Q 2938 2591 2744 2837 
Q 2550 3084 2163 3084 
Q 1697 3084 1428 2787 
Q 1159 2491 1159 1978 
L 1159 0 
L 581 0 
L 581 4863 
L 1159 4863 
L 1159 2956 
Q 1366 3272 1645 3428 
Q 1925 3584 2291 3584 
Q 2894 3584 3203 3211 
Q 3513 2838 3513 2113 
z
" transform="scale(0.015625)"/>
        <path id="DejaVuSans-69" d="M 603 3500 
L 1178 3500 
L 1178 0 
L 603 0 
L 603 3500 
z
M 603 4863 
L 1178 4863 
L 1178 4134 
L 603 4134 
L 603 4863 
z
" transform="scale(0.015625)"/>
       </defs>
       <use xlink:href="#DejaVuSans-6d"/>
       <use xlink:href="#DejaVuSans-61" transform="translate(97.412109 0)"/>
       <use xlink:href="#DejaVuSans-74" transform="translate(158.691406 0)"/>
       <use xlink:href="#DejaVuSans-75" transform="translate(197.900391 0)"/>
       <use xlink:href="#DejaVuSans-72" transform="translate(261.279297 0)"/>
       <use xlink:href="#DejaVuSans-65" transform="translate(300.142578 0)"/>
       <use xlink:href="#DejaVuSans-5f" transform="translate(361.666016 0)"/>
       <use xlink:href="#DejaVuSans-77" transform="translate(411.666016 0)"/>
       <use xlink:href="#DejaVuSans-68" transform="translate(493.453125 0)"/>
       <use xlink:href="#DejaVuSans-69" transform="translate(556.832031 0)"/>
       <use xlink:href="#DejaVuSans-74" transform="translate(584.615234 0)"/>
       <use xlink:href="#DejaVuSans-65" transform="translate(623.824219 0)"/>
      </g>
     </g>
    </g>
    <g id="xtick_2">
     <g id="line2d_2">
      <g>
       <use xlink:href="#m4dceb151f2" x="197.744304" y="321.433625" style="stroke: #000000; stroke-width: 0.8"/>
      </g>
     </g>
     <g id="text_2">
      <!-- B -->
      <g transform="translate(195.342976 333.752531) scale(0.07 -0.07)">
       <defs>
        <path id="DejaVuSans-42" d="M 1259 2228 
L 1259 519 
L 2272 519 
Q 2781 519 3026 730 
Q 3272 941 3272 1375 
Q 3272 1813 3026 2020 
Q 2781 2228 2272 2228 
L 1259 2228 
z
M 1259 4147 
L 1259 2741 
L 2194 2741 
Q 2656 2741 2882 2914 
Q 3109 3088 3109 3444 
Q 3109 3797 2882 3972 
Q 2656 4147 2194 4147 
L 1259 4147 
z
M 628 4666 
L 2241 4666 
Q 2963 4666 3353 4366 
Q 3744 4066 3744 3513 
Q 3744 3084 3544 2831 
Q 3344 2578 2956 2516 
Q 3422 2416 3680 2098 
Q 3938 1781 3938 1306 
Q 3938 681 3513 340 
Q 3088 0 2303 0 
L 628 0 
L 628 4666 
z
" transform="scale(0.015625)"/>
       </defs>
       <use xlink:href="#DejaVuSans-42"/>
      </g>
      <!-- mixed_green -->
      <g transform="translate(175.167663 341.591) scale(0.07 -0.07)">
       <defs>
        <path id="DejaVuSans-78" d="M 3513 3500 
L 2247 1797 
L 3578 0 
L 2900 0 
L 1881 1375 
L 863 0 
L 184 0 
L 1544 1831 
L 300 3500 
L 978 3500 
L 1906 2253 
L 2834 3500 
L 3513 3500 
z
" transform="scale(0.015625)"/>
        <path id="DejaVuSans-64" d="M 2906 2969 
L 2906 4863 
L 3481 4863 
L 3481 0 
L 2906 0 
L 2906 525 
Q 2725 213 2448 61 
Q 2172 -91 1784 -91 
Q 1150 -91 751 415 
Q 353 922 353 1747 
Q 353 2572 751 3078 
Q 1150 3584 1784 3584 
Q 2172 3584 2448 3432 
Q 2725 3281 2906 2969 
z
M 947 1747 
Q 947 1113 1208 752 
Q 1469 391 1925 391 
Q 2381 391 2643 752 
Q 2906 1113 2906 1747 
Q 2906 2381 2643 2742 
Q 2381 3103 1925 3103 
Q 1469 3103 1208 2742 
Q 947 2381 947 1747 
z
" transform="scale(0.015625)"/>
        <path id="DejaVuSans-67" d="M 2906 1791 
Q 2906 2416 2648 2759 
Q 2391 3103 1925 3103 
Q 1463 3103 1205 2759 
Q 947 2416 947 1791 
Q 947 1169 1205 825 
Q 1463 481 1925 481 
Q 2391 481 2648 825 
Q 2906 1169 2906 1791 
z
M 3481 434 
Q 3481 -459 3084 -895 
Q 2688 -1331 1869 -1331 
Q 1566 -1331 1297 -1286 
Q 1028 -1241 775 -1147 
L 775 -588 
Q 1028 -725 1275 -790 
Q 1522 -856 1778 -856 
Q 2344 -856 2625 -561 
Q 2906 -266 2906 331 
L 2906 616 
Q 2728 306 2450 153 
Q 2172 0 1784 0 
Q 1141 0 747 490 
Q 353 981 353 1791 
Q 353 2603 747 3093 
Q 1141 3584 1784 3584 
Q 2172 3584 2450 3431 
Q 2728 3278 2906 2969 
L 2906 3500 
L 3481 3500 
L 3481 434 
z
" transform="scale(0.015625)"/>
        <path id="DejaVuSans-6e" d="M 3513 2113 
L 3513 0 
L 2938 0 
L 2938 2094 
Q 2938 2591 2744 2837 
Q 2550 3084 2163 3084 
Q 1697 3084 1428 2787 
Q 1159 2491 1159 1978 
L 1159 0 
L 581 0 
L 581 3500 
L 1159 3500 
L 1159 2956 
Q 1366 3272 1645 3428 
Q 1925 3584 2291 3584 
Q 2894 3584 3203 3211 
Q 3513 2838 3513 2113 
z
" transform="scale(0.015625)"/>
       </defs>
       <use xlink:href="#DejaVuSans-6d"/>
       <use xlink:href="#DejaVuSans-69" transform="translate(97.412109 0)"/>
       <use xlink:href="#DejaVuSans-78" transform="translate(125.195312 0)"/>
       <use xlink:href="#DejaVuSans-65" transform="translate(181.25 0)"/>
       <use xlink:href="#DejaVuSans-64" transform="translate(242.773438 0)"/>
       <use xlink:href="#DejaVuSans-5f" transform="translate(306.25 0)"/>
       <use xlink:href="#DejaVuSans-67" transform="translate(356.25 0)"/>
       <use xlink:href="#DejaVuSans-72" transform="translate(419.726562 0)"/>
       <use xlink:href="#DejaVuSans-65" transform="translate(458.589844 0)"/>
       <use xlink:href="#DejaVuSans-65" transform="translate(520.113281 0)"/>
       <use xlink:href="#DejaVuSans-6e" transform="translate(581.636719 0)"/>
      </g>
     </g>
    </g>
    <g id="xtick_3">
     <g id="line2d_3">
      <g>
       <use xlink:href="#m4dceb151f2" x="291.595601" y="321.433625" style="stroke: #000000; stroke-width: 0.8"/>
      </g>
     </g>
     <g id="text_3">
      <!-- C -->
      <g transform="translate(289.151617 333.752531) scale(0.07 -0.07)">
       <defs>
        <path id="DejaVuSans-43" d="M 4122 4306 
L 4122 3641 
Q 3803 3938 3442 4084 
Q 3081 4231 2675 4231 
Q 1875 4231 1450 3742 
Q 1025 3253 1025 2328 
Q 1025 1406 1450 917 
Q 1875 428 2675 428 
Q 3081 428 3442 575 
Q 3803 722 4122 1019 
L 4122 359 
Q 3791 134 3420 21 
Q 3050 -91 2638 -91 
Q 1578 -91 968 557 
Q 359 1206 359 2328 
Q 359 3453 968 4101 
Q 1578 4750 2638 4750 
Q 3056 4750 3426 4639 
Q 3797 4528 4122 4306 
z
" transform="scale(0.015625)"/>
       </defs>
       <use xlink:href="#DejaVuSans-43"/>
      </g>
      <!-- mixed_brown -->
      <g transform="translate(268.322242 341.591) scale(0.07 -0.07)">
       <defs>
        <path id="DejaVuSans-62" d="M 3116 1747 
Q 3116 2381 2855 2742 
Q 2594 3103 2138 3103 
Q 1681 3103 1420 2742 
Q 1159 2381 1159 1747 
Q 1159 1113 1420 752 
Q 1681 391 2138 391 
Q 2594 391 2855 752 
Q 3116 1113 3116 1747 
z
M 1159 2969 
Q 1341 3281 1617 3432 
Q 1894 3584 2278 3584 
Q 2916 3584 3314 3078 
Q 3713 2572 3713 1747 
Q 3713 922 3314 415 
Q 2916 -91 2278 -91 
Q 1894 -91 1617 61 
Q 1341 213 1159 525 
L 1159 0 
L 581 0 
L 581 4863 
L 1159 4863 
L 1159 2969 
z
" transform="scale(0.015625)"/>
        <path id="DejaVuSans-6f" d="M 1959 3097 
Q 1497 3097 1228 2736 
Q 959 2375 959 1747 
Q 959 1119 1226 758 
Q 1494 397 1959 397 
Q 2419 397 2687 759 
Q 2956 1122 2956 1747 
Q 2956 2369 2687 2733 
Q 2419 3097 1959 3097 
z
M 1959 3584 
Q 2709 3584 3137 3096 
Q 3566 2609 3566 1747 
Q 3566 888 3137 398 
Q 2709 -91 1959 -91 
Q 1206 -91 779 398 
Q 353 888 353 1747 
Q 353 2609 779 3096 
Q 1206 3584 1959 3584 
z
" transform="scale(0.015625)"/>
       </defs>
       <use xlink:href="#DejaVuSans-6d"/>
       <use xlink:href="#DejaVuSans-69" transform="translate(97.412109 0)"/>
       <use xlink:href="#DejaVuSans-78" transform="translate(125.195312 0)"/>
       <use xlink:href="#DejaVuSans-65" transform="translate(181.25 0)"/>
       <use xlink:href="#DejaVuSans-64" transform="translate(242.773438 0)"/>
       <use xlink:href="#DejaVuSans-5f" transform="translate(306.25 0)"/>
       <use xlink:href="#DejaVuSans-62" transform="translate(356.25 0)"/>
       <use xlink:href="#DejaVuSans-72" transform="translate(419.726562 0)"/>
       <use xlink:href="#DejaVuSans-6f" transform="translate(458.589844 0)"/>
       <use xlink:href="#DejaVuSans-77" transform="translate(519.771484 0)"/>
       <use xlink:href="#DejaVuSans-6e" transform="translate(601.558594 0)"/>
      </g>
     </g>
    </g>
    <g id="xtick_4">
     <g id="line2d_4">
      <g>
       <use xlink:href="#m4dceb151f2" x="385.446899" y="321.433625" style="stroke: #000000; stroke-width: 0.8"/>
      </g>
     </g>
     <g id="text_4">
      <!-- D -->
      <g transform="translate(382.751899 333.752531) scale(0.07 -0.07)">
       <defs>
        <path id="DejaVuSans-44" d="M 1259 4147 
L 1259 519 
L 2022 519 
Q 2988 519 3436 956 
Q 3884 1394 3884 2338 
Q 3884 3275 3436 3711 
Q 2988 4147 2022 4147 
L 1259 4147 
z
M 628 4666 
L 1925 4666 
Q 3281 4666 3915 4102 
Q 4550 3538 4550 2338 
Q 4550 1131 3912 565 
Q 3275 0 1925 0 
L 628 0 
L 628 4666 
z
" transform="scale(0.015625)"/>
       </defs>
       <use xlink:href="#DejaVuSans-44"/>
      </g>
      <!-- sparse_green -->
      <g transform="translate(361.983774 341.591) scale(0.07 -0.07)">
       <defs>
        <path id="DejaVuSans-73" d="M 2834 3397 
L 2834 2853 
Q 2591 2978 2328 3040 
Q 2066 3103 1784 3103 
Q 1356 3103 1142 2972 
Q 928 2841 928 2578 
Q 928 2378 1081 2264 
Q 1234 2150 1697 2047 
L 1894 2003 
Q 2506 1872 2764 1633 
Q 3022 1394 3022 966 
Q 3022 478 2636 193 
Q 2250 -91 1575 -91 
Q 1294 -91 989 -36 
Q 684 19 347 128 
L 347 722 
Q 666 556 975 473 
Q 1284 391 1588 391 
Q 1994 391 2212 530 
Q 2431 669 2431 922 
Q 2431 1156 2273 1281 
Q 2116 1406 1581 1522 
L 1381 1569 
Q 847 1681 609 1914 
Q 372 2147 372 2553 
Q 372 3047 722 3315 
Q 1072 3584 1716 3584 
Q 2034 3584 2315 3537 
Q 2597 3491 2834 3397 
z
" transform="scale(0.015625)"/>
        <path id="DejaVuSans-70" d="M 1159 525 
L 1159 -1331 
L 581 -1331 
L 581 3500 
L 1159 3500 
L 1159 2969 
Q 1341 3281 1617 3432 
Q 1894 3584 2278 3584 
Q 2916 3584 3314 3078 
Q 3713 2572 3713 1747 
Q 3713 922 3314 415 
Q 2916 -91 2278 -91 
Q 1894 -91 1617 61 
Q 1341 213 1159 525 
z
M 3116 1747 
Q 3116 2381 2855 2742 
Q 2594 3103 2138 3103 
Q 1681 3103 1420 2742 
Q 1159 2381 1159 1747 
Q 1159 1113 1420 752 
Q 1681 391 2138 391 
Q 2594 391 2855 752 
Q 3116 1113 3116 1747 
z
" transform="scale(0.015625)"/>
       </defs>
       <use xlink:href="#DejaVuSans-73"/>
       <use xlink:href="#DejaVuSans-70" transform="translate(52.099609 0)"/>
       <use xlink:href="#DejaVuSans-61" transform="translate(115.576172 0)"/>
       <use xlink:href="#DejaVuSans-72" transform="translate(176.855469 0)"/>
       <use xlink:href="#DejaVuSans-73" transform="translate(217.96875 0)"/>
       <use xlink:href="#DejaVuSans-65" transform="translate(270.068359 0)"/>
       <use xlink:href="#DejaVuSans-5f" transform="translate(331.591797 0)"/>
       <use xlink:href="#DejaVuSans-67" transform="translate(381.591797 0)"/>
       <use xlink:href="#DejaVuSans-72" transform="translate(445.068359 0)"/>
       <use xlink:href="#DejaVuSans-65" transform="translate(483.931641 0)"/>
       <use xlink:href="#DejaVuSans-65" transform="translate(545.455078 0)"/>
       <use xlink:href="#DejaVuSans-6e" transform="translate(606.978516 0)"/>
      </g>
     </g>
    </g>
    <g id="xtick_5">
     <g id="line2d_5">
      <g>
       <use xlink:href="#m4dceb151f2" x="479.298196" y="321.433625" style="stroke: #000000; stroke-width: 0.8"/>
      </g>
     </g>
     <g id="text_5">
      <!-- E -->
      <g transform="translate(477.086634 333.752531) scale(0.07 -0.07)">
       <defs>
        <path id="DejaVuSans-45" d="M 628 4666 
L 3578 4666 
L 3578 4134 
L 1259 4134 
L 1259 2753 
L 3481 2753 
L 3481 2222 
L 1259 2222 
L 1259 531 
L 3634 531 
L 3634 0 
L 628 0 
L 628 4666 
z
" transform="scale(0.015625)"/>
       </defs>
       <use xlink:href="#DejaVuSans-45"/>
      </g>
      <!-- tall_mature -->
      <g transform="translate(459.428587 341.591) scale(0.07 -0.07)">
       <defs>
        <path id="DejaVuSans-6c" d="M 603 4863 
L 1178 4863 
L 1178 0 
L 603 0 
L 603 4863 
z
" transform="scale(0.015625)"/>
       </defs>
       <use xlink:href="#DejaVuSans-74"/>
       <use xlink:href="#DejaVuSans-61" transform="translate(39.208984 0)"/>
       <use xlink:href="#DejaVuSans-6c" transform="translate(100.488281 0)"/>
       <use xlink:href="#DejaVuSans-6c" transform="translate(128.271484 0)"/>
       <use xlink:href="#DejaVuSans-5f" transform="translate(156.054688 0)"/>
       <use xlink:href="#DejaVuSans-6d" transform="translate(206.054688 0)"/>
       <use xlink:href="#DejaVuSans-61" transform="translate(303.466797 0)"/>
       <use xlink:href="#DejaVuSans-74" transform="translate(364.746094 0)"/>
       <use xlink:href="#DejaVuSans-75" transform="translate(403.955078 0)"/>
       <use xlink:href="#DejaVuSans-72" transform="translate(467.333984 0)"/>
       <use xlink:href="#DejaVuSans-65" transform="translate(506.197266 0)"/>
      </g>
     </g>
    </g>
    <g id="xtick_6">
     <g id="line2d_6">
      <g>
       <use xlink:href="#m4dceb151f2" x="573.149494" y="321.433625" style="stroke: #000000; stroke-width: 0.8"/>
      </g>
     </g>
     <g id="text_6">
      <!-- F -->
      <g transform="translate(571.136447 333.752531) scale(0.07 -0.07)">
       <defs>
        <path id="DejaVuSans-46" d="M 628 4666 
L 3309 4666 
L 3309 4134 
L 1259 4134 
L 1259 2759 
L 3109 2759 
L 3109 2228 
L 1259 2228 
L 1259 0 
L 628 0 
L 628 4666 
z
" transform="scale(0.015625)"/>
       </defs>
       <use xlink:href="#DejaVuSans-46"/>
      </g>
      <!-- dry_brown -->
      <g transform="translate(554.863088 341.591) scale(0.07 -0.07)">
       <defs>
        <path id="DejaVuSans-79" d="M 2059 -325 
Q 1816 -950 1584 -1140 
Q 1353 -1331 966 -1331 
L 506 -1331 
L 506 -850 
L 844 -850 
Q 1081 -850 1212 -737 
Q 1344 -625 1503 -206 
L 1606 56 
L 191 3500 
L 800 3500 
L 1894 763 
L 2988 3500 
L 3597 3500 
L 2059 -325 
z
" transform="scale(0.015625)"/>
       </defs>
       <use xlink:href="#DejaVuSans-64"/>
       <use xlink:href="#DejaVuSans-72" transform="translate(63.476562 0)"/>
       <use xlink:href="#DejaVuSans-79" transform="translate(104.589844 0)"/>
       <use xlink:href="#DejaVuSans-5f" transform="translate(163.769531 0)"/>
       <use xlink:href="#DejaVuSans-62" transform="translate(213.769531 0)"/>
       <use xlink:href="#DejaVuSans-72" transform="translate(277.246094 0)"/>
       <use xlink:href="#DejaVuSans-6f" transform="translate(316.109375 0)"/>
       <use xlink:href="#DejaVuSans-77" transform="translate(377.291016 0)"/>
       <use xlink:href="#DejaVuSans-6e" transform="translate(459.078125 0)"/>
      </g>
     </g>
    </g>
   </g>
   <g id="matplotlib.axis_2">
    <g id="ytick_1">
     <g id="line2d_7">
      <path d="M 43.78125 321.433625 
L 633.26125 321.433625 
" clip-path="url(#p12df17957f)" style="fill: none; stroke: #b0b0b0; stroke-opacity: 0.5; stroke-width: 0.3; stroke-linecap: square"/>
     </g>
     <g id="line2d_8">
      <defs>
       <path id="md49f1c2f01" d="M 0 0 
L -3.5 0 
" style="stroke: #000000; stroke-width: 0.8"/>
      </defs>
      <g>
       <use xlink:href="#md49f1c2f01" x="43.78125" y="321.433625" style="stroke: #000000; stroke-width: 0.8"/>
      </g>
     </g>
     <g id="text_7">
      <!-- 0.0 -->
      <g transform="translate(20.878125 325.232844) scale(0.1 -0.1)">
       <defs>
        <path id="DejaVuSans-30" d="M 2034 4250 
Q 1547 4250 1301 3770 
Q 1056 3291 1056 2328 
Q 1056 1369 1301 889 
Q 1547 409 2034 409 
Q 2525 409 2770 889 
Q 3016 1369 3016 2328 
Q 3016 3291 2770 3770 
Q 2525 4250 2034 4250 
z
M 2034 4750 
Q 2819 4750 3233 4129 
Q 3647 3509 3647 2328 
Q 3647 1150 3233 529 
Q 2819 -91 2034 -91 
Q 1250 -91 836 529 
Q 422 1150 422 2328 
Q 422 3509 836 4129 
Q 1250 4750 2034 4750 
z
" transform="scale(0.015625)"/>
        <path id="DejaVuSans-2e" d="M 684 794 
L 1344 794 
L 1344 0 
L 684 0 
L 684 794 
z
" transform="scale(0.015625)"/>
       </defs>
       <use xlink:href="#DejaVuSans-30"/>
       <use xlink:href="#DejaVuSans-2e" transform="translate(63.623047 0)"/>
       <use xlink:href="#DejaVuSans-30" transform="translate(95.410156 0)"/>
      </g>
     </g>
    </g>
    <g id="ytick_2">
     <g id="line2d_9">
      <path d="M 43.78125 263.883745 
L 633.26125 263.883745 
" clip-path="url(#p12df17957f)" style="fill: none; stroke: #b0b0b0; stroke-opacity: 0.5; stroke-width: 0.3; stroke-linecap: square"/>
     </g>
     <g id="line2d_10">
      <g>
       <use xlink:href="#md49f1c2f01" x="43.78125" y="263.883745" style="stroke: #000000; stroke-width: 0.8"/>
      </g>
     </g>
     <g id="text_8">
      <!-- 0.5 -->
      <g transform="translate(20.878125 267.682964) scale(0.1 -0.1)">
       <defs>
        <path id="DejaVuSans-35" d="M 691 4666 
L 3169 4666 
L 3169 4134 
L 1269 4134 
L 1269 2991 
Q 1406 3038 1543 3061 
Q 1681 3084 1819 3084 
Q 2600 3084 3056 2656 
Q 3513 2228 3513 1497 
Q 3513 744 3044 326 
Q 2575 -91 1722 -91 
Q 1428 -91 1123 -41 
Q 819 9 494 109 
L 494 744 
Q 775 591 1075 516 
Q 1375 441 1709 441 
Q 2250 441 2565 725 
Q 2881 1009 2881 1497 
Q 2881 1984 2565 2268 
Q 2250 2553 1709 2553 
Q 1456 2553 1204 2497 
Q 953 2441 691 2322 
L 691 4666 
z
" transform="scale(0.015625)"/>
       </defs>
       <use xlink:href="#DejaVuSans-30"/>
       <use xlink:href="#DejaVuSans-2e" transform="translate(63.623047 0)"/>
       <use xlink:href="#DejaVuSans-35" transform="translate(95.410156 0)"/>
      </g>
     </g>
    </g>
    <g id="ytick_3">
     <g id="line2d_11">
      <path d="M 43.78125 206.333866 
L 633.26125 206.333866 
" clip-path="url(#p12df17957f)" style="fill: none; stroke: #b0b0b0; stroke-opacity: 0.5; stroke-width: 0.3; stroke-linecap: square"/>
     </g>
     <g id="line2d_12">
      <g>
       <use xlink:href="#md49f1c2f01" x="43.78125" y="206.333866" style="stroke: #000000; stroke-width: 0.8"/>
      </g>
     </g>
     <g id="text_9">
      <!-- 1.0 -->
      <g transform="translate(20.878125 210.133084) scale(0.1 -0.1)">
       <defs>
        <path id="DejaVuSans-31" d="M 794 531 
L 1825 531 
L 1825 4091 
L 703 3866 
L 703 4441 
L 1819 4666 
L 2450 4666 
L 2450 531 
L 3481 531 
L 3481 0 
L 794 0 
L 794 531 
z
" transform="scale(0.015625)"/>
       </defs>
       <use xlink:href="#DejaVuSans-31"/>
       <use xlink:href="#DejaVuSans-2e" transform="translate(63.623047 0)"/>
       <use xlink:href="#DejaVuSans-30" transform="translate(95.410156 0)"/>
      </g>
     </g>
    </g>
    <g id="ytick_4">
     <g id="line2d_13">
      <path d="M 43.78125 148.783986 
L 633.26125 148.783986 
" clip-path="url(#p12df17957f)" style="fill: none; stroke: #b0b0b0; stroke-opacity: 0.5; stroke-width: 0.3; stroke-linecap: square"/>
     </g>
     <g id="line2d_14">
      <g>
       <use xlink:href="#md49f1c2f01" x="43.78125" y="148.783986" style="stroke: #000000; stroke-width: 0.8"/>
      </g>
     </g>
     <g id="text_10">
      <!-- 1.5 -->
      <g transform="translate(20.878125 152.583205) scale(0.1 -0.1)">
       <use xlink:href="#DejaVuSans-31"/>
       <use xlink:href="#DejaVuSans-2e" transform="translate(63.623047 0)"/>
       <use xlink:href="#DejaVuSans-35" transform="translate(95.410156 0)"/>
      </g>
     </g>
    </g>
    <g id="ytick_5">
     <g id="line2d_15">
      <path d="M 43.78125 91.234106 
L 633.26125 91.234106 
" clip-path="url(#p12df17957f)" style="fill: none; stroke: #b0b0b0; stroke-opacity: 0.5; stroke-width: 0.3; stroke-linecap: square"/>
     </g>
     <g id="line2d_16">
      <g>
       <use xlink:href="#md49f1c2f01" x="43.78125" y="91.234106" style="stroke: #000000; stroke-width: 0.8"/>
      </g>
     </g>
     <g id="text_11">
      <!-- 2.0 -->
      <g transform="translate(20.878125 95.033325) scale(0.1 -0.1)">
       <defs>
        <path id="DejaVuSans-32" d="M 1228 531 
L 3431 531 
L 3431 0 
L 469 0 
L 469 531 
Q 828 903 1448 1529 
Q 2069 2156 2228 2338 
Q 2531 2678 2651 2914 
Q 2772 3150 2772 3378 
Q 2772 3750 2511 3984 
Q 2250 4219 1831 4219 
Q 1534 4219 1204 4116 
Q 875 4013 500 3803 
L 500 4441 
Q 881 4594 1212 4672 
Q 1544 4750 1819 4750 
Q 2544 4750 2975 4387 
Q 3406 4025 3406 3419 
Q 3406 3131 3298 2873 
Q 3191 2616 2906 2266 
Q 2828 2175 2409 1742 
Q 1991 1309 1228 531 
z
" transform="scale(0.015625)"/>
       </defs>
       <use xlink:href="#DejaVuSans-32"/>
       <use xlink:href="#DejaVuSans-2e" transform="translate(63.623047 0)"/>
       <use xlink:href="#DejaVuSans-30" transform="translate(95.410156 0)"/>
      </g>
     </g>
    </g>
    <g id="ytick_6">
     <g id="line2d_17">
      <path d="M 43.78125 33.684226 
L 633.26125 33.684226 
" clip-path="url(#p12df17957f)" style="fill: none; stroke: #b0b0b0; stroke-opacity: 0.5; stroke-width: 0.3; stroke-linecap: square"/>
     </g>
     <g id="line2d_18">
      <g>
       <use xlink:href="#md49f1c2f01" x="43.78125" y="33.684226" style="stroke: #000000; stroke-width: 0.8"/>
      </g>
     </g>
     <g id="text_12">
      <!-- 2.5 -->
      <g transform="translate(20.878125 37.483445) scale(0.1 -0.1)">
       <use xlink:href="#DejaVuSans-32"/>
       <use xlink:href="#DejaVuSans-2e" transform="translate(63.623047 0)"/>
       <use xlink:href="#DejaVuSans-35" transform="translate(95.410156 0)"/>
      </g>
     </g>
    </g>
    <g id="text_13">
     <!-- Max boll Z (m, world) -->
     <g transform="translate(14.798438 225.134469) rotate(-90) scale(0.1 -0.1)">
      <defs>
       <path id="DejaVuSans-4d" d="M 628 4666 
L 1569 4666 
L 2759 1491 
L 3956 4666 
L 4897 4666 
L 4897 0 
L 4281 0 
L 4281 4097 
L 3078 897 
L 2444 897 
L 1241 4097 
L 1241 0 
L 628 0 
L 628 4666 
z
" transform="scale(0.015625)"/>
       <path id="DejaVuSans-20" transform="scale(0.015625)"/>
       <path id="DejaVuSans-5a" d="M 359 4666 
L 4025 4666 
L 4025 4184 
L 1075 531 
L 4097 531 
L 4097 0 
L 288 0 
L 288 481 
L 3238 4134 
L 359 4134 
L 359 4666 
z
" transform="scale(0.015625)"/>
       <path id="DejaVuSans-28" d="M 1984 4856 
Q 1566 4138 1362 3434 
Q 1159 2731 1159 2009 
Q 1159 1288 1364 580 
Q 1569 -128 1984 -844 
L 1484 -844 
Q 1016 -109 783 600 
Q 550 1309 550 2009 
Q 550 2706 781 3412 
Q 1013 4119 1484 4856 
L 1984 4856 
z
" transform="scale(0.015625)"/>
       <path id="DejaVuSans-2c" d="M 750 794 
L 1409 794 
L 1409 256 
L 897 -744 
L 494 -744 
L 750 256 
L 750 794 
z
" transform="scale(0.015625)"/>
       <path id="DejaVuSans-29" d="M 513 4856 
L 1013 4856 
Q 1481 4119 1714 3412 
Q 1947 2706 1947 2009 
Q 1947 1309 1714 600 
Q 1481 -109 1013 -844 
L 513 -844 
Q 928 -128 1133 580 
Q 1338 1288 1338 2009 
Q 1338 2731 1133 3434 
Q 928 4138 513 4856 
z
" transform="scale(0.015625)"/>
      </defs>
      <use xlink:href="#DejaVuSans-4d"/>
      <use xlink:href="#DejaVuSans-61" transform="translate(86.279297 0)"/>
      <use xlink:href="#DejaVuSans-78" transform="translate(147.558594 0)"/>
      <use xlink:href="#DejaVuSans-20" transform="translate(206.738281 0)"/>
      <use xlink:href="#DejaVuSans-62" transform="translate(238.525391 0)"/>
      <use xlink:href="#DejaVuSans-6f" transform="translate(302.001953 0)"/>
      <use xlink:href="#DejaVuSans-6c" transform="translate(363.183594 0)"/>
      <use xlink:href="#DejaVuSans-6c" transform="translate(390.966797 0)"/>
      <use xlink:href="#DejaVuSans-20" transform="translate(418.75 0)"/>
      <use xlink:href="#DejaVuSans-5a" transform="translate(450.537109 0)"/>
      <use xlink:href="#DejaVuSans-20" transform="translate(519.042969 0)"/>
      <use xlink:href="#DejaVuSans-28" transform="translate(550.830078 0)"/>
      <use xlink:href="#DejaVuSans-6d" transform="translate(589.84375 0)"/>
      <use xlink:href="#DejaVuSans-2c" transform="translate(687.255859 0)"/>
      <use xlink:href="#DejaVuSans-20" transform="translate(719.042969 0)"/>
      <use xlink:href="#DejaVuSans-77" transform="translate(750.830078 0)"/>
      <use xlink:href="#DejaVuSans-6f" transform="translate(832.617188 0)"/>
      <use xlink:href="#DejaVuSans-72" transform="translate(893.798828 0)"/>
      <use xlink:href="#DejaVuSans-6c" transform="translate(934.912109 0)"/>
      <use xlink:href="#DejaVuSans-64" transform="translate(962.695312 0)"/>
      <use xlink:href="#DejaVuSans-29" transform="translate(1026.171875 0)"/>
     </g>
    </g>
   </g>
   <g id="line2d_19">
    <path d="M 43.78125 168.350945 
L 633.26125 168.350945 
" clip-path="url(#p12df17957f)" style="fill: none; stroke-dasharray: 3.7,1.6; stroke-dashoffset: 0; stroke: #e57373"/>
   </g>
   <g id="line2d_20">
    <path d="M 43.78125 147.632988 
L 633.26125 147.632988 
" clip-path="url(#p12df17957f)" style="fill: none; stroke-dasharray: 0.6,0.99; stroke-dashoffset: 0; stroke: #2e7d32; stroke-width: 0.6"/>
   </g>
   <g id="patch_15">
    <path d="M 43.78125 321.433625 
L 43.78125 22.318125 
" style="fill: none; stroke: #000000; stroke-width: 0.8; stroke-linejoin: miter; stroke-linecap: square"/>
   </g>
   <g id="patch_16">
    <path d="M 633.26125 321.433625 
L 633.26125 22.318125 
" style="fill: none; stroke: #000000; stroke-width: 0.8; stroke-linejoin: miter; stroke-linecap: square"/>
   </g>
   <g id="patch_17">
    <path d="M 43.78125 321.433625 
L 633.26125 321.433625 
" style="fill: none; stroke: #000000; stroke-width: 0.8; stroke-linejoin: miter; stroke-linecap: square"/>
   </g>
   <g id="patch_18">
    <path d="M 43.78125 22.318125 
L 633.26125 22.318125 
" style="fill: none; stroke: #000000; stroke-width: 0.8; stroke-linejoin: miter; stroke-linecap: square"/>
   </g>
   <g id="text_14">
    <!-- Cluster heights: raw vs normalized (M1013 reach budget) -->
    <g transform="translate(165.334062 16.318125) scale(0.12 -0.12)">
     <defs>
      <path id="DejaVuSans-3a" d="M 750 794 
L 1409 794 
L 1409 0 
L 750 0 
L 750 794 
z
M 750 3309 
L 1409 3309 
L 1409 2516 
L 750 2516 
L 750 3309 
z
" transform="scale(0.015625)"/>
      <path id="DejaVuSans-76" d="M 191 3500 
L 800 3500 
L 1894 563 
L 2988 3500 
L 3597 3500 
L 2284 0 
L 1503 0 
L 191 3500 
z
" transform="scale(0.015625)"/>
      <path id="DejaVuSans-7a" d="M 353 3500 
L 3084 3500 
L 3084 2975 
L 922 459 
L 3084 459 
L 3084 0 
L 275 0 
L 275 525 
L 2438 3041 
L 353 3041 
L 353 3500 
z
" transform="scale(0.015625)"/>
      <path id="DejaVuSans-33" d="M 2597 2516 
Q 3050 2419 3304 2112 
Q 3559 1806 3559 1356 
Q 3559 666 3084 287 
Q 2609 -91 1734 -91 
Q 1441 -91 1130 -33 
Q 819 25 488 141 
L 488 750 
Q 750 597 1062 519 
Q 1375 441 1716 441 
Q 2309 441 2620 675 
Q 2931 909 2931 1356 
Q 2931 1769 2642 2001 
Q 2353 2234 1838 2234 
L 1294 2234 
L 1294 2753 
L 1863 2753 
Q 2328 2753 2575 2939 
Q 2822 3125 2822 3475 
Q 2822 3834 2567 4026 
Q 2313 4219 1838 4219 
Q 1578 4219 1281 4162 
Q 984 4106 628 3988 
L 628 4550 
Q 988 4650 1302 4700 
Q 1616 4750 1894 4750 
Q 2613 4750 3031 4423 
Q 3450 4097 3450 3541 
Q 3450 3153 3228 2886 
Q 3006 2619 2597 2516 
z
" transform="scale(0.015625)"/>
      <path id="DejaVuSans-63" d="M 3122 3366 
L 3122 2828 
Q 2878 2963 2633 3030 
Q 2388 3097 2138 3097 
Q 1578 3097 1268 2742 
Q 959 2388 959 1747 
Q 959 1106 1268 751 
Q 1578 397 2138 397 
Q 2388 397 2633 464 
Q 2878 531 3122 666 
L 3122 134 
Q 2881 22 2623 -34 
Q 2366 -91 2075 -91 
Q 1284 -91 818 406 
Q 353 903 353 1747 
Q 353 2603 823 3093 
Q 1294 3584 2113 3584 
Q 2378 3584 2631 3529 
Q 2884 3475 3122 3366 
z
" transform="scale(0.015625)"/>
     </defs>
     <use xlink:href="#DejaVuSans-43"/>
     <use xlink:href="#DejaVuSans-6c" transform="translate(69.824219 0)"/>
     <use xlink:href="#DejaVuSans-75" transform="translate(97.607422 0)"/>
     <use xlink:href="#DejaVuSans-73" transform="translate(160.986328 0)"/>
     <use xlink:href="#DejaVuSans-74" transform="translate(213.085938 0)"/>
     <use xlink:href="#DejaVuSans-65" transform="translate(252.294922 0)"/>
     <use xlink:href="#DejaVuSans-72" transform="translate(313.818359 0)"/>
     <use xlink:href="#DejaVuSans-20" transform="translate(354.931641 0)"/>
     <use xlink:href="#DejaVuSans-68" transform="translate(386.71875 0)"/>
     <use xlink:href="#DejaVuSans-65" transform="translate(450.097656 0)"/>
     <use xlink:href="#DejaVuSans-69" transform="translate(511.621094 0)"/>
     <use xlink:href="#DejaVuSans-67" transform="translate(539.404297 0)"/>
     <use xlink:href="#DejaVuSans-68" transform="translate(602.880859 0)"/>
     <use xlink:href="#DejaVuSans-74" transform="translate(666.259766 0)"/>
     <use xlink:href="#DejaVuSans-73" transform="translate(705.46875 0)"/>
     <use xlink:href="#DejaVuSans-3a" transform="translate(757.568359 0)"/>
     <use xlink:href="#DejaVuSans-20" transform="translate(791.259766 0)"/>
     <use xlink:href="#DejaVuSans-72" transform="translate(823.046875 0)"/>
     <use xlink:href="#DejaVuSans-61" transform="translate(864.160156 0)"/>
     <use xlink:href="#DejaVuSans-77" transform="translate(925.439453 0)"/>
     <use xlink:href="#DejaVuSans-20" transform="translate(1007.226562 0)"/>
     <use xlink:href="#DejaVuSans-76" transform="translate(1039.013672 0)"/>
     <use xlink:href="#DejaVuSans-73" transform="translate(1098.193359 0)"/>
     <use xlink:href="#DejaVuSans-20" transform="translate(1150.292969 0)"/>
     <use xlink:href="#DejaVuSans-6e" transform="translate(1182.080078 0)"/>
     <use xlink:href="#DejaVuSans-6f" transform="translate(1245.458984 0)"/>
     <use xlink:href="#DejaVuSans-72" transform="translate(1306.640625 0)"/>
     <use xlink:href="#DejaVuSans-6d" transform="translate(1346.003906 0)"/>
     <use xlink:href="#DejaVuSans-61" transform="translate(1443.416016 0)"/>
     <use xlink:href="#DejaVuSans-6c" transform="translate(1504.695312 0)"/>
     <use xlink:href="#DejaVuSans-69" transform="translate(1532.478516 0)"/>
     <use xlink:href="#DejaVuSans-7a" transform="translate(1560.261719 0)"/>
     <use xlink:href="#DejaVuSans-65" transform="translate(1612.751953 0)"/>
     <use xlink:href="#DejaVuSans-64" transform="translate(1674.275391 0)"/>
     <use xlink:href="#DejaVuSans-20" transform="translate(1737.751953 0)"/>
     <use xlink:href="#DejaVuSans-28" transform="translate(1769.539062 0)"/>
     <use xlink:href="#DejaVuSans-4d" transform="translate(1808.552734 0)"/>
     <use xlink:href="#DejaVuSans-31" transform="translate(1894.832031 0)"/>
     <use xlink:href="#DejaVuSans-30" transform="translate(1958.455078 0)"/>
     <use xlink:href="#DejaVuSans-31" transform="translate(2022.078125 0)"/>
     <use xlink:href="#DejaVuSans-33" transform="translate(2085.701172 0)"/>
     <use xlink:href="#DejaVuSans-20" transform="translate(2149.324219 0)"/>
     <use xlink:href="#DejaVuSans-72" transform="translate(2181.111328 0)"/>
     <use xlink:href="#DejaVuSans-65" transform="translate(2219.974609 0)"/>
     <use xlink:href="#DejaVuSans-61" transform="translate(2281.498047 0)"/>
     <use xlink:href="#DejaVuSans-63" transform="translate(2342.777344 0)"/>
     <use xlink:href="#DejaVuSans-68" transform="translate(2397.757812 0)"/>
     <use xlink:href="#DejaVuSans-20" transform="translate(2461.136719 0)"/>
     <use xlink:href="#DejaVuSans-62" transform="translate(2492.923828 0)"/>
     <use xlink:href="#DejaVuSans-75" transform="translate(2556.400391 0)"/>
     <use xlink:href="#DejaVuSans-64" transform="translate(2619.779297 0)"/>
     <use xlink:href="#DejaVuSans-67" transform="translate(2683.255859 0)"/>
     <use xlink:href="#DejaVuSans-65" transform="translate(2746.732422 0)"/>
     <use xlink:href="#DejaVuSans-74" transform="translate(2808.255859 0)"/>
     <use xlink:href="#DejaVuSans-29" transform="translate(2847.464844 0)"/>
    </g>
   </g>
   <g id="legend_1">
    <g id="patch_19">
     <path d="M 492.494531 69.016875 
L 628.36125 69.016875 
Q 629.76125 69.016875 629.76125 67.616875 
L 629.76125 27.218125 
Q 629.76125 25.818125 628.36125 25.818125 
L 492.494531 25.818125 
Q 491.094531 25.818125 491.094531 27.218125 
L 491.094531 67.616875 
Q 491.094531 69.016875 492.494531 69.016875 
z
" style="fill: #ffffff; opacity: 0.8; stroke: #cccccc; stroke-linejoin: miter"/>
    </g>
    <g id="line2d_21">
     <path d="M 493.894531 31.487031 
L 500.894531 31.487031 
L 507.894531 31.487031 
" style="fill: none; stroke-dasharray: 3.7,1.6; stroke-dashoffset: 0; stroke: #e57373"/>
    </g>
    <g id="text_15">
     <!-- arm reach max z = 1.33 m -->
     <g transform="translate(513.494531 33.937031) scale(0.07 -0.07)">
      <defs>
       <path id="DejaVuSans-3d" d="M 678 2906 
L 4684 2906 
L 4684 2381 
L 678 2381 
L 678 2906 
z
M 678 1631 
L 4684 1631 
L 4684 1100 
L 678 1100 
L 678 1631 
z
" transform="scale(0.015625)"/>
      </defs>
      <use xlink:href="#DejaVuSans-61"/>
      <use xlink:href="#DejaVuSans-72" transform="translate(61.279297 0)"/>
      <use xlink:href="#DejaVuSans-6d" transform="translate(100.642578 0)"/>
      <use xlink:href="#DejaVuSans-20" transform="translate(198.054688 0)"/>
      <use xlink:href="#DejaVuSans-72" transform="translate(229.841797 0)"/>
      <use xlink:href="#DejaVuSans-65" transform="translate(268.705078 0)"/>
      <use xlink:href="#DejaVuSans-61" transform="translate(330.228516 0)"/>
      <use xlink:href="#DejaVuSans-63" transform="translate(391.507812 0)"/>
      <use xlink:href="#DejaVuSans-68" transform="translate(446.488281 0)"/>
      <use xlink:href="#DejaVuSans-20" transform="translate(509.867188 0)"/>
      <use xlink:href="#DejaVuSans-6d" transform="translate(541.654297 0)"/>
      <use xlink:href="#DejaVuSans-61" transform="translate(639.066406 0)"/>
      <use xlink:href="#DejaVuSans-78" transform="translate(700.345703 0)"/>
      <use xlink:href="#DejaVuSans-20" transform="translate(759.525391 0)"/>
      <use xlink:href="#DejaVuSans-7a" transform="translate(791.3125 0)"/>
      <use xlink:href="#DejaVuSans-20" transform="translate(843.802734 0)"/>
      <use xlink:href="#DejaVuSans-3d" transform="translate(875.589844 0)"/>
      <use xlink:href="#DejaVuSans-20" transform="translate(959.378906 0)"/>
      <use xlink:href="#DejaVuSans-31" transform="translate(991.166016 0)"/>
      <use xlink:href="#DejaVuSans-2e" transform="translate(1054.789062 0)"/>
      <use xlink:href="#DejaVuSans-33" transform="translate(1086.576172 0)"/>
      <use xlink:href="#DejaVuSans-33" transform="translate(1150.199219 0)"/>
      <use xlink:href="#DejaVuSans-20" transform="translate(1213.822266 0)"/>
      <use xlink:href="#DejaVuSans-6d" transform="translate(1245.609375 0)"/>
     </g>
    </g>
    <g id="line2d_22">
     <path d="M 493.894531 41.761719 
L 500.894531 41.761719 
L 507.894531 41.761719 
" style="fill: none; stroke-dasharray: 0.6,0.99; stroke-dashoffset: 0; stroke: #2e7d32; stroke-width: 0.6"/>
    </g>
    <g id="text_16">
     <!-- normalized top z = 1.51 m -->
     <g transform="translate(513.494531 44.211719) scale(0.07 -0.07)">
      <use xlink:href="#DejaVuSans-6e"/>
      <use xlink:href="#DejaVuSans-6f" transform="translate(63.378906 0)"/>
      <use xlink:href="#DejaVuSans-72" transform="translate(124.560547 0)"/>
      <use xlink:href="#DejaVuSans-6d" transform="translate(163.923828 0)"/>
      <use xlink:href="#DejaVuSans-61" transform="translate(261.335938 0)"/>
      <use xlink:href="#DejaVuSans-6c" transform="translate(322.615234 0)"/>
      <use xlink:href="#DejaVuSans-69" transform="translate(350.398438 0)"/>
      <use xlink:href="#DejaVuSans-7a" transform="translate(378.181641 0)"/>
      <use xlink:href="#DejaVuSans-65" transform="translate(430.671875 0)"/>
      <use xlink:href="#DejaVuSans-64" transform="translate(492.195312 0)"/>
      <use xlink:href="#DejaVuSans-20" transform="translate(555.671875 0)"/>
      <use xlink:href="#DejaVuSans-74" transform="translate(587.458984 0)"/>
      <use xlink:href="#DejaVuSans-6f" transform="translate(626.667969 0)"/>
      <use xlink:href="#DejaVuSans-70" transform="translate(687.849609 0)"/>
      <use xlink:href="#DejaVuSans-20" transform="translate(751.326172 0)"/>
      <use xlink:href="#DejaVuSans-7a" transform="translate(783.113281 0)"/>
      <use xlink:href="#DejaVuSans-20" transform="translate(835.603516 0)"/>
      <use xlink:href="#DejaVuSans-3d" transform="translate(867.390625 0)"/>
      <use xlink:href="#DejaVuSans-20" transform="translate(951.179688 0)"/>
      <use xlink:href="#DejaVuSans-31" transform="translate(982.966797 0)"/>
      <use xlink:href="#DejaVuSans-2e" transform="translate(1046.589844 0)"/>
      <use xlink:href="#DejaVuSans-35" transform="translate(1078.376953 0)"/>
      <use xlink:href="#DejaVuSans-31" transform="translate(1142 0)"/>
      <use xlink:href="#DejaVuSans-20" transform="translate(1205.623047 0)"/>
      <use xlink:href="#DejaVuSans-6d" transform="translate(1237.410156 0)"/>
     </g>
    </g>
    <g id="patch_20">
     <path d="M 493.894531 54.486406 
L 507.894531 54.486406 
L 507.894531 49.586406 
L 493.894531 49.586406 
z
" style="fill: #bdbdbd; stroke: #000000; stroke-width: 0.6; stroke-linejoin: miter"/>
    </g>
    <g id="text_17">
     <!-- At raw scale=3 (no norm) -->
     <g transform="translate(513.494531 54.486406) scale(0.07 -0.07)">
      <use xlink:href="#DejaVuSans-41"/>
      <use xlink:href="#DejaVuSans-74" transform="translate(66.658203 0)"/>
      <use xlink:href="#DejaVuSans-20" transform="translate(105.867188 0)"/>
      <use xlink:href="#DejaVuSans-72" transform="translate(137.654297 0)"/>
      <use xlink:href="#DejaVuSans-61" transform="translate(178.767578 0)"/>
      <use xlink:href="#DejaVuSans-77" transform="translate(240.046875 0)"/>
      <use xlink:href="#DejaVuSans-20" transform="translate(321.833984 0)"/>
      <use xlink:href="#DejaVuSans-73" transform="translate(353.621094 0)"/>
      <use xlink:href="#DejaVuSans-63" transform="translate(405.720703 0)"/>
      <use xlink:href="#DejaVuSans-61" transform="translate(460.701172 0)"/>
      <use xlink:href="#DejaVuSans-6c" transform="translate(521.980469 0)"/>
      <use xlink:href="#DejaVuSans-65" transform="translate(549.763672 0)"/>
      <use xlink:href="#DejaVuSans-3d" transform="translate(611.287109 0)"/>
      <use xlink:href="#DejaVuSans-33" transform="translate(695.076172 0)"/>
      <use xlink:href="#DejaVuSans-20" transform="translate(758.699219 0)"/>
      <use xlink:href="#DejaVuSans-28" transform="translate(790.486328 0)"/>
      <use xlink:href="#DejaVuSans-6e" transform="translate(829.5 0)"/>
      <use xlink:href="#DejaVuSans-6f" transform="translate(892.878906 0)"/>
      <use xlink:href="#DejaVuSans-20" transform="translate(954.060547 0)"/>
      <use xlink:href="#DejaVuSans-6e" transform="translate(985.847656 0)"/>
      <use xlink:href="#DejaVuSans-6f" transform="translate(1049.226562 0)"/>
      <use xlink:href="#DejaVuSans-72" transform="translate(1110.408203 0)"/>
      <use xlink:href="#DejaVuSans-6d" transform="translate(1149.771484 0)"/>
      <use xlink:href="#DejaVuSans-29" transform="translate(1247.183594 0)"/>
     </g>
    </g>
    <g id="patch_21">
     <path d="M 493.894531 64.761094 
L 507.894531 64.761094 
L 507.894531 59.861094 
L 493.894531 59.861094 
z
" style="fill: #43a047; stroke: #000000; stroke-width: 0.6; stroke-linejoin: miter"/>
    </g>
    <g id="text_18">
     <!-- With per-variant norm (target D) -->
     <g transform="translate(513.494531 64.761094) scale(0.07 -0.07)">
      <defs>
       <path id="DejaVuSans-57" d="M 213 4666 
L 850 4666 
L 1831 722 
L 2809 4666 
L 3519 4666 
L 4500 722 
L 5478 4666 
L 6119 4666 
L 4947 0 
L 4153 0 
L 3169 4050 
L 2175 0 
L 1381 0 
L 213 4666 
z
" transform="scale(0.015625)"/>
       <path id="DejaVuSans-2d" d="M 313 2009 
L 1997 2009 
L 1997 1497 
L 313 1497 
L 313 2009 
z
" transform="scale(0.015625)"/>
      </defs>
      <use xlink:href="#DejaVuSans-57"/>
      <use xlink:href="#DejaVuSans-69" transform="translate(96.626953 0)"/>
      <use xlink:href="#DejaVuSans-74" transform="translate(124.410156 0)"/>
      <use xlink:href="#DejaVuSans-68" transform="translate(163.619141 0)"/>
      <use xlink:href="#DejaVuSans-20" transform="translate(226.998047 0)"/>
      <use xlink:href="#DejaVuSans-70" transform="translate(258.785156 0)"/>
      <use xlink:href="#DejaVuSans-65" transform="translate(322.261719 0)"/>
      <use xlink:href="#DejaVuSans-72" transform="translate(383.785156 0)"/>
      <use xlink:href="#DejaVuSans-2d" transform="translate(418.523438 0)"/>
      <use xlink:href="#DejaVuSans-76" transform="translate(451.982422 0)"/>
      <use xlink:href="#DejaVuSans-61" transform="translate(511.162109 0)"/>
      <use xlink:href="#DejaVuSans-72" transform="translate(572.441406 0)"/>
      <use xlink:href="#DejaVuSans-69" transform="translate(613.554688 0)"/>
      <use xlink:href="#DejaVuSans-61" transform="translate(641.337891 0)"/>
      <use xlink:href="#DejaVuSans-6e" transform="translate(702.617188 0)"/>
      <use xlink:href="#DejaVuSans-74" transform="translate(765.996094 0)"/>
      <use xlink:href="#DejaVuSans-20" transform="translate(805.205078 0)"/>
      <use xlink:href="#DejaVuSans-6e" transform="translate(836.992188 0)"/>
      <use xlink:href="#DejaVuSans-6f" transform="translate(900.371094 0)"/>
      <use xlink:href="#DejaVuSans-72" transform="translate(961.552734 0)"/>
      <use xlink:href="#DejaVuSans-6d" transform="translate(1000.916016 0)"/>
      <use xlink:href="#DejaVuSans-20" transform="translate(1098.328125 0)"/>
      <use xlink:href="#DejaVuSans-28" transform="translate(1130.115234 0)"/>
      <use xlink:href="#DejaVuSans-74" transform="translate(1169.128906 0)"/>
      <use xlink:href="#DejaVuSans-61" transform="translate(1208.337891 0)"/>
      <use xlink:href="#DejaVuSans-72" transform="translate(1269.617188 0)"/>
      <use xlink:href="#DejaVuSans-67" transform="translate(1308.980469 0)"/>
      <use xlink:href="#DejaVuSans-65" transform="translate(1372.457031 0)"/>
      <use xlink:href="#DejaVuSans-74" transform="translate(1433.980469 0)"/>
      <use xlink:href="#DejaVuSans-20" transform="translate(1473.189453 0)"/>
      <use xlink:href="#DejaVuSans-44" transform="translate(1504.976562 0)"/>
      <use xlink:href="#DejaVuSans-29" transform="translate(1581.978516 0)"/>
     </g>
    </g>
   </g>
  </g>
 </g>
 <defs>
  <clipPath id="p12df17957f">
   <rect x="43.78125" y="22.318125" width="589.48" height="299.1155"/>
  </clipPath>
 </defs>
</svg>
