<?xml version="1.0" encoding="utf-8" standalone="no"?>
<!DOCTYPE svg PUBLIC "-//W3C//DTD SVG 1.1//EN"
  "http://www.w3.org/Graphics/SVG/1.1/DTD/svg11.dtd">
<svg xmlns:xlink="http://www.w3.org/1999/xlink" width="848.653221pt" height="355.844062pt" viewBox="0 0 848.653221 355.844062" xmlns="http://www.w3.org/2000/svg" version="1.1">
 <metadata>
  <rdf:RDF xmlns:dc="http://purl.org/dc/elements/1.1/" xmlns:cc="http://creativecommons.org/ns#" xmlns:rdf="http://www.w3.org/1999/02/22-rdf-syntax-ns#">
   <cc:Work>
    <dc:type rdf:resource="http://purl.org/dc/dcmitype/StillImage"/>
    <dc:date>2026-01-07T21:56:26.002058</dc:date>
    <dc:format>image/svg+xml</dc:format>
    <dc:creator>
     <cc:Agent>
      <dc:title>Matplotlib v3.5.1, https://matplotlib.org/</dc:title>
     </cc:Agent>
    </dc:creator>
   </cc:Work>
  </rdf:RDF>
 </metadata>
 <defs>
  <style type="text/css">*{stroke-linejoin: round; stroke-linecap: butt}</style>
 </defs>
 <g id="figure_1">
  <g id="patch_1">
   <path d="M -0 355.844062 
L 848.653221 355.844062 
L 848.653221 0 
L -0 0 
z
" style="fill: #ffffff"/>
  </g>
  <g id="axes_1">
   <g id="patch_2">
    <path d="M 47.933438 317.32 
L 413.430793 317.32 
L 413.430793 49.92 
L 47.933438 49.92 
z
" style="fill: #ffffff"/>
   </g>
   <g id="matplotlib.axis_1">
    <g id="xtick_1">
     <g id="line2d_1">
      <path d="M 64.546954 317.32 
L 64.546954 49.92 
" clip-path="url(#pe6543d68ef)" style="fill: none; stroke: #b0b0b0; stroke-opacity: 0.3; stroke-width: 0.8; stroke-linecap: square"/>
     </g>
     <g id="line2d_2">
      <defs>
       <path id="m3abd547c47" d="M 0 0 
L 0 3.5 
" style="stroke: #000000; stroke-width: 0.8"/>
      </defs>
      <g>
       <use xlink:href="#m3abd547c47" x="64.546954" y="317.32" style="stroke: #000000; stroke-width: 0.8"/>
      </g>
     </g>
     <g id="text_1">
      <!-- Initial -->
      <g transform="translate(50.711797 331.918437)scale(0.1 -0.1)">
       <defs>
        <path id="DejaVuSans-49" d="M 628 4666 
L 1259 4666 
L 1259 0 
L 628 0 
L 628 4666 
z
" transform="scale(0.015625)"/>
        <path id="DejaVuSans-6e" d="M 3513 2113 
L 3513 0 
L 2938 0 
L 2938 2094 
Q 2938 2591 2744 2837 
Q 2550 3084 2163 3084 
Q 1697 3084 1428 2787 
Q 1159 2491 1159 1978 
L 1159 0 
L 581 0 
L 581 3500 
L 1159 3500 
L 1159 2956 
Q 1366 3272 1645 3428 
Q 1925 3584 2291 3584 
Q 2894 3584 3203 3211 
Q 3513 2838 3513 2113 
z
" transform="scale(0.015625)"/>
        <path id="DejaVuSans-69" d="M 603 3500 
L 1178 3500 
L 1178 0 
L 603 0 
L 603 3500 
z
M 603 4863 
L 1178 4863 
L 1178 4134 
L 603 4134 
L 603 4863 
z
" transform="scale(0.015625)"/>
        <path id="DejaVuSans-74" d="M 1172 4494 
L 1172 3500 
L 2356 3500 
L 2356 3053 
L 1172 3053 
L 1172 1153 
Q 1172 725 1289 603 
Q 1406 481 1766 481 
L 2356 481 
L 2356 0 
L 1766 0 
Q 1100 0 847 248 
Q 594 497 594 1153 
L 594 3053 
L 172 3053 
L 172 3500 
L 594 3500 
L 594 4494 
L 1172 4494 
z
" transform="scale(0.015625)"/>
        <path id="DejaVuSans-61" d="M 2194 1759 
Q 1497 1759 1228 1600 
Q 959 1441 959 1056 
Q 959 750 1161 570 
Q 1363 391 1709 391 
Q 2188 391 2477 730 
Q 2766 1069 2766 1631 
L 2766 1759 
L 2194 1759 
z
M 3341 1997 
L 3341 0 
L 2766 0 
L 2766 531 
Q 2569 213 2275 61 
Q 1981 -91 1556 -91 
Q 1019 -91 701 211 
Q 384 513 384 1019 
Q 384 1609 779 1909 
Q 1175 2209 1959 2209 
L 2766 2209 
L 2766 2266 
Q 2766 2663 2505 2880 
Q 2244 3097 1772 3097 
Q 1472 3097 1187 3025 
Q 903 2953 641 2809 
L 641 3341 
Q 956 3463 1253 3523 
Q 1550 3584 1831 3584 
Q 2591 3584 2966 3190 
Q 3341 2797 3341 1997 
z
" transform="scale(0.015625)"/>
        <path id="DejaVuSans-6c" d="M 603 4863 
L 1178 4863 
L 1178 0 
L 603 0 
L 603 4863 
z
" transform="scale(0.015625)"/>
       </defs>
       <use xlink:href="#DejaVuSans-49"/>
       <use xlink:href="#DejaVuSans-6e" x="29.492188"/>
       <use xlink:href="#DejaVuSans-69" x="92.871094"/>
       <use xlink:href="#DejaVuSans-74" x="120.654297"/>
       <use xlink:href="#DejaVuSans-69" x="159.863281"/>
       <use xlink:href="#DejaVuSans-61" x="187.646484"/>
       <use xlink:href="#DejaVuSans-6c" x="248.925781"/>
      </g>
     </g>
    </g>
    <g id="xtick_2">
     <g id="line2d_3">
      <path d="M 230.682115 317.32 
L 230.682115 49.92 
" clip-path="url(#pe6543d68ef)" style="fill: none; stroke: #b0b0b0; stroke-opacity: 0.3; stroke-width: 0.8; stroke-linecap: square"/>
     </g>
     <g id="line2d_4">
      <g>
       <use xlink:href="#m3abd547c47" x="230.682115" y="317.32" style="stroke: #000000; stroke-width: 0.8"/>
      </g>
     </g>
     <g id="text_2">
      <!-- Iter 1 -->
      <g transform="translate(217.344615 331.918437)scale(0.1 -0.1)">
       <defs>
        <path id="DejaVuSans-65" d="M 3597 1894 
L 3597 1613 
L 953 1613 
Q 991 1019 1311 708 
Q 1631 397 2203 397 
Q 2534 397 2845 478 
Q 3156 559 3463 722 
L 3463 178 
Q 3153 47 2828 -22 
Q 2503 -91 2169 -91 
Q 1331 -91 842 396 
Q 353 884 353 1716 
Q 353 2575 817 3079 
Q 1281 3584 2069 3584 
Q 2775 3584 3186 3129 
Q 3597 2675 3597 1894 
z
M 3022 2063 
Q 3016 2534 2758 2815 
Q 2500 3097 2075 3097 
Q 1594 3097 1305 2825 
Q 1016 2553 972 2059 
L 3022 2063 
z
" transform="scale(0.015625)"/>
        <path id="DejaVuSans-72" d="M 2631 2963 
Q 2534 3019 2420 3045 
Q 2306 3072 2169 3072 
Q 1681 3072 1420 2755 
Q 1159 2438 1159 1844 
L 1159 0 
L 581 0 
L 581 3500 
L 1159 3500 
L 1159 2956 
Q 1341 3275 1631 3429 
Q 1922 3584 2338 3584 
Q 2397 3584 2469 3576 
Q 2541 3569 2628 3553 
L 2631 2963 
z
" transform="scale(0.015625)"/>
        <path id="DejaVuSans-20" transform="scale(0.015625)"/>
        <path id="DejaVuSans-31" d="M 794 531 
L 1825 531 
L 1825 4091 
L 703 3866 
L 703 4441 
L 1819 4666 
L 2450 4666 
L 2450 531 
L 3481 531 
L 3481 0 
L 794 0 
L 794 531 
z
" transform="scale(0.015625)"/>
       </defs>
       <use xlink:href="#DejaVuSans-49"/>
       <use xlink:href="#DejaVuSans-74" x="29.492188"/>
       <use xlink:href="#DejaVuSans-65" x="68.701172"/>
       <use xlink:href="#DejaVuSans-72" x="130.224609"/>
       <use xlink:href="#DejaVuSans-20" x="171.337891"/>
       <use xlink:href="#DejaVuSans-31" x="203.125"/>
      </g>
     </g>
    </g>
    <g id="xtick_3">
     <g id="line2d_5">
      <path d="M 396.817277 317.32 
L 396.817277 49.92 
" clip-path="url(#pe6543d68ef)" style="fill: none; stroke: #b0b0b0; stroke-opacity: 0.3; stroke-width: 0.8; stroke-linecap: square"/>
     </g>
     <g id="line2d_6">
      <g>
       <use xlink:href="#m3abd547c47" x="396.817277" y="317.32" style="stroke: #000000; stroke-width: 0.8"/>
      </g>
     </g>
     <g id="text_3">
      <!-- Iter 2 -->
      <g transform="translate(383.479777 331.918437)scale(0.1 -0.1)">
       <defs>
        <path id="DejaVuSans-32" d="M 1228 531 
L 3431 531 
L 3431 0 
L 469 0 
L 469 531 
Q 828 903 1448 1529 
Q 2069 2156 2228 2338 
Q 2531 2678 2651 2914 
Q 2772 3150 2772 3378 
Q 2772 3750 2511 3984 
Q 2250 4219 1831 4219 
Q 1534 4219 1204 4116 
Q 875 4013 500 3803 
L 500 4441 
Q 881 4594 1212 4672 
Q 1544 4750 1819 4750 
Q 2544 4750 2975 4387 
Q 3406 4025 3406 3419 
Q 3406 3131 3298 2873 
Q 3191 2616 2906 2266 
Q 2828 2175 2409 1742 
Q 1991 1309 1228 531 
z
" transform="scale(0.015625)"/>
       </defs>
       <use xlink:href="#DejaVuSans-49"/>
       <use xlink:href="#DejaVuSans-74" x="29.492188"/>
       <use xlink:href="#DejaVuSans-65" x="68.701172"/>
       <use xlink:href="#DejaVuSans-72" x="130.224609"/>
       <use xlink:href="#DejaVuSans-20" x="171.337891"/>
       <use xlink:href="#DejaVuSans-32" x="203.125"/>
      </g>
     </g>
    </g>
    <g id="text_4">
     <!-- Focus Iteration -->
     <g transform="translate(189.900475 346.356406)scale(0.11 -0.11)">
      <defs>
       <path id="DejaVuSans-46" d="M 628 4666 
L 3309 4666 
L 3309 4134 
L 1259 4134 
L 1259 2759 
L 3109 2759 
L 3109 2228 
L 1259 2228 
L 1259 0 
L 628 0 
L 628 4666 
z
" transform="scale(0.015625)"/>
       <path id="DejaVuSans-6f" d="M 1959 3097 
Q 1497 3097 1228 2736 
Q 959 2375 959 1747 
Q 959 1119 1226 758 
Q 1494 397 1959 397 
Q 2419 397 2687 759 
Q 2956 1122 2956 1747 
Q 2956 2369 2687 2733 
Q 2419 3097 1959 3097 
z
M 1959 3584 
Q 2709 3584 3137 3096 
Q 3566 2609 3566 1747 
Q 3566 888 3137 398 
Q 2709 -91 1959 -91 
Q 1206 -91 779 398 
Q 353 888 353 1747 
Q 353 2609 779 3096 
Q 1206 3584 1959 3584 
z
" transform="scale(0.015625)"/>
       <path id="DejaVuSans-63" d="M 3122 3366 
L 3122 2828 
Q 2878 2963 2633 3030 
Q 2388 3097 2138 3097 
Q 1578 3097 1268 2742 
Q 959 2388 959 1747 
Q 959 1106 1268 751 
Q 1578 397 2138 397 
Q 2388 397 2633 464 
Q 2878 531 3122 666 
L 3122 134 
Q 2881 22 2623 -34 
Q 2366 -91 2075 -91 
Q 1284 -91 818 406 
Q 353 903 353 1747 
Q 353 2603 823 3093 
Q 1294 3584 2113 3584 
Q 2378 3584 2631 3529 
Q 2884 3475 3122 3366 
z
" transform="scale(0.015625)"/>
       <path id="DejaVuSans-75" d="M 544 1381 
L 544 3500 
L 1119 3500 
L 1119 1403 
Q 1119 906 1312 657 
Q 1506 409 1894 409 
Q 2359 409 2629 706 
Q 2900 1003 2900 1516 
L 2900 3500 
L 3475 3500 
L 3475 0 
L 2900 0 
L 2900 538 
Q 2691 219 2414 64 
Q 2138 -91 1772 -91 
Q 1169 -91 856 284 
Q 544 659 544 1381 
z
M 1991 3584 
L 1991 3584 
z
" transform="scale(0.015625)"/>
       <path id="DejaVuSans-73" d="M 2834 3397 
L 2834 2853 
Q 2591 2978 2328 3040 
Q 2066 3103 1784 3103 
Q 1356 3103 1142 2972 
Q 928 2841 928 2578 
Q 928 2378 1081 2264 
Q 1234 2150 1697 2047 
L 1894 2003 
Q 2506 1872 2764 1633 
Q 3022 1394 3022 966 
Q 3022 478 2636 193 
Q 2250 -91 1575 -91 
Q 1294 -91 989 -36 
Q 684 19 347 128 
L 347 722 
Q 666 556 975 473 
Q 1284 391 1588 391 
Q 1994 391 2212 530 
Q 2431 669 2431 922 
Q 2431 1156 2273 1281 
Q 2116 1406 1581 1522 
L 1381 1569 
Q 847 1681 609 1914 
Q 372 2147 372 2553 
Q 372 3047 722 3315 
Q 1072 3584 1716 3584 
Q 2034 3584 2315 3537 
Q 2597 3491 2834 3397 
z
" transform="scale(0.015625)"/>
      </defs>
      <use xlink:href="#DejaVuSans-46"/>
      <use xlink:href="#DejaVuSans-6f" x="53.894531"/>
      <use xlink:href="#DejaVuSans-63" x="115.076172"/>
      <use xlink:href="#DejaVuSans-75" x="170.056641"/>
      <use xlink:href="#DejaVuSans-73" x="233.435547"/>
      <use xlink:href="#DejaVuSans-20" x="285.535156"/>
      <use xlink:href="#DejaVuSans-49" x="317.322266"/>
      <use xlink:href="#DejaVuSans-74" x="346.814453"/>
      <use xlink:href="#DejaVuSans-65" x="386.023438"/>
      <use xlink:href="#DejaVuSans-72" x="447.546875"/>
      <use xlink:href="#DejaVuSans-61" x="488.660156"/>
      <use xlink:href="#DejaVuSans-74" x="549.939453"/>
      <use xlink:href="#DejaVuSans-69" x="589.148438"/>
      <use xlink:href="#DejaVuSans-6f" x="616.931641"/>
      <use xlink:href="#DejaVuSans-6e" x="678.113281"/>
     </g>
    </g>
   </g>
   <g id="matplotlib.axis_2">
    <g id="ytick_1">
     <g id="line2d_7">
      <path d="M 47.933438 317.32 
L 413.430793 317.32 
" clip-path="url(#pe6543d68ef)" style="fill: none; stroke: #b0b0b0; stroke-opacity: 0.3; stroke-width: 0.8; stroke-linecap: square"/>
     </g>
     <g id="line2d_8">
      <defs>
       <path id="m093383d0ac" d="M 0 0 
L -3.5 0 
" style="stroke: #000000; stroke-width: 0.8"/>
      </defs>
      <g>
       <use xlink:href="#m093383d0ac" x="47.933438" y="317.32" style="stroke: #000000; stroke-width: 0.8"/>
      </g>
     </g>
     <g id="text_5">
      <!-- 0 -->
      <g transform="translate(34.570937 321.119219)scale(0.1 -0.1)">
       <defs>
        <path id="DejaVuSans-30" d="M 2034 4250 
Q 1547 4250 1301 3770 
Q 1056 3291 1056 2328 
Q 1056 1369 1301 889 
Q 1547 409 2034 409 
Q 2525 409 2770 889 
Q 3016 1369 3016 2328 
Q 3016 3291 2770 3770 
Q 2525 4250 2034 4250 
z
M 2034 4750 
Q 2819 4750 3233 4129 
Q 3647 3509 3647 2328 
Q 3647 1150 3233 529 
Q 2819 -91 2034 -91 
Q 1250 -91 836 529 
Q 422 1150 422 2328 
Q 422 3509 836 4129 
Q 1250 4750 2034 4750 
z
" transform="scale(0.015625)"/>
       </defs>
       <use xlink:href="#DejaVuSans-30"/>
      </g>
     </g>
    </g>
    <g id="ytick_2">
     <g id="line2d_9">
      <path d="M 47.933438 275.53875 
L 413.430793 275.53875 
" clip-path="url(#pe6543d68ef)" style="fill: none; stroke: #b0b0b0; stroke-opacity: 0.3; stroke-width: 0.8; stroke-linecap: square"/>
     </g>
     <g id="line2d_10">
      <g>
       <use xlink:href="#m093383d0ac" x="47.933438" y="275.53875" style="stroke: #000000; stroke-width: 0.8"/>
      </g>
     </g>
     <g id="text_6">
      <!-- 50 -->
      <g transform="translate(28.208438 279.337969)scale(0.1 -0.1)">
       <defs>
        <path id="DejaVuSans-35" d="M 691 4666 
L 3169 4666 
L 3169 4134 
L 1269 4134 
L 1269 2991 
Q 1406 3038 1543 3061 
Q 1681 3084 1819 3084 
Q 2600 3084 3056 2656 
Q 3513 2228 3513 1497 
Q 3513 744 3044 326 
Q 2575 -91 1722 -91 
Q 1428 -91 1123 -41 
Q 819 9 494 109 
L 494 744 
Q 775 591 1075 516 
Q 1375 441 1709 441 
Q 2250 441 2565 725 
Q 2881 1009 2881 1497 
Q 2881 1984 2565 2268 
Q 2250 2553 1709 2553 
Q 1456 2553 1204 2497 
Q 953 2441 691 2322 
L 691 4666 
z
" transform="scale(0.015625)"/>
       </defs>
       <use xlink:href="#DejaVuSans-35"/>
       <use xlink:href="#DejaVuSans-30" x="63.623047"/>
      </g>
     </g>
    </g>
    <g id="ytick_3">
     <g id="line2d_11">
      <path d="M 47.933438 233.7575 
L 413.430793 233.7575 
" clip-path="url(#pe6543d68ef)" style="fill: none; stroke: #b0b0b0; stroke-opacity: 0.3; stroke-width: 0.8; stroke-linecap: square"/>
     </g>
     <g id="line2d_12">
      <g>
       <use xlink:href="#m093383d0ac" x="47.933438" y="233.7575" style="stroke: #000000; stroke-width: 0.8"/>
      </g>
     </g>
     <g id="text_7">
      <!-- 100 -->
      <g transform="translate(21.845938 237.556719)scale(0.1 -0.1)">
       <use xlink:href="#DejaVuSans-31"/>
       <use xlink:href="#DejaVuSans-30" x="63.623047"/>
       <use xlink:href="#DejaVuSans-30" x="127.246094"/>
      </g>
     </g>
    </g>
    <g id="ytick_4">
     <g id="line2d_13">
      <path d="M 47.933438 191.97625 
L 413.430793 191.97625 
" clip-path="url(#pe6543d68ef)" style="fill: none; stroke: #b0b0b0; stroke-opacity: 0.3; stroke-width: 0.8; stroke-linecap: square"/>
     </g>
     <g id="line2d_14">
      <g>
       <use xlink:href="#m093383d0ac" x="47.933438" y="191.97625" style="stroke: #000000; stroke-width: 0.8"/>
      </g>
     </g>
     <g id="text_8">
      <!-- 150 -->
      <g transform="translate(21.845938 195.775469)scale(0.1 -0.1)">
       <use xlink:href="#DejaVuSans-31"/>
       <use xlink:href="#DejaVuSans-35" x="63.623047"/>
       <use xlink:href="#DejaVuSans-30" x="127.246094"/>
      </g>
     </g>
    </g>
    <g id="ytick_5">
     <g id="line2d_15">
      <path d="M 47.933438 150.195 
L 413.430793 150.195 
" clip-path="url(#pe6543d68ef)" style="fill: none; stroke: #b0b0b0; stroke-opacity: 0.3; stroke-width: 0.8; stroke-linecap: square"/>
     </g>
     <g id="line2d_16">
      <g>
       <use xlink:href="#m093383d0ac" x="47.933438" y="150.195" style="stroke: #000000; stroke-width: 0.8"/>
      </g>
     </g>
     <g id="text_9">
      <!-- 200 -->
      <g transform="translate(21.845938 153.994219)scale(0.1 -0.1)">
       <use xlink:href="#DejaVuSans-32"/>
       <use xlink:href="#DejaVuSans-30" x="63.623047"/>
       <use xlink:href="#DejaVuSans-30" x="127.246094"/>
      </g>
     </g>
    </g>
    <g id="ytick_6">
     <g id="line2d_17">
      <path d="M 47.933438 108.41375 
L 413.430793 108.41375 
" clip-path="url(#pe6543d68ef)" style="fill: none; stroke: #b0b0b0; stroke-opacity: 0.3; stroke-width: 0.8; stroke-linecap: square"/>
     </g>
     <g id="line2d_18">
      <g>
       <use xlink:href="#m093383d0ac" x="47.933438" y="108.41375" style="stroke: #000000; stroke-width: 0.8"/>
      </g>
     </g>
     <g id="text_10">
      <!-- 250 -->
      <g transform="translate(21.845938 112.212969)scale(0.1 -0.1)">
       <use xlink:href="#DejaVuSans-32"/>
       <use xlink:href="#DejaVuSans-35" x="63.623047"/>
       <use xlink:href="#DejaVuSans-30" x="127.246094"/>
      </g>
     </g>
    </g>
    <g id="ytick_7">
     <g id="line2d_19">
      <path d="M 47.933438 66.6325 
L 413.430793 66.6325 
" clip-path="url(#pe6543d68ef)" style="fill: none; stroke: #b0b0b0; stroke-opacity: 0.3; stroke-width: 0.8; stroke-linecap: square"/>
     </g>
     <g id="line2d_20">
      <g>
       <use xlink:href="#m093383d0ac" x="47.933438" y="66.6325" style="stroke: #000000; stroke-width: 0.8"/>
      </g>
     </g>
     <g id="text_11">
      <!-- 300 -->
      <g transform="translate(21.845938 70.431719)scale(0.1 -0.1)">
       <defs>
        <path id="DejaVuSans-33" d="M 2597 2516 
Q 3050 2419 3304 2112 
Q 3559 1806 3559 1356 
Q 3559 666 3084 287 
Q 2609 -91 1734 -91 
Q 1441 -91 1130 -33 
Q 819 25 488 141 
L 488 750 
Q 750 597 1062 519 
Q 1375 441 1716 441 
Q 2309 441 2620 675 
Q 2931 909 2931 1356 
Q 2931 1769 2642 2001 
Q 2353 2234 1838 2234 
L 1294 2234 
L 1294 2753 
L 1863 2753 
Q 2328 2753 2575 2939 
Q 2822 3125 2822 3475 
Q 2822 3834 2567 4026 
Q 2313 4219 1838 4219 
Q 1578 4219 1281 4162 
Q 984 4106 628 3988 
L 628 4550 
Q 988 4650 1302 4700 
Q 1616 4750 1894 4750 
Q 2613 4750 3031 4423 
Q 3450 4097 3450 3541 
Q 3450 3153 3228 2886 
Q 3006 2619 2597 2516 
z
" transform="scale(0.015625)"/>
       </defs>
       <use xlink:href="#DejaVuSans-33"/>
       <use xlink:href="#DejaVuSans-30" x="63.623047"/>
       <use xlink:href="#DejaVuSans-30" x="127.246094"/>
      </g>
     </g>
    </g>
    <g id="text_12">
     <!-- Pixel Error (px) -->
     <g transform="translate(15.558281 224.274453)rotate(-90)scale(0.11 -0.11)">
      <defs>
       <path id="DejaVuSans-50" d="M 1259 4147 
L 1259 2394 
L 2053 2394 
Q 2494 2394 2734 2622 
Q 2975 2850 2975 3272 
Q 2975 3691 2734 3919 
Q 2494 4147 2053 4147 
L 1259 4147 
z
M 628 4666 
L 2053 4666 
Q 2838 4666 3239 4311 
Q 3641 3956 3641 3272 
Q 3641 2581 3239 2228 
Q 2838 1875 2053 1875 
L 1259 1875 
L 1259 0 
L 628 0 
L 628 4666 
z
" transform="scale(0.015625)"/>
       <path id="DejaVuSans-78" d="M 3513 3500 
L 2247 1797 
L 3578 0 
L 2900 0 
L 1881 1375 
L 863 0 
L 184 0 
L 1544 1831 
L 300 3500 
L 978 3500 
L 1906 2253 
L 2834 3500 
L 3513 3500 
z
" transform="scale(0.015625)"/>
       <path id="DejaVuSans-45" d="M 628 4666 
L 3578 4666 
L 3578 4134 
L 1259 4134 
L 1259 2753 
L 3481 2753 
L 3481 2222 
L 1259 2222 
L 1259 531 
L 3634 531 
L 3634 0 
L 628 0 
L 628 4666 
z
" transform="scale(0.015625)"/>
       <path id="DejaVuSans-28" d="M 1984 4856 
Q 1566 4138 1362 3434 
Q 1159 2731 1159 2009 
Q 1159 1288 1364 580 
Q 1569 -128 1984 -844 
L 1484 -844 
Q 1016 -109 783 600 
Q 550 1309 550 2009 
Q 550 2706 781 3412 
Q 1013 4119 1484 4856 
L 1984 4856 
z
" transform="scale(0.015625)"/>
       <path id="DejaVuSans-70" d="M 1159 525 
L 1159 -1331 
L 581 -1331 
L 581 3500 
L 1159 3500 
L 1159 2969 
Q 1341 3281 1617 3432 
Q 1894 3584 2278 3584 
Q 2916 3584 3314 3078 
Q 3713 2572 3713 1747 
Q 3713 922 3314 415 
Q 2916 -91 2278 -91 
Q 1894 -91 1617 61 
Q 1341 213 1159 525 
z
M 3116 1747 
Q 3116 2381 2855 2742 
Q 2594 3103 2138 3103 
Q 1681 3103 1420 2742 
Q 1159 2381 1159 1747 
Q 1159 1113 1420 752 
Q 1681 391 2138 391 
Q 2594 391 2855 752 
Q 3116 1113 3116 1747 
z
" transform="scale(0.015625)"/>
       <path id="DejaVuSans-29" d="M 513 4856 
L 1013 4856 
Q 1481 4119 1714 3412 
Q 1947 2706 1947 2009 
Q 1947 1309 1714 600 
Q 1481 -109 1013 -844 
L 513 -844 
Q 928 -128 1133 580 
Q 1338 1288 1338 2009 
Q 1338 2731 1133 3434 
Q 928 4138 513 4856 
z
" transform="scale(0.015625)"/>
      </defs>
      <use xlink:href="#DejaVuSans-50"/>
      <use xlink:href="#DejaVuSans-69" x="58.052734"/>
      <use xlink:href="#DejaVuSans-78" x="85.835938"/>
      <use xlink:href="#DejaVuSans-65" x="141.890625"/>
      <use xlink:href="#DejaVuSans-6c" x="203.414062"/>
      <use xlink:href="#DejaVuSans-20" x="231.197266"/>
      <use xlink:href="#DejaVuSans-45" x="262.984375"/>
      <use xlink:href="#DejaVuSans-72" x="326.167969"/>
      <use xlink:href="#DejaVuSans-72" x="365.53125"/>
      <use xlink:href="#DejaVuSans-6f" x="404.394531"/>
      <use xlink:href="#DejaVuSans-72" x="465.576172"/>
      <use xlink:href="#DejaVuSans-20" x="506.689453"/>
      <use xlink:href="#DejaVuSans-28" x="538.476562"/>
      <use xlink:href="#DejaVuSans-70" x="577.490234"/>
      <use xlink:href="#DejaVuSans-78" x="640.966797"/>
      <use xlink:href="#DejaVuSans-29" x="700.146484"/>
     </g>
    </g>
   </g>
   <g id="line2d_21">
    <path d="M 64.546954 84.156666 
L 230.682115 236.575099 
L 396.817277 253.54369 
" clip-path="url(#pe6543d68ef)" style="fill: none; stroke: #0000ff; stroke-width: 2; stroke-linecap: square"/>
    <defs>
     <path id="md809c283f8" d="M 0 5 
C 1.326016 5 2.597899 4.473168 3.535534 3.535534 
C 4.473168 2.597899 5 1.326016 5 0 
C 5 -1.326016 4.473168 -2.597899 3.535534 -3.535534 
C 2.597899 -4.473168 1.326016 -5 0 -5 
C -1.326016 -5 -2.597899 -4.473168 -3.535534 -3.535534 
C -4.473168 -2.597899 -5 -1.326016 -5 0 
C -5 1.326016 -4.473168 2.597899 -3.535534 3.535534 
C -2.597899 4.473168 -1.326016 5 0 5 
z
" style="stroke: #0000ff"/>
    </defs>
    <g clip-path="url(#pe6543d68ef)">
     <use xlink:href="#md809c283f8" x="64.546954" y="84.156666" style="fill: #0000ff; stroke: #0000ff"/>
     <use xlink:href="#md809c283f8" x="230.682115" y="236.575099" style="fill: #0000ff; stroke: #0000ff"/>
     <use xlink:href="#md809c283f8" x="396.817277" y="253.54369" style="fill: #0000ff; stroke: #0000ff"/>
    </g>
   </g>
   <g id="line2d_22">
    <path d="M 64.546954 103.4 
L 230.682115 308.128125 
L 396.817277 311.470625 
" clip-path="url(#pe6543d68ef)" style="fill: none; stroke-dasharray: 5.55,2.4; stroke-dashoffset: 0; stroke: #ff0000; stroke-width: 1.5"/>
    <defs>
     <path id="m83178bd8b0" d="M -4 4 
L 4 4 
L 4 -4 
L -4 -4 
z
" style="stroke: #ff0000; stroke-linejoin: miter"/>
    </defs>
    <g clip-path="url(#pe6543d68ef)">
     <use xlink:href="#m83178bd8b0" x="64.546954" y="103.4" style="fill: #ff0000; stroke: #ff0000; stroke-linejoin: miter"/>
     <use xlink:href="#m83178bd8b0" x="230.682115" y="308.128125" style="fill: #ff0000; stroke: #ff0000; stroke-linejoin: miter"/>
     <use xlink:href="#m83178bd8b0" x="396.817277" y="311.470625" style="fill: #ff0000; stroke: #ff0000; stroke-linejoin: miter"/>
    </g>
   </g>
   <g id="line2d_23">
    <path d="M 64.546954 224.565625 
L 230.682115 237.1 
L 396.817277 253.8125 
" clip-path="url(#pe6543d68ef)" style="fill: none; stroke-dasharray: 5.55,2.4; stroke-dashoffset: 0; stroke: #008000; stroke-width: 1.5"/>
    <defs>
     <path id="m98b17a47dd" d="M 0 -4 
L -4 4 
L 4 4 
z
" style="stroke: #008000; stroke-linejoin: miter"/>
    </defs>
    <g clip-path="url(#pe6543d68ef)">
     <use xlink:href="#m98b17a47dd" x="64.546954" y="224.565625" style="fill: #008000; stroke: #008000; stroke-linejoin: miter"/>
     <use xlink:href="#m98b17a47dd" x="230.682115" y="237.1" style="fill: #008000; stroke: #008000; stroke-linejoin: miter"/>
     <use xlink:href="#m98b17a47dd" x="396.817277" y="253.8125" style="fill: #008000; stroke: #008000; stroke-linejoin: miter"/>
    </g>
   </g>
   <g id="line2d_24">
    <path d="M 47.933438 300.6075 
L 413.430793 300.6075 
" clip-path="url(#pe6543d68ef)" style="fill: none; stroke-dasharray: 1.5,2.475; stroke-dashoffset: 0; stroke: #808080; stroke-width: 1.5"/>
   </g>
   <g id="patch_3">
    <path d="M 47.933438 317.32 
L 47.933438 49.92 
" style="fill: none; stroke: #000000; stroke-width: 0.8; stroke-linejoin: miter; stroke-linecap: square"/>
   </g>
   <g id="patch_4">
    <path d="M 413.430793 317.32 
L 413.430793 49.92 
" style="fill: none; stroke: #000000; stroke-width: 0.8; stroke-linejoin: miter; stroke-linecap: square"/>
   </g>
   <g id="patch_5">
    <path d="M 47.933437 317.32 
L 413.430793 317.32 
" style="fill: none; stroke: #000000; stroke-width: 0.8; stroke-linejoin: miter; stroke-linecap: square"/>
   </g>
   <g id="patch_6">
    <path d="M 47.933437 49.92 
L 413.430793 49.92 
" style="fill: none; stroke: #000000; stroke-width: 0.8; stroke-linejoin: miter; stroke-linecap: square"/>
   </g>
   <g id="text_13">
    <!-- 279px -->
    <g style="fill: #0000ff" transform="translate(74.546954 74.156666)scale(0.09 -0.09)">
     <defs>
      <path id="DejaVuSans-37" d="M 525 4666 
L 3525 4666 
L 3525 4397 
L 1831 0 
L 1172 0 
L 2766 4134 
L 525 4134 
L 525 4666 
z
" transform="scale(0.015625)"/>
      <path id="DejaVuSans-39" d="M 703 97 
L 703 672 
Q 941 559 1184 500 
Q 1428 441 1663 441 
Q 2288 441 2617 861 
Q 2947 1281 2994 2138 
Q 2813 1869 2534 1725 
Q 2256 1581 1919 1581 
Q 1219 1581 811 2004 
Q 403 2428 403 3163 
Q 403 3881 828 4315 
Q 1253 4750 1959 4750 
Q 2769 4750 3195 4129 
Q 3622 3509 3622 2328 
Q 3622 1225 3098 567 
Q 2575 -91 1691 -91 
Q 1453 -91 1209 -44 
Q 966 3 703 97 
z
M 1959 2075 
Q 2384 2075 2632 2365 
Q 2881 2656 2881 3163 
Q 2881 3666 2632 3958 
Q 2384 4250 1959 4250 
Q 1534 4250 1286 3958 
Q 1038 3666 1038 3163 
Q 1038 2656 1286 2365 
Q 1534 2075 1959 2075 
z
" transform="scale(0.015625)"/>
     </defs>
     <use xlink:href="#DejaVuSans-32"/>
     <use xlink:href="#DejaVuSans-37" x="63.623047"/>
     <use xlink:href="#DejaVuSans-39" x="127.246094"/>
     <use xlink:href="#DejaVuSans-70" x="190.869141"/>
     <use xlink:href="#DejaVuSans-78" x="254.345703"/>
    </g>
   </g>
   <g id="text_14">
    <!-- 97px -->
    <g style="fill: #0000ff" transform="translate(240.682115 226.575099)scale(0.09 -0.09)">
     <use xlink:href="#DejaVuSans-39"/>
     <use xlink:href="#DejaVuSans-37" x="63.623047"/>
     <use xlink:href="#DejaVuSans-70" x="127.246094"/>
     <use xlink:href="#DejaVuSans-78" x="190.722656"/>
    </g>
   </g>
   <g id="text_15">
    <!-- 76px -->
    <g style="fill: #0000ff" transform="translate(406.817277 243.54369)scale(0.09 -0.09)">
     <defs>
      <path id="DejaVuSans-36" d="M 2113 2584 
Q 1688 2584 1439 2293 
Q 1191 2003 1191 1497 
Q 1191 994 1439 701 
Q 1688 409 2113 409 
Q 2538 409 2786 701 
Q 3034 994 3034 1497 
Q 3034 2003 2786 2293 
Q 2538 2584 2113 2584 
z
M 3366 4563 
L 3366 3988 
Q 3128 4100 2886 4159 
Q 2644 4219 2406 4219 
Q 1781 4219 1451 3797 
Q 1122 3375 1075 2522 
Q 1259 2794 1537 2939 
Q 1816 3084 2150 3084 
Q 2853 3084 3261 2657 
Q 3669 2231 3669 1497 
Q 3669 778 3244 343 
Q 2819 -91 2113 -91 
Q 1303 -91 875 529 
Q 447 1150 447 2328 
Q 447 3434 972 4092 
Q 1497 4750 2381 4750 
Q 2619 4750 2861 4703 
Q 3103 4656 3366 4563 
z
" transform="scale(0.015625)"/>
     </defs>
     <use xlink:href="#DejaVuSans-37"/>
     <use xlink:href="#DejaVuSans-36" x="63.623047"/>
     <use xlink:href="#DejaVuSans-70" x="127.246094"/>
     <use xlink:href="#DejaVuSans-78" x="190.722656"/>
    </g>
   </g>
   <g id="text_16">
    <!-- (a) Pixel Error Convergence -->
    <g transform="translate(148.545865 43.92)scale(0.12 -0.12)">
     <defs>
      <path id="DejaVuSans-43" d="M 4122 4306 
L 4122 3641 
Q 3803 3938 3442 4084 
Q 3081 4231 2675 4231 
Q 1875 4231 1450 3742 
Q 1025 3253 1025 2328 
Q 1025 1406 1450 917 
Q 1875 428 2675 428 
Q 3081 428 3442 575 
Q 3803 722 4122 1019 
L 4122 359 
Q 3791 134 3420 21 
Q 3050 -91 2638 -91 
Q 1578 -91 968 557 
Q 359 1206 359 2328 
Q 359 3453 968 4101 
Q 1578 4750 2638 4750 
Q 3056 4750 3426 4639 
Q 3797 4528 4122 4306 
z
" transform="scale(0.015625)"/>
      <path id="DejaVuSans-76" d="M 191 3500 
L 800 3500 
L 1894 563 
L 2988 3500 
L 3597 3500 
L 2284 0 
L 1503 0 
L 191 3500 
z
" transform="scale(0.015625)"/>
      <path id="DejaVuSans-67" d="M 2906 1791 
Q 2906 2416 2648 2759 
Q 2391 3103 1925 3103 
Q 1463 3103 1205 2759 
Q 947 2416 947 1791 
Q 947 1169 1205 825 
Q 1463 481 1925 481 
Q 2391 481 2648 825 
Q 2906 1169 2906 1791 
z
M 3481 434 
Q 3481 -459 3084 -895 
Q 2688 -1331 1869 -1331 
Q 1566 -1331 1297 -1286 
Q 1028 -1241 775 -1147 
L 775 -588 
Q 1028 -725 1275 -790 
Q 1522 -856 1778 -856 
Q 2344 -856 2625 -561 
Q 2906 -266 2906 331 
L 2906 616 
Q 2728 306 2450 153 
Q 2172 0 1784 0 
Q 1141 0 747 490 
Q 353 981 353 1791 
Q 353 2603 747 3093 
Q 1141 3584 1784 3584 
Q 2172 3584 2450 3431 
Q 2728 3278 2906 2969 
L 2906 3500 
L 3481 3500 
L 3481 434 
z
" transform="scale(0.015625)"/>
     </defs>
     <use xlink:href="#DejaVuSans-28"/>
     <use xlink:href="#DejaVuSans-61" x="39.013672"/>
     <use xlink:href="#DejaVuSans-29" x="100.292969"/>
     <use xlink:href="#DejaVuSans-20" x="139.306641"/>
     <use xlink:href="#DejaVuSans-50" x="171.09375"/>
     <use xlink:href="#DejaVuSans-69" x="229.146484"/>
     <use xlink:href="#DejaVuSans-78" x="256.929688"/>
     <use xlink:href="#DejaVuSans-65" x="312.984375"/>
     <use xlink:href="#DejaVuSans-6c" x="374.507812"/>
     <use xlink:href="#DejaVuSans-20" x="402.291016"/>
     <use xlink:href="#DejaVuSans-45" x="434.078125"/>
     <use xlink:href="#DejaVuSans-72" x="497.261719"/>
     <use xlink:href="#DejaVuSans-72" x="536.625"/>
     <use xlink:href="#DejaVuSans-6f" x="575.488281"/>
     <use xlink:href="#DejaVuSans-72" x="636.669922"/>
     <use xlink:href="#DejaVuSans-20" x="677.783203"/>
     <use xlink:href="#DejaVuSans-43" x="709.570312"/>
     <use xlink:href="#DejaVuSans-6f" x="779.394531"/>
     <use xlink:href="#DejaVuSans-6e" x="840.576172"/>
     <use xlink:href="#DejaVuSans-76" x="903.955078"/>
     <use xlink:href="#DejaVuSans-65" x="963.134766"/>
     <use xlink:href="#DejaVuSans-72" x="1024.658203"/>
     <use xlink:href="#DejaVuSans-67" x="1064.021484"/>
     <use xlink:href="#DejaVuSans-65" x="1127.498047"/>
     <use xlink:href="#DejaVuSans-6e" x="1189.021484"/>
     <use xlink:href="#DejaVuSans-63" x="1252.400391"/>
     <use xlink:href="#DejaVuSans-65" x="1307.380859"/>
    </g>
   </g>
   <g id="legend_1">
    <g id="patch_7">
     <path d="M 272.864855 110.540625 
L 407.130793 110.540625 
Q 408.930793 110.540625 408.930793 108.740625 
L 408.930793 56.22 
Q 408.930793 54.42 407.130793 54.42 
L 272.864855 54.42 
Q 271.064855 54.42 271.064855 56.22 
L 271.064855 108.740625 
Q 271.064855 110.540625 272.864855 110.540625 
z
" style="fill: #ffffff; opacity: 0.8; stroke: #cccccc; stroke-linejoin: miter"/>
    </g>
    <g id="line2d_25">
     <path d="M 274.664855 61.708594 
L 283.664855 61.708594 
L 292.664855 61.708594 
" style="fill: none; stroke: #0000ff; stroke-width: 2; stroke-linecap: square"/>
     <g>
      <use xlink:href="#md809c283f8" x="283.664855" y="61.708594" style="fill: #0000ff; stroke: #0000ff"/>
     </g>
    </g>
    <g id="text_17">
     <!-- Total Error -->
     <g transform="translate(299.864855 64.858594)scale(0.09 -0.09)">
      <defs>
       <path id="DejaVuSans-54" d="M -19 4666 
L 3928 4666 
L 3928 4134 
L 2272 4134 
L 2272 0 
L 1638 0 
L 1638 4134 
L -19 4134 
L -19 4666 
z
" transform="scale(0.015625)"/>
      </defs>
      <use xlink:href="#DejaVuSans-54"/>
      <use xlink:href="#DejaVuSans-6f" x="44.083984"/>
      <use xlink:href="#DejaVuSans-74" x="105.265625"/>
      <use xlink:href="#DejaVuSans-61" x="144.474609"/>
      <use xlink:href="#DejaVuSans-6c" x="205.753906"/>
      <use xlink:href="#DejaVuSans-20" x="233.537109"/>
      <use xlink:href="#DejaVuSans-45" x="265.324219"/>
      <use xlink:href="#DejaVuSans-72" x="328.507812"/>
      <use xlink:href="#DejaVuSans-72" x="367.871094"/>
      <use xlink:href="#DejaVuSans-6f" x="406.734375"/>
      <use xlink:href="#DejaVuSans-72" x="467.916016"/>
     </g>
    </g>
    <g id="line2d_26">
     <path d="M 274.664855 74.958281 
L 283.664855 74.958281 
L 292.664855 74.958281 
" style="fill: none; stroke-dasharray: 5.55,2.4; stroke-dashoffset: 0; stroke: #ff0000; stroke-width: 1.5"/>
     <g>
      <use xlink:href="#m83178bd8b0" x="283.664855" y="74.958281" style="fill: #ff0000; stroke: #ff0000; stroke-linejoin: miter"/>
     </g>
    </g>
    <g id="text_18">
     <!-- |Error u| (horizontal) -->
     <g transform="translate(299.864855 78.108281)scale(0.09 -0.09)">
      <defs>
       <path id="DejaVuSans-7c" d="M 1344 4891 
L 1344 -1509 
L 813 -1509 
L 813 4891 
L 1344 4891 
z
" transform="scale(0.015625)"/>
       <path id="DejaVuSans-68" d="M 3513 2113 
L 3513 0 
L 2938 0 
L 2938 2094 
Q 2938 2591 2744 2837 
Q 2550 3084 2163 3084 
Q 1697 3084 1428 2787 
Q 1159 2491 1159 1978 
L 1159 0 
L 581 0 
L 581 4863 
L 1159 4863 
L 1159 2956 
Q 1366 3272 1645 3428 
Q 1925 3584 2291 3584 
Q 2894 3584 3203 3211 
Q 3513 2838 3513 2113 
z
" transform="scale(0.015625)"/>
       <path id="DejaVuSans-7a" d="M 353 3500 
L 3084 3500 
L 3084 2975 
L 922 459 
L 3084 459 
L 3084 0 
L 275 0 
L 275 525 
L 2438 3041 
L 353 3041 
L 353 3500 
z
" transform="scale(0.015625)"/>
      </defs>
      <use xlink:href="#DejaVuSans-7c"/>
      <use xlink:href="#DejaVuSans-45" x="33.691406"/>
      <use xlink:href="#DejaVuSans-72" x="96.875"/>
      <use xlink:href="#DejaVuSans-72" x="136.238281"/>
      <use xlink:href="#DejaVuSans-6f" x="175.101562"/>
      <use xlink:href="#DejaVuSans-72" x="236.283203"/>
      <use xlink:href="#DejaVuSans-20" x="277.396484"/>
      <use xlink:href="#DejaVuSans-75" x="309.183594"/>
      <use xlink:href="#DejaVuSans-7c" x="372.5625"/>
      <use xlink:href="#DejaVuSans-20" x="406.253906"/>
      <use xlink:href="#DejaVuSans-28" x="438.041016"/>
      <use xlink:href="#DejaVuSans-68" x="477.054688"/>
      <use xlink:href="#DejaVuSans-6f" x="540.433594"/>
      <use xlink:href="#DejaVuSans-72" x="601.615234"/>
      <use xlink:href="#DejaVuSans-69" x="642.728516"/>
      <use xlink:href="#DejaVuSans-7a" x="670.511719"/>
      <use xlink:href="#DejaVuSans-6f" x="723.001953"/>
      <use xlink:href="#DejaVuSans-6e" x="784.183594"/>
      <use xlink:href="#DejaVuSans-74" x="847.5625"/>
      <use xlink:href="#DejaVuSans-61" x="886.771484"/>
      <use xlink:href="#DejaVuSans-6c" x="948.050781"/>
      <use xlink:href="#DejaVuSans-29" x="975.833984"/>
     </g>
    </g>
    <g id="line2d_27">
     <path d="M 274.664855 88.458281 
L 283.664855 88.458281 
L 292.664855 88.458281 
" style="fill: none; stroke-dasharray: 5.55,2.4; stroke-dashoffset: 0; stroke: #008000; stroke-width: 1.5"/>
     <g>
      <use xlink:href="#m98b17a47dd" x="283.664855" y="88.458281" style="fill: #008000; stroke: #008000; stroke-linejoin: miter"/>
     </g>
    </g>
    <g id="text_19">
     <!-- |Error v| (vertical) -->
     <g transform="translate(299.864855 91.608281)scale(0.09 -0.09)">
      <use xlink:href="#DejaVuSans-7c"/>
      <use xlink:href="#DejaVuSans-45" x="33.691406"/>
      <use xlink:href="#DejaVuSans-72" x="96.875"/>
      <use xlink:href="#DejaVuSans-72" x="136.238281"/>
      <use xlink:href="#DejaVuSans-6f" x="175.101562"/>
      <use xlink:href="#DejaVuSans-72" x="236.283203"/>
      <use xlink:href="#DejaVuSans-20" x="277.396484"/>
      <use xlink:href="#DejaVuSans-76" x="309.183594"/>
      <use xlink:href="#DejaVuSans-7c" x="368.363281"/>
      <use xlink:href="#DejaVuSans-20" x="402.054688"/>
      <use xlink:href="#DejaVuSans-28" x="433.841797"/>
      <use xlink:href="#DejaVuSans-76" x="472.855469"/>
      <use xlink:href="#DejaVuSans-65" x="532.035156"/>
      <use xlink:href="#DejaVuSans-72" x="593.558594"/>
      <use xlink:href="#DejaVuSans-74" x="634.671875"/>
      <use xlink:href="#DejaVuSans-69" x="673.880859"/>
      <use xlink:href="#DejaVuSans-63" x="701.664062"/>
      <use xlink:href="#DejaVuSans-61" x="756.644531"/>
      <use xlink:href="#DejaVuSans-6c" x="817.923828"/>
      <use xlink:href="#DejaVuSans-29" x="845.707031"/>
     </g>
    </g>
    <g id="line2d_28">
     <path d="M 274.664855 101.918906 
L 283.664855 101.918906 
L 292.664855 101.918906 
" style="fill: none; stroke-dasharray: 1.5,2.475; stroke-dashoffset: 0; stroke: #808080; stroke-width: 1.5"/>
    </g>
    <g id="text_20">
     <!-- Target threshold (20px) -->
     <g transform="translate(299.864855 105.068906)scale(0.09 -0.09)">
      <defs>
       <path id="DejaVuSans-64" d="M 2906 2969 
L 2906 4863 
L 3481 4863 
L 3481 0 
L 2906 0 
L 2906 525 
Q 2725 213 2448 61 
Q 2172 -91 1784 -91 
Q 1150 -91 751 415 
Q 353 922 353 1747 
Q 353 2572 751 3078 
Q 1150 3584 1784 3584 
Q 2172 3584 2448 3432 
Q 2725 3281 2906 2969 
z
M 947 1747 
Q 947 1113 1208 752 
Q 1469 391 1925 391 
Q 2381 391 2643 752 
Q 2906 1113 2906 1747 
Q 2906 2381 2643 2742 
Q 2381 3103 1925 3103 
Q 1469 3103 1208 2742 
Q 947 2381 947 1747 
z
" transform="scale(0.015625)"/>
      </defs>
      <use xlink:href="#DejaVuSans-54"/>
      <use xlink:href="#DejaVuSans-61" x="44.583984"/>
      <use xlink:href="#DejaVuSans-72" x="105.863281"/>
      <use xlink:href="#DejaVuSans-67" x="145.226562"/>
      <use xlink:href="#DejaVuSans-65" x="208.703125"/>
      <use xlink:href="#DejaVuSans-74" x="270.226562"/>
      <use xlink:href="#DejaVuSans-20" x="309.435547"/>
      <use xlink:href="#DejaVuSans-74" x="341.222656"/>
      <use xlink:href="#DejaVuSans-68" x="380.431641"/>
      <use xlink:href="#DejaVuSans-72" x="443.810547"/>
      <use xlink:href="#DejaVuSans-65" x="482.673828"/>
      <use xlink:href="#DejaVuSans-73" x="544.197266"/>
      <use xlink:href="#DejaVuSans-68" x="596.296875"/>
      <use xlink:href="#DejaVuSans-6f" x="659.675781"/>
      <use xlink:href="#DejaVuSans-6c" x="720.857422"/>
      <use xlink:href="#DejaVuSans-64" x="748.640625"/>
      <use xlink:href="#DejaVuSans-20" x="812.117188"/>
      <use xlink:href="#DejaVuSans-28" x="843.904297"/>
      <use xlink:href="#DejaVuSans-32" x="882.917969"/>
      <use xlink:href="#DejaVuSans-30" x="946.541016"/>
      <use xlink:href="#DejaVuSans-70" x="1010.164062"/>
      <use xlink:href="#DejaVuSans-78" x="1073.640625"/>
      <use xlink:href="#DejaVuSans-29" x="1132.820312"/>
     </g>
    </g>
   </g>
  </g>
  <g id="axes_2">
   <g id="patch_8">
    <path d="M 491.776298 317.32 
L 841.453221 317.32 
L 841.453221 49.92 
L 491.776298 49.92 
z
" style="fill: #ffffff"/>
   </g>
   <g id="patch_9">
    <path d="M 502.060914 60.204615 
L 831.168606 60.204615 
L 831.168606 307.035385 
L 502.060914 307.035385 
z
" clip-path="url(#p889240c166)" style="fill: #d3d3d3; opacity: 0.3; stroke: #000000; stroke-width: 2; stroke-linejoin: miter"/>
   </g>
   <g id="matplotlib.axis_3">
    <g id="xtick_4">
     <g id="line2d_29">
      <path d="M 502.060914 317.32 
L 502.060914 49.92 
" clip-path="url(#p889240c166)" style="fill: none; stroke: #b0b0b0; stroke-opacity: 0.3; stroke-width: 0.8; stroke-linecap: square"/>
     </g>
     <g id="line2d_30">
      <g>
       <use xlink:href="#m3abd547c47" x="502.060914" y="317.32" style="stroke: #000000; stroke-width: 0.8"/>
      </g>
     </g>
     <g id="text_21">
      <!-- 0 -->
      <g transform="translate(498.879664 331.918437)scale(0.1 -0.1)">
       <use xlink:href="#DejaVuSans-30"/>
      </g>
     </g>
    </g>
    <g id="xtick_5">
     <g id="line2d_31">
      <path d="M 553.483991 317.32 
L 553.483991 49.92 
" clip-path="url(#p889240c166)" style="fill: none; stroke: #b0b0b0; stroke-opacity: 0.3; stroke-width: 0.8; stroke-linecap: square"/>
     </g>
     <g id="line2d_32">
      <g>
       <use xlink:href="#m3abd547c47" x="553.483991" y="317.32" style="stroke: #000000; stroke-width: 0.8"/>
      </g>
     </g>
     <g id="text_22">
      <!-- 100 -->
      <g transform="translate(543.940241 331.918437)scale(0.1 -0.1)">
       <use xlink:href="#DejaVuSans-31"/>
       <use xlink:href="#DejaVuSans-30" x="63.623047"/>
       <use xlink:href="#DejaVuSans-30" x="127.246094"/>
      </g>
     </g>
    </g>
    <g id="xtick_6">
     <g id="line2d_33">
      <path d="M 604.907068 317.32 
L 604.907068 49.92 
" clip-path="url(#p889240c166)" style="fill: none; stroke: #b0b0b0; stroke-opacity: 0.3; stroke-width: 0.8; stroke-linecap: square"/>
     </g>
     <g id="line2d_34">
      <g>
       <use xlink:href="#m3abd547c47" x="604.907068" y="317.32" style="stroke: #000000; stroke-width: 0.8"/>
      </g>
     </g>
     <g id="text_23">
      <!-- 200 -->
      <g transform="translate(595.363318 331.918437)scale(0.1 -0.1)">
       <use xlink:href="#DejaVuSans-32"/>
       <use xlink:href="#DejaVuSans-30" x="63.623047"/>
       <use xlink:href="#DejaVuSans-30" x="127.246094"/>
      </g>
     </g>
    </g>
    <g id="xtick_7">
     <g id="line2d_35">
      <path d="M 656.330144 317.32 
L 656.330144 49.92 
" clip-path="url(#p889240c166)" style="fill: none; stroke: #b0b0b0; stroke-opacity: 0.3; stroke-width: 0.8; stroke-linecap: square"/>
     </g>
     <g id="line2d_36">
      <g>
       <use xlink:href="#m3abd547c47" x="656.330144" y="317.32" style="stroke: #000000; stroke-width: 0.8"/>
      </g>
     </g>
     <g id="text_24">
      <!-- 300 -->
      <g transform="translate(646.786394 331.918437)scale(0.1 -0.1)">
       <use xlink:href="#DejaVuSans-33"/>
       <use xlink:href="#DejaVuSans-30" x="63.623047"/>
       <use xlink:href="#DejaVuSans-30" x="127.246094"/>
      </g>
     </g>
    </g>
    <g id="xtick_8">
     <g id="line2d_37">
      <path d="M 707.753221 317.32 
L 707.753221 49.92 
" clip-path="url(#p889240c166)" style="fill: none; stroke: #b0b0b0; stroke-opacity: 0.3; stroke-width: 0.8; stroke-linecap: square"/>
     </g>
     <g id="line2d_38">
      <g>
       <use xlink:href="#m3abd547c47" x="707.753221" y="317.32" style="stroke: #000000; stroke-width: 0.8"/>
      </g>
     </g>
     <g id="text_25">
      <!-- 400 -->
      <g transform="translate(698.209471 331.918437)scale(0.1 -0.1)">
       <defs>
        <path id="DejaVuSans-34" d="M 2419 4116 
L 825 1625 
L 2419 1625 
L 2419 4116 
z
M 2253 4666 
L 3047 4666 
L 3047 1625 
L 3713 1625 
L 3713 1100 
L 3047 1100 
L 3047 0 
L 2419 0 
L 2419 1100 
L 313 1100 
L 313 1709 
L 2253 4666 
z
" transform="scale(0.015625)"/>
       </defs>
       <use xlink:href="#DejaVuSans-34"/>
       <use xlink:href="#DejaVuSans-30" x="63.623047"/>
       <use xlink:href="#DejaVuSans-30" x="127.246094"/>
      </g>
     </g>
    </g>
    <g id="xtick_9">
     <g id="line2d_39">
      <path d="M 759.176298 317.32 
L 759.176298 49.92 
" clip-path="url(#p889240c166)" style="fill: none; stroke: #b0b0b0; stroke-opacity: 0.3; stroke-width: 0.8; stroke-linecap: square"/>
     </g>
     <g id="line2d_40">
      <g>
       <use xlink:href="#m3abd547c47" x="759.176298" y="317.32" style="stroke: #000000; stroke-width: 0.8"/>
      </g>
     </g>
     <g id="text_26">
      <!-- 500 -->
      <g transform="translate(749.632548 331.918437)scale(0.1 -0.1)">
       <use xlink:href="#DejaVuSans-35"/>
       <use xlink:href="#DejaVuSans-30" x="63.623047"/>
       <use xlink:href="#DejaVuSans-30" x="127.246094"/>
      </g>
     </g>
    </g>
    <g id="xtick_10">
     <g id="line2d_41">
      <path d="M 810.599375 317.32 
L 810.599375 49.92 
" clip-path="url(#p889240c166)" style="fill: none; stroke: #b0b0b0; stroke-opacity: 0.3; stroke-width: 0.8; stroke-linecap: square"/>
     </g>
     <g id="line2d_42">
      <g>
       <use xlink:href="#m3abd547c47" x="810.599375" y="317.32" style="stroke: #000000; stroke-width: 0.8"/>
      </g>
     </g>
     <g id="text_27">
      <!-- 600 -->
      <g transform="translate(801.055625 331.918437)scale(0.1 -0.1)">
       <use xlink:href="#DejaVuSans-36"/>
       <use xlink:href="#DejaVuSans-30" x="63.623047"/>
       <use xlink:href="#DejaVuSans-30" x="127.246094"/>
      </g>
     </g>
    </g>
    <g id="text_28">
     <!-- u (pixels) -->
     <g transform="translate(641.209057 346.356406)scale(0.11 -0.11)">
      <use xlink:href="#DejaVuSans-75"/>
      <use xlink:href="#DejaVuSans-20" x="63.378906"/>
      <use xlink:href="#DejaVuSans-28" x="95.166016"/>
      <use xlink:href="#DejaVuSans-70" x="134.179688"/>
      <use xlink:href="#DejaVuSans-69" x="197.65625"/>
      <use xlink:href="#DejaVuSans-78" x="225.439453"/>
      <use xlink:href="#DejaVuSans-65" x="281.494141"/>
      <use xlink:href="#DejaVuSans-6c" x="343.017578"/>
      <use xlink:href="#DejaVuSans-73" x="370.800781"/>
      <use xlink:href="#DejaVuSans-29" x="422.900391"/>
     </g>
    </g>
   </g>
   <g id="matplotlib.axis_4">
    <g id="ytick_8">
     <g id="line2d_43">
      <path d="M 491.776298 60.204615 
L 841.453221 60.204615 
" clip-path="url(#p889240c166)" style="fill: none; stroke: #b0b0b0; stroke-opacity: 0.3; stroke-width: 0.8; stroke-linecap: square"/>
     </g>
     <g id="line2d_44">
      <g>
       <use xlink:href="#m093383d0ac" x="491.776298" y="60.204615" style="stroke: #000000; stroke-width: 0.8"/>
      </g>
     </g>
     <g id="text_29">
      <!-- 0 -->
      <g transform="translate(478.413798 64.003834)scale(0.1 -0.1)">
       <use xlink:href="#DejaVuSans-30"/>
      </g>
     </g>
    </g>
    <g id="ytick_9">
     <g id="line2d_45">
      <path d="M 491.776298 111.627692 
L 841.453221 111.627692 
" clip-path="url(#p889240c166)" style="fill: none; stroke: #b0b0b0; stroke-opacity: 0.3; stroke-width: 0.8; stroke-linecap: square"/>
     </g>
     <g id="line2d_46">
      <g>
       <use xlink:href="#m093383d0ac" x="491.776298" y="111.627692" style="stroke: #000000; stroke-width: 0.8"/>
      </g>
     </g>
     <g id="text_30">
      <!-- 100 -->
      <g transform="translate(465.688798 115.426911)scale(0.1 -0.1)">
       <use xlink:href="#DejaVuSans-31"/>
       <use xlink:href="#DejaVuSans-30" x="63.623047"/>
       <use xlink:href="#DejaVuSans-30" x="127.246094"/>
      </g>
     </g>
    </g>
    <g id="ytick_10">
     <g id="line2d_47">
      <path d="M 491.776298 163.050769 
L 841.453221 163.050769 
" clip-path="url(#p889240c166)" style="fill: none; stroke: #b0b0b0; stroke-opacity: 0.3; stroke-width: 0.8; stroke-linecap: square"/>
     </g>
     <g id="line2d_48">
      <g>
       <use xlink:href="#m093383d0ac" x="491.776298" y="163.050769" style="stroke: #000000; stroke-width: 0.8"/>
      </g>
     </g>
     <g id="text_31">
      <!-- 200 -->
      <g transform="translate(465.688798 166.849988)scale(0.1 -0.1)">
       <use xlink:href="#DejaVuSans-32"/>
       <use xlink:href="#DejaVuSans-30" x="63.623047"/>
       <use xlink:href="#DejaVuSans-30" x="127.246094"/>
      </g>
     </g>
    </g>
    <g id="ytick_11">
     <g id="line2d_49">
      <path d="M 491.776298 214.473846 
L 841.453221 214.473846 
" clip-path="url(#p889240c166)" style="fill: none; stroke: #b0b0b0; stroke-opacity: 0.3; stroke-width: 0.8; stroke-linecap: square"/>
     </g>
     <g id="line2d_50">
      <g>
       <use xlink:href="#m093383d0ac" x="491.776298" y="214.473846" style="stroke: #000000; stroke-width: 0.8"/>
      </g>
     </g>
     <g id="text_32">
      <!-- 300 -->
      <g transform="translate(465.688798 218.273065)scale(0.1 -0.1)">
       <use xlink:href="#DejaVuSans-33"/>
       <use xlink:href="#DejaVuSans-30" x="63.623047"/>
       <use xlink:href="#DejaVuSans-30" x="127.246094"/>
      </g>
     </g>
    </g>
    <g id="ytick_12">
     <g id="line2d_51">
      <path d="M 491.776298 265.896923 
L 841.453221 265.896923 
" clip-path="url(#p889240c166)" style="fill: none; stroke: #b0b0b0; stroke-opacity: 0.3; stroke-width: 0.8; stroke-linecap: square"/>
     </g>
     <g id="line2d_52">
      <g>
       <use xlink:href="#m093383d0ac" x="491.776298" y="265.896923" style="stroke: #000000; stroke-width: 0.8"/>
      </g>
     </g>
     <g id="text_33">
      <!-- 400 -->
      <g transform="translate(465.688798 269.696142)scale(0.1 -0.1)">
       <use xlink:href="#DejaVuSans-34"/>
       <use xlink:href="#DejaVuSans-30" x="63.623047"/>
       <use xlink:href="#DejaVuSans-30" x="127.246094"/>
      </g>
     </g>
    </g>
    <g id="ytick_13">
     <g id="line2d_53">
      <path d="M 491.776298 317.32 
L 841.453221 317.32 
" clip-path="url(#p889240c166)" style="fill: none; stroke: #b0b0b0; stroke-opacity: 0.3; stroke-width: 0.8; stroke-linecap: square"/>
     </g>
     <g id="line2d_54">
      <g>
       <use xlink:href="#m093383d0ac" x="491.776298" y="317.32" style="stroke: #000000; stroke-width: 0.8"/>
      </g>
     </g>
     <g id="text_34">
      <!-- 500 -->
      <g transform="translate(465.688798 321.119219)scale(0.1 -0.1)">
       <use xlink:href="#DejaVuSans-35"/>
       <use xlink:href="#DejaVuSans-30" x="63.623047"/>
       <use xlink:href="#DejaVuSans-30" x="127.246094"/>
      </g>
     </g>
    </g>
    <g id="text_35">
     <!-- v (pixels) -->
     <g transform="translate(459.401142 208.795391)rotate(-90)scale(0.11 -0.11)">
      <use xlink:href="#DejaVuSans-76"/>
      <use xlink:href="#DejaVuSans-20" x="59.179688"/>
      <use xlink:href="#DejaVuSans-28" x="90.966797"/>
      <use xlink:href="#DejaVuSans-70" x="129.980469"/>
      <use xlink:href="#DejaVuSans-69" x="193.457031"/>
      <use xlink:href="#DejaVuSans-78" x="221.240234"/>
      <use xlink:href="#DejaVuSans-65" x="277.294922"/>
      <use xlink:href="#DejaVuSans-6c" x="338.818359"/>
      <use xlink:href="#DejaVuSans-73" x="366.601562"/>
      <use xlink:href="#DejaVuSans-29" x="418.701172"/>
     </g>
    </g>
   </g>
   <g id="line2d_55">
    <path d="M 491.776298 183.62 
L 841.453221 183.62 
" clip-path="url(#p889240c166)" style="fill: none; stroke-dasharray: 3.7,1.6; stroke-dashoffset: 0; stroke: #808080; stroke-opacity: 0.5"/>
   </g>
   <g id="line2d_56">
    <path d="M 666.61476 317.32 
L 666.61476 49.92 
" clip-path="url(#p889240c166)" style="fill: none; stroke-dasharray: 3.7,1.6; stroke-dashoffset: 0; stroke: #808080; stroke-opacity: 0.5"/>
   </g>
   <g id="line2d_57">
    <defs>
     <path id="m44d30d05db" d="M -10 0 
L 10 0 
M 0 10 
L 0 -10 
" style="stroke: #000000; stroke-width: 2"/>
    </defs>
    <g clip-path="url(#p889240c166)">
     <use xlink:href="#m44d30d05db" x="666.61476" y="183.62" style="stroke: #000000; stroke-width: 2"/>
    </g>
   </g>
   <g id="line2d_58">
    <defs>
     <path id="mad011262b5" d="M 0 6 
C 1.591219 6 3.117479 5.367802 4.242641 4.242641 
C 5.367802 3.117479 6 1.591219 6 0 
C 6 -1.591219 5.367802 -3.117479 4.242641 -4.242641 
C 3.117479 -5.367802 1.591219 -6 0 -6 
C -1.591219 -6 -3.117479 -5.367802 -4.242641 -4.242641 
C -5.367802 -3.117479 -6 -1.591219 -6 0 
C -6 1.591219 -5.367802 3.117479 -4.242641 4.242641 
C -3.117479 5.367802 -1.591219 6 0 6 
z
" style="stroke: #000000; stroke-width: 1.5"/>
    </defs>
    <g clip-path="url(#p889240c166)">
     <use xlink:href="#mad011262b5" x="534.971683" y="240.699615" style="fill: #ff0000; stroke: #000000; stroke-width: 1.5"/>
    </g>
   </g>
   <g id="line2d_59">
    <defs>
     <path id="mbb9f3df17c" d="M 0 6 
C 1.591219 6 3.117479 5.367802 4.242641 4.242641 
C 5.367802 3.117479 6 1.591219 6 0 
C 6 -1.591219 5.367802 -3.117479 4.242641 -4.242641 
C 3.117479 -5.367802 1.591219 -6 0 -6 
C -1.591219 -6 -3.117479 -5.367802 -4.242641 -4.242641 
C -5.367802 -3.117479 -6 -1.591219 -6 0 
C -6 1.591219 -5.367802 3.117479 -4.242641 4.242641 
C -3.117479 5.367802 -1.591219 6 0 6 
z
" style="stroke: #000000; stroke-width: 1.5"/>
    </defs>
    <g clip-path="url(#p889240c166)">
     <use xlink:href="#mbb9f3df17c" x="672.271298" y="232.986154" style="fill: #ffa500; stroke: #000000; stroke-width: 1.5"/>
    </g>
   </g>
   <g id="line2d_60">
    <defs>
     <path id="m62220d24e8" d="M 0 6 
C 1.591219 6 3.117479 5.367802 4.242641 4.242641 
C 5.367802 3.117479 6 1.591219 6 0 
C 6 -1.591219 5.367802 -3.117479 4.242641 -4.242641 
C 3.117479 -5.367802 1.591219 -6 0 -6 
C -1.591219 -6 -3.117479 -5.367802 -4.242641 -4.242641 
C -5.367802 -3.117479 -6 -1.591219 -6 0 
C -6 1.591219 -5.367802 3.117479 -4.242641 4.242641 
C -3.117479 5.367802 -1.591219 6 0 6 
z
" style="stroke: #000000; stroke-width: 1.5"/>
    </defs>
    <g clip-path="url(#p889240c166)">
     <use xlink:href="#m62220d24e8" x="663.015144" y="222.701538" style="fill: #008000; stroke: #000000; stroke-width: 1.5"/>
    </g>
   </g>
   <g id="line2d_61">
    <path d="M 663.015144 222.701538 
L 666.61476 183.62 
" clip-path="url(#p889240c166)" style="fill: none; stroke-dasharray: 1.5,2.475; stroke-dashoffset: 0; stroke: #ff0000; stroke-opacity: 0.7; stroke-width: 1.5"/>
   </g>
   <g id="line2d_62"/>
   <g id="line2d_63"/>
   <g id="line2d_64"/>
   <g id="line2d_65"/>
   <g id="patch_10">
    <path d="M 491.776298 317.32 
L 491.776298 49.92 
" style="fill: none; stroke: #000000; stroke-width: 0.8; stroke-linejoin: miter; stroke-linecap: square"/>
   </g>
   <g id="patch_11">
    <path d="M 841.453221 317.32 
L 841.453221 49.92 
" style="fill: none; stroke: #000000; stroke-width: 0.8; stroke-linejoin: miter; stroke-linecap: square"/>
   </g>
   <g id="patch_12">
    <path d="M 491.776298 317.32 
L 841.453221 317.32 
" style="fill: none; stroke: #000000; stroke-width: 0.8; stroke-linejoin: miter; stroke-linecap: square"/>
   </g>
   <g id="patch_13">
    <path d="M 491.776298 49.92 
L 841.453221 49.92 
" style="fill: none; stroke: #000000; stroke-width: 0.8; stroke-linejoin: miter; stroke-linecap: square"/>
   </g>
   <g id="text_36">
    <g id="patch_14">
     <path d="M 549.971683 265.271334 
L 591.34637 265.271334 
Q 594.04637 265.271334 594.04637 262.571334 
L 594.04637 243.78299 
Q 594.04637 241.08299 591.34637 241.08299 
L 549.971683 241.08299 
Q 547.271683 241.08299 547.271683 243.78299 
L 547.271683 262.571334 
Q 547.271683 265.271334 549.971683 265.271334 
z
" style="fill: #ffffff; opacity: 0.8; stroke: #000000; stroke-linejoin: miter"/>
    </g>
    <!-- Initial -->
    <g transform="translate(549.971683 250.621584)scale(0.09 -0.09)">
     <use xlink:href="#DejaVuSans-49"/>
     <use xlink:href="#DejaVuSans-6e" x="29.492188"/>
     <use xlink:href="#DejaVuSans-69" x="92.871094"/>
     <use xlink:href="#DejaVuSans-74" x="120.654297"/>
     <use xlink:href="#DejaVuSans-69" x="159.863281"/>
     <use xlink:href="#DejaVuSans-61" x="187.646484"/>
     <use xlink:href="#DejaVuSans-6c" x="248.925781"/>
    </g>
    <!-- (64, 351) -->
    <g transform="translate(549.971683 260.699615)scale(0.09 -0.09)">
     <defs>
      <path id="DejaVuSans-2c" d="M 750 794 
L 1409 794 
L 1409 256 
L 897 -744 
L 494 -744 
L 750 256 
L 750 794 
z
" transform="scale(0.015625)"/>
     </defs>
     <use xlink:href="#DejaVuSans-28"/>
     <use xlink:href="#DejaVuSans-36" x="39.013672"/>
     <use xlink:href="#DejaVuSans-34" x="102.636719"/>
     <use xlink:href="#DejaVuSans-2c" x="166.259766"/>
     <use xlink:href="#DejaVuSans-20" x="198.046875"/>
     <use xlink:href="#DejaVuSans-33" x="229.833984"/>
     <use xlink:href="#DejaVuSans-35" x="293.457031"/>
     <use xlink:href="#DejaVuSans-31" x="357.080078"/>
     <use xlink:href="#DejaVuSans-29" x="420.703125"/>
    </g>
   </g>
   <g id="text_37">
    <g id="patch_15">
     <path d="M 682.271298 227.557873 
L 729.372236 227.557873 
Q 732.072236 227.557873 732.072236 224.857873 
L 732.072236 206.069529 
Q 732.072236 203.369529 729.372236 203.369529 
L 682.271298 203.369529 
Q 679.571298 203.369529 679.571298 206.069529 
L 679.571298 224.857873 
Q 679.571298 227.557873 682.271298 227.557873 
z
" style="fill: #ffffff; opacity: 0.8; stroke: #000000; stroke-linejoin: miter"/>
    </g>
    <!-- Iter 1 -->
    <g transform="translate(682.271298 212.908123)scale(0.09 -0.09)">
     <use xlink:href="#DejaVuSans-49"/>
     <use xlink:href="#DejaVuSans-74" x="29.492188"/>
     <use xlink:href="#DejaVuSans-65" x="68.701172"/>
     <use xlink:href="#DejaVuSans-72" x="130.224609"/>
     <use xlink:href="#DejaVuSans-20" x="171.337891"/>
     <use xlink:href="#DejaVuSans-31" x="203.125"/>
    </g>
    <!-- (331, 336) -->
    <g transform="translate(682.271298 222.986154)scale(0.09 -0.09)">
     <use xlink:href="#DejaVuSans-28"/>
     <use xlink:href="#DejaVuSans-33" x="39.013672"/>
     <use xlink:href="#DejaVuSans-33" x="102.636719"/>
     <use xlink:href="#DejaVuSans-31" x="166.259766"/>
     <use xlink:href="#DejaVuSans-2c" x="229.882812"/>
     <use xlink:href="#DejaVuSans-20" x="261.669922"/>
     <use xlink:href="#DejaVuSans-33" x="293.457031"/>
     <use xlink:href="#DejaVuSans-33" x="357.080078"/>
     <use xlink:href="#DejaVuSans-36" x="420.703125"/>
     <use xlink:href="#DejaVuSans-29" x="484.326172"/>
    </g>
   </g>
   <g id="text_38">
    <g id="patch_16">
     <path d="M 673.015144 217.273257 
L 720.116082 217.273257 
Q 722.816082 217.273257 722.816082 214.573257 
L 722.816082 195.784913 
Q 722.816082 193.084913 720.116082 193.084913 
L 673.015144 193.084913 
Q 670.315144 193.084913 670.315144 195.784913 
L 670.315144 214.573257 
Q 670.315144 217.273257 673.015144 217.273257 
z
" style="fill: #ffffff; opacity: 0.8; stroke: #000000; stroke-linejoin: miter"/>
    </g>
    <!-- Iter 2 -->
    <g transform="translate(673.015144 202.623507)scale(0.09 -0.09)">
     <use xlink:href="#DejaVuSans-49"/>
     <use xlink:href="#DejaVuSans-74" x="29.492188"/>
     <use xlink:href="#DejaVuSans-65" x="68.701172"/>
     <use xlink:href="#DejaVuSans-72" x="130.224609"/>
     <use xlink:href="#DejaVuSans-20" x="171.337891"/>
     <use xlink:href="#DejaVuSans-32" x="203.125"/>
    </g>
    <!-- (313, 316) -->
    <g transform="translate(673.015144 212.701538)scale(0.09 -0.09)">
     <use xlink:href="#DejaVuSans-28"/>
     <use xlink:href="#DejaVuSans-33" x="39.013672"/>
     <use xlink:href="#DejaVuSans-31" x="102.636719"/>
     <use xlink:href="#DejaVuSans-33" x="166.259766"/>
     <use xlink:href="#DejaVuSans-2c" x="229.882812"/>
     <use xlink:href="#DejaVuSans-20" x="261.669922"/>
     <use xlink:href="#DejaVuSans-33" x="293.457031"/>
     <use xlink:href="#DejaVuSans-31" x="357.080078"/>
     <use xlink:href="#DejaVuSans-36" x="420.703125"/>
     <use xlink:href="#DejaVuSans-29" x="484.326172"/>
    </g>
   </g>
   <g id="patch_17">
    <path d="M 536.970338 240.587331 
Q 603.623651 236.842763 668.044416 233.223619 
" style="fill: none; stroke: #0000ff; stroke-width: 2; stroke-linecap: round"/>
    <path d="M 663.938531 231.451133 
L 668.044416 233.223619 
L 664.162896 235.444836 
" style="fill: none; stroke: #0000ff; stroke-width: 2; stroke-linecap: round"/>
   </g>
   <g id="patch_18">
    <path d="M 670.931235 231.497195 
Q 667.642849 227.843433 665.850314 225.851727 
" style="fill: none; stroke: #0000ff; stroke-width: 2; stroke-linecap: round"/>
    <path d="M 667.039585 230.162833 
L 665.850314 225.851727 
L 670.012761 227.486974 
" style="fill: none; stroke: #0000ff; stroke-width: 2; stroke-linecap: round"/>
   </g>
   <g id="text_39">
    <g id="patch_19">
     <path d="M 664.814952 206.424519 
L 710.876202 206.424519 
Q 712.476202 206.424519 712.476202 204.824519 
L 712.476202 197.082019 
Q 712.476202 195.482019 710.876202 195.482019 
L 664.814952 195.482019 
Q 663.214952 195.482019 663.214952 197.082019 
L 663.214952 204.824519 
Q 663.214952 206.424519 664.814952 206.424519 
z
" style="fill: #ffffff; opacity: 0.7; stroke: #000000; stroke-linejoin: miter"/>
    </g>
    <!-- error=76px -->
    <g style="fill: #ff0000" transform="translate(664.814952 203.160769)scale(0.08 -0.08)">
     <defs>
      <path id="DejaVuSans-3d" d="M 678 2906 
L 4684 2906 
L 4684 2381 
L 678 2381 
L 678 2906 
z
M 678 1631 
L 4684 1631 
L 4684 1100 
L 678 1100 
L 678 1631 
z
" transform="scale(0.015625)"/>
     </defs>
     <use xlink:href="#DejaVuSans-65"/>
     <use xlink:href="#DejaVuSans-72" x="61.523438"/>
     <use xlink:href="#DejaVuSans-72" x="100.886719"/>
     <use xlink:href="#DejaVuSans-6f" x="139.75"/>
     <use xlink:href="#DejaVuSans-72" x="200.931641"/>
     <use xlink:href="#DejaVuSans-3d" x="242.044922"/>
     <use xlink:href="#DejaVuSans-37" x="325.833984"/>
     <use xlink:href="#DejaVuSans-36" x="389.457031"/>
     <use xlink:href="#DejaVuSans-70" x="453.080078"/>
     <use xlink:href="#DejaVuSans-78" x="516.556641"/>
    </g>
   </g>
   <g id="text_40">
    <!-- (b) Pixel Trajectory in Image Plane -->
    <g transform="translate(564.377572 43.92)scale(0.12 -0.12)">
     <defs>
      <path id="DejaVuSans-62" d="M 3116 1747 
Q 3116 2381 2855 2742 
Q 2594 3103 2138 3103 
Q 1681 3103 1420 2742 
Q 1159 2381 1159 1747 
Q 1159 1113 1420 752 
Q 1681 391 2138 391 
Q 2594 391 2855 752 
Q 3116 1113 3116 1747 
z
M 1159 2969 
Q 1341 3281 1617 3432 
Q 1894 3584 2278 3584 
Q 2916 3584 3314 3078 
Q 3713 2572 3713 1747 
Q 3713 922 3314 415 
Q 2916 -91 2278 -91 
Q 1894 -91 1617 61 
Q 1341 213 1159 525 
L 1159 0 
L 581 0 
L 581 4863 
L 1159 4863 
L 1159 2969 
z
" transform="scale(0.015625)"/>
      <path id="DejaVuSans-6a" d="M 603 3500 
L 1178 3500 
L 1178 -63 
Q 1178 -731 923 -1031 
Q 669 -1331 103 -1331 
L -116 -1331 
L -116 -844 
L 38 -844 
Q 366 -844 484 -692 
Q 603 -541 603 -63 
L 603 3500 
z
M 603 4863 
L 1178 4863 
L 1178 4134 
L 603 4134 
L 603 4863 
z
" transform="scale(0.015625)"/>
      <path id="DejaVuSans-79" d="M 2059 -325 
Q 1816 -950 1584 -1140 
Q 1353 -1331 966 -1331 
L 506 -1331 
L 506 -850 
L 844 -850 
Q 1081 -850 1212 -737 
Q 1344 -625 1503 -206 
L 1606 56 
L 191 3500 
L 800 3500 
L 1894 763 
L 2988 3500 
L 3597 3500 
L 2059 -325 
z
" transform="scale(0.015625)"/>
      <path id="DejaVuSans-6d" d="M 3328 2828 
Q 3544 3216 3844 3400 
Q 4144 3584 4550 3584 
Q 5097 3584 5394 3201 
Q 5691 2819 5691 2113 
L 5691 0 
L 5113 0 
L 5113 2094 
Q 5113 2597 4934 2840 
Q 4756 3084 4391 3084 
Q 3944 3084 3684 2787 
Q 3425 2491 3425 1978 
L 3425 0 
L 2847 0 
L 2847 2094 
Q 2847 2600 2669 2842 
Q 2491 3084 2119 3084 
Q 1678 3084 1418 2786 
Q 1159 2488 1159 1978 
L 1159 0 
L 581 0 
L 581 3500 
L 1159 3500 
L 1159 2956 
Q 1356 3278 1631 3431 
Q 1906 3584 2284 3584 
Q 2666 3584 2933 3390 
Q 3200 3197 3328 2828 
z
" transform="scale(0.015625)"/>
     </defs>
     <use xlink:href="#DejaVuSans-28"/>
     <use xlink:href="#DejaVuSans-62" x="39.013672"/>
     <use xlink:href="#DejaVuSans-29" x="102.490234"/>
     <use xlink:href="#DejaVuSans-20" x="141.503906"/>
     <use xlink:href="#DejaVuSans-50" x="173.291016"/>
     <use xlink:href="#DejaVuSans-69" x="231.34375"/>
     <use xlink:href="#DejaVuSans-78" x="259.126953"/>
     <use xlink:href="#DejaVuSans-65" x="315.181641"/>
     <use xlink:href="#DejaVuSans-6c" x="376.705078"/>
     <use xlink:href="#DejaVuSans-20" x="404.488281"/>
     <use xlink:href="#DejaVuSans-54" x="436.275391"/>
     <use xlink:href="#DejaVuSans-72" x="482.609375"/>
     <use xlink:href="#DejaVuSans-61" x="523.722656"/>
     <use xlink:href="#DejaVuSans-6a" x="585.001953"/>
     <use xlink:href="#DejaVuSans-65" x="612.785156"/>
     <use xlink:href="#DejaVuSans-63" x="674.308594"/>
     <use xlink:href="#DejaVuSans-74" x="729.289062"/>
     <use xlink:href="#DejaVuSans-6f" x="768.498047"/>
     <use xlink:href="#DejaVuSans-72" x="829.679688"/>
     <use xlink:href="#DejaVuSans-79" x="870.792969"/>
     <use xlink:href="#DejaVuSans-20" x="929.972656"/>
     <use xlink:href="#DejaVuSans-69" x="961.759766"/>
     <use xlink:href="#DejaVuSans-6e" x="989.542969"/>
     <use xlink:href="#DejaVuSans-20" x="1052.921875"/>
     <use xlink:href="#DejaVuSans-49" x="1084.708984"/>
     <use xlink:href="#DejaVuSans-6d" x="1114.201172"/>
     <use xlink:href="#DejaVuSans-61" x="1211.613281"/>
     <use xlink:href="#DejaVuSans-67" x="1272.892578"/>
     <use xlink:href="#DejaVuSans-65" x="1336.369141"/>
     <use xlink:href="#DejaVuSans-20" x="1397.892578"/>
     <use xlink:href="#DejaVuSans-50" x="1429.679688"/>
     <use xlink:href="#DejaVuSans-6c" x="1489.982422"/>
     <use xlink:href="#DejaVuSans-61" x="1517.765625"/>
     <use xlink:href="#DejaVuSans-6e" x="1579.044922"/>
     <use xlink:href="#DejaVuSans-65" x="1642.423828"/>
    </g>
   </g>
   <g id="legend_2">
    <g id="patch_20">
     <path d="M 739.369471 313.32 
L 835.853221 313.32 
Q 837.453221 313.32 837.453221 311.72 
L 837.453221 253.8075 
Q 837.453221 252.2075 835.853221 252.2075 
L 739.369471 252.2075 
Q 737.769471 252.2075 737.769471 253.8075 
L 737.769471 311.72 
Q 737.769471 313.32 739.369471 313.32 
z
" style="fill: #ffffff; opacity: 0.8; stroke: #cccccc; stroke-linejoin: miter"/>
    </g>
    <g id="line2d_66">
     <g>
      <use xlink:href="#m44d30d05db" x="748.969471" y="258.68625" style="stroke: #000000; stroke-width: 2"/>
     </g>
    </g>
    <g id="text_41">
     <!-- Image center -->
     <g transform="translate(763.369471 261.48625)scale(0.08 -0.08)">
      <use xlink:href="#DejaVuSans-49"/>
      <use xlink:href="#DejaVuSans-6d" x="29.492188"/>
      <use xlink:href="#DejaVuSans-61" x="126.904297"/>
      <use xlink:href="#DejaVuSans-67" x="188.183594"/>
      <use xlink:href="#DejaVuSans-65" x="251.660156"/>
      <use xlink:href="#DejaVuSans-20" x="313.183594"/>
      <use xlink:href="#DejaVuSans-63" x="344.970703"/>
      <use xlink:href="#DejaVuSans-65" x="399.951172"/>
      <use xlink:href="#DejaVuSans-6e" x="461.474609"/>
      <use xlink:href="#DejaVuSans-74" x="524.853516"/>
      <use xlink:href="#DejaVuSans-65" x="564.0625"/>
      <use xlink:href="#DejaVuSans-72" x="625.585938"/>
     </g>
    </g>
    <g id="line2d_67">
     <defs>
      <path id="m412523bc06" d="M 0 4 
C 1.060812 4 2.078319 3.578535 2.828427 2.828427 
C 3.578535 2.078319 4 1.060812 4 0 
C 4 -1.060812 3.578535 -2.078319 2.828427 -2.828427 
C 2.078319 -3.578535 1.060812 -4 0 -4 
C -1.060812 -4 -2.078319 -3.578535 -2.828427 -2.828427 
C -3.578535 -2.078319 -4 -1.060812 -4 0 
C -4 1.060812 -3.578535 2.078319 -2.828427 2.828427 
C -2.078319 3.578535 -1.060812 4 0 4 
z
" style="stroke: #ff0000"/>
     </defs>
     <g>
      <use xlink:href="#m412523bc06" x="748.969471" y="270.42875" style="fill: #ff0000; stroke: #ff0000"/>
     </g>
    </g>
    <g id="text_42">
     <!-- Initial position -->
     <g transform="translate(763.369471 273.22875)scale(0.08 -0.08)">
      <use xlink:href="#DejaVuSans-49"/>
      <use xlink:href="#DejaVuSans-6e" x="29.492188"/>
      <use xlink:href="#DejaVuSans-69" x="92.871094"/>
      <use xlink:href="#DejaVuSans-74" x="120.654297"/>
      <use xlink:href="#DejaVuSans-69" x="159.863281"/>
      <use xlink:href="#DejaVuSans-61" x="187.646484"/>
      <use xlink:href="#DejaVuSans-6c" x="248.925781"/>
      <use xlink:href="#DejaVuSans-20" x="276.708984"/>
      <use xlink:href="#DejaVuSans-70" x="308.496094"/>
      <use xlink:href="#DejaVuSans-6f" x="371.972656"/>
      <use xlink:href="#DejaVuSans-73" x="433.154297"/>
      <use xlink:href="#DejaVuSans-69" x="485.253906"/>
      <use xlink:href="#DejaVuSans-74" x="513.037109"/>
      <use xlink:href="#DejaVuSans-69" x="552.246094"/>
      <use xlink:href="#DejaVuSans-6f" x="580.029297"/>
      <use xlink:href="#DejaVuSans-6e" x="641.210938"/>
     </g>
    </g>
    <g id="line2d_68">
     <defs>
      <path id="m425abc9027" d="M 0 4 
C 1.060812 4 2.078319 3.578535 2.828427 2.828427 
C 3.578535 2.078319 4 1.060812 4 0 
C 4 -1.060812 3.578535 -2.078319 2.828427 -2.828427 
C 2.078319 -3.578535 1.060812 -4 0 -4 
C -1.060812 -4 -2.078319 -3.578535 -2.828427 -2.828427 
C -3.578535 -2.078319 -4 -1.060812 -4 0 
C -4 1.060812 -3.578535 2.078319 -2.828427 2.828427 
C -2.078319 3.578535 -1.060812 4 0 4 
z
" style="stroke: #ffa500"/>
     </defs>
     <g>
      <use xlink:href="#m425abc9027" x="748.969471" y="282.17125" style="fill: #ffa500; stroke: #ffa500"/>
     </g>
    </g>
    <g id="text_43">
     <!-- After iter 1 -->
     <g transform="translate(763.369471 284.97125)scale(0.08 -0.08)">
      <defs>
       <path id="DejaVuSans-41" d="M 2188 4044 
L 1331 1722 
L 3047 1722 
L 2188 4044 
z
M 1831 4666 
L 2547 4666 
L 4325 0 
L 3669 0 
L 3244 1197 
L 1141 1197 
L 716 0 
L 50 0 
L 1831 4666 
z
" transform="scale(0.015625)"/>
       <path id="DejaVuSans-66" d="M 2375 4863 
L 2375 4384 
L 1825 4384 
Q 1516 4384 1395 4259 
Q 1275 4134 1275 3809 
L 1275 3500 
L 2222 3500 
L 2222 3053 
L 1275 3053 
L 1275 0 
L 697 0 
L 697 3053 
L 147 3053 
L 147 3500 
L 697 3500 
L 697 3744 
Q 697 4328 969 4595 
Q 1241 4863 1831 4863 
L 2375 4863 
z
" transform="scale(0.015625)"/>
      </defs>
      <use xlink:href="#DejaVuSans-41"/>
      <use xlink:href="#DejaVuSans-66" x="64.783203"/>
      <use xlink:href="#DejaVuSans-74" x="98.238281"/>
      <use xlink:href="#DejaVuSans-65" x="137.447266"/>
      <use xlink:href="#DejaVuSans-72" x="198.970703"/>
      <use xlink:href="#DejaVuSans-20" x="240.083984"/>
      <use xlink:href="#DejaVuSans-69" x="271.871094"/>
      <use xlink:href="#DejaVuSans-74" x="299.654297"/>
      <use xlink:href="#DejaVuSans-65" x="338.863281"/>
      <use xlink:href="#DejaVuSans-72" x="400.386719"/>
      <use xlink:href="#DejaVuSans-20" x="441.5"/>
      <use xlink:href="#DejaVuSans-31" x="473.287109"/>
     </g>
    </g>
    <g id="line2d_69">
     <defs>
      <path id="m746c8128ae" d="M 0 4 
C 1.060812 4 2.078319 3.578535 2.828427 2.828427 
C 3.578535 2.078319 4 1.060812 4 0 
C 4 -1.060812 3.578535 -2.078319 2.828427 -2.828427 
C 2.078319 -3.578535 1.060812 -4 0 -4 
C -1.060812 -4 -2.078319 -3.578535 -2.828427 -2.828427 
C -3.578535 -2.078319 -4 -1.060812 -4 0 
C -4 1.060812 -3.578535 2.078319 -2.828427 2.828427 
C -2.078319 3.578535 -1.060812 4 0 4 
z
" style="stroke: #008000"/>
     </defs>
     <g>
      <use xlink:href="#m746c8128ae" x="748.969471" y="293.91375" style="fill: #008000; stroke: #008000"/>
     </g>
    </g>
    <g id="text_44">
     <!-- After iter 2 (final) -->
     <g transform="translate(763.369471 296.71375)scale(0.08 -0.08)">
      <use xlink:href="#DejaVuSans-41"/>
      <use xlink:href="#DejaVuSans-66" x="64.783203"/>
      <use xlink:href="#DejaVuSans-74" x="98.238281"/>
      <use xlink:href="#DejaVuSans-65" x="137.447266"/>
      <use xlink:href="#DejaVuSans-72" x="198.970703"/>
      <use xlink:href="#DejaVuSans-20" x="240.083984"/>
      <use xlink:href="#DejaVuSans-69" x="271.871094"/>
      <use xlink:href="#DejaVuSans-74" x="299.654297"/>
      <use xlink:href="#DejaVuSans-65" x="338.863281"/>
      <use xlink:href="#DejaVuSans-72" x="400.386719"/>
      <use xlink:href="#DejaVuSans-20" x="441.5"/>
      <use xlink:href="#DejaVuSans-32" x="473.287109"/>
      <use xlink:href="#DejaVuSans-20" x="536.910156"/>
      <use xlink:href="#DejaVuSans-28" x="568.697266"/>
      <use xlink:href="#DejaVuSans-66" x="607.710938"/>
      <use xlink:href="#DejaVuSans-69" x="642.916016"/>
      <use xlink:href="#DejaVuSans-6e" x="670.699219"/>
      <use xlink:href="#DejaVuSans-61" x="734.078125"/>
      <use xlink:href="#DejaVuSans-6c" x="795.357422"/>
      <use xlink:href="#DejaVuSans-29" x="823.140625"/>
     </g>
    </g>
    <g id="line2d_70">
     <path d="M 740.969471 305.65625 
L 748.969471 305.65625 
L 756.969471 305.65625 
" style="fill: none; stroke: #0000ff; stroke-width: 1.5; stroke-linecap: square"/>
     <defs>
      <path id="mce4e74d9a4" d="M 4 0 
L -4 -4 
L -4 4 
z
" style="stroke: #0000ff; stroke-linejoin: miter"/>
     </defs>
     <g>
      <use xlink:href="#mce4e74d9a4" x="748.969471" y="305.65625" style="fill: #0000ff; stroke: #0000ff; stroke-linejoin: miter"/>
     </g>
    </g>
    <g id="text_45">
     <!-- Focus adjustment -->
     <g transform="translate(763.369471 308.45625)scale(0.08 -0.08)">
      <use xlink:href="#DejaVuSans-46"/>
      <use xlink:href="#DejaVuSans-6f" x="53.894531"/>
      <use xlink:href="#DejaVuSans-63" x="115.076172"/>
      <use xlink:href="#DejaVuSans-75" x="170.056641"/>
      <use xlink:href="#DejaVuSans-73" x="233.435547"/>
      <use xlink:href="#DejaVuSans-20" x="285.535156"/>
      <use xlink:href="#DejaVuSans-61" x="317.322266"/>
      <use xlink:href="#DejaVuSans-64" x="378.601562"/>
      <use xlink:href="#DejaVuSans-6a" x="442.078125"/>
      <use xlink:href="#DejaVuSans-75" x="469.861328"/>
      <use xlink:href="#DejaVuSans-73" x="533.240234"/>
      <use xlink:href="#DejaVuSans-74" x="585.339844"/>
      <use xlink:href="#DejaVuSans-6d" x="624.548828"/>
      <use xlink:href="#DejaVuSans-65" x="721.960938"/>
      <use xlink:href="#DejaVuSans-6e" x="783.484375"/>
      <use xlink:href="#DejaVuSans-74" x="846.863281"/>
     </g>
    </g>
   </g>
  </g>
  <g id="text_46">
   <!-- Figure 12: Visual Servoing Convergence -->
   <g transform="translate(270.195312 17.837812)scale(0.14 -0.14)">
    <defs>
     <path id="DejaVuSans-Bold-46" d="M 588 4666 
L 3834 4666 
L 3834 3756 
L 1791 3756 
L 1791 2888 
L 3713 2888 
L 3713 1978 
L 1791 1978 
L 1791 0 
L 588 0 
L 588 4666 
z
" transform="scale(0.015625)"/>
     <path id="DejaVuSans-Bold-69" d="M 538 3500 
L 1656 3500 
L 1656 0 
L 538 0 
L 538 3500 
z
M 538 4863 
L 1656 4863 
L 1656 3950 
L 538 3950 
L 538 4863 
z
" transform="scale(0.015625)"/>
     <path id="DejaVuSans-Bold-67" d="M 2919 594 
Q 2688 288 2409 144 
Q 2131 0 1766 0 
Q 1125 0 706 504 
Q 288 1009 288 1791 
Q 288 2575 706 3076 
Q 1125 3578 1766 3578 
Q 2131 3578 2409 3434 
Q 2688 3291 2919 2981 
L 2919 3500 
L 4044 3500 
L 4044 353 
Q 4044 -491 3511 -936 
Q 2978 -1381 1966 -1381 
Q 1638 -1381 1331 -1331 
Q 1025 -1281 716 -1178 
L 716 -306 
Q 1009 -475 1290 -558 
Q 1572 -641 1856 -641 
Q 2406 -641 2662 -400 
Q 2919 -159 2919 353 
L 2919 594 
z
M 2181 2772 
Q 1834 2772 1640 2515 
Q 1447 2259 1447 1791 
Q 1447 1309 1634 1061 
Q 1822 813 2181 813 
Q 2531 813 2725 1069 
Q 2919 1325 2919 1791 
Q 2919 2259 2725 2515 
Q 2531 2772 2181 2772 
z
" transform="scale(0.015625)"/>
     <path id="DejaVuSans-Bold-75" d="M 500 1363 
L 500 3500 
L 1625 3500 
L 1625 3150 
Q 1625 2866 1622 2436 
Q 1619 2006 1619 1863 
Q 1619 1441 1641 1255 
Q 1663 1069 1716 984 
Q 1784 875 1895 815 
Q 2006 756 2150 756 
Q 2500 756 2700 1025 
Q 2900 1294 2900 1772 
L 2900 3500 
L 4019 3500 
L 4019 0 
L 2900 0 
L 2900 506 
Q 2647 200 2364 54 
Q 2081 -91 1741 -91 
Q 1134 -91 817 281 
Q 500 653 500 1363 
z
" transform="scale(0.015625)"/>
     <path id="DejaVuSans-Bold-72" d="M 3138 2547 
Q 2991 2616 2845 2648 
Q 2700 2681 2553 2681 
Q 2122 2681 1889 2404 
Q 1656 2128 1656 1613 
L 1656 0 
L 538 0 
L 538 3500 
L 1656 3500 
L 1656 2925 
Q 1872 3269 2151 3426 
Q 2431 3584 2822 3584 
Q 2878 3584 2943 3579 
Q 3009 3575 3134 3559 
L 3138 2547 
z
" transform="scale(0.015625)"/>
     <path id="DejaVuSans-Bold-65" d="M 4031 1759 
L 4031 1441 
L 1416 1441 
Q 1456 1047 1700 850 
Q 1944 653 2381 653 
Q 2734 653 3104 758 
Q 3475 863 3866 1075 
L 3866 213 
Q 3469 63 3072 -14 
Q 2675 -91 2278 -91 
Q 1328 -91 801 392 
Q 275 875 275 1747 
Q 275 2603 792 3093 
Q 1309 3584 2216 3584 
Q 3041 3584 3536 3087 
Q 4031 2591 4031 1759 
z
M 2881 2131 
Q 2881 2450 2695 2645 
Q 2509 2841 2209 2841 
Q 1884 2841 1681 2658 
Q 1478 2475 1428 2131 
L 2881 2131 
z
" transform="scale(0.015625)"/>
     <path id="DejaVuSans-Bold-20" transform="scale(0.015625)"/>
     <path id="DejaVuSans-Bold-31" d="M 750 831 
L 1813 831 
L 1813 3847 
L 722 3622 
L 722 4441 
L 1806 4666 
L 2950 4666 
L 2950 831 
L 4013 831 
L 4013 0 
L 750 0 
L 750 831 
z
" transform="scale(0.015625)"/>
     <path id="DejaVuSans-Bold-32" d="M 1844 884 
L 3897 884 
L 3897 0 
L 506 0 
L 506 884 
L 2209 2388 
Q 2438 2594 2547 2791 
Q 2656 2988 2656 3200 
Q 2656 3528 2436 3728 
Q 2216 3928 1850 3928 
Q 1569 3928 1234 3808 
Q 900 3688 519 3450 
L 519 4475 
Q 925 4609 1322 4679 
Q 1719 4750 2100 4750 
Q 2938 4750 3402 4381 
Q 3866 4013 3866 3353 
Q 3866 2972 3669 2642 
Q 3472 2313 2841 1759 
L 1844 884 
z
" transform="scale(0.015625)"/>
     <path id="DejaVuSans-Bold-3a" d="M 716 3500 
L 1844 3500 
L 1844 2291 
L 716 2291 
L 716 3500 
z
M 716 1209 
L 1844 1209 
L 1844 0 
L 716 0 
L 716 1209 
z
" transform="scale(0.015625)"/>
     <path id="DejaVuSans-Bold-56" d="M 31 4666 
L 1241 4666 
L 2478 1222 
L 3713 4666 
L 4922 4666 
L 3194 0 
L 1759 0 
L 31 4666 
z
" transform="scale(0.015625)"/>
     <path id="DejaVuSans-Bold-73" d="M 3272 3391 
L 3272 2541 
Q 2913 2691 2578 2766 
Q 2244 2841 1947 2841 
Q 1628 2841 1473 2761 
Q 1319 2681 1319 2516 
Q 1319 2381 1436 2309 
Q 1553 2238 1856 2203 
L 2053 2175 
Q 2913 2066 3209 1816 
Q 3506 1566 3506 1031 
Q 3506 472 3093 190 
Q 2681 -91 1863 -91 
Q 1516 -91 1145 -36 
Q 775 19 384 128 
L 384 978 
Q 719 816 1070 734 
Q 1422 653 1784 653 
Q 2113 653 2278 743 
Q 2444 834 2444 1013 
Q 2444 1163 2330 1236 
Q 2216 1309 1875 1350 
L 1678 1375 
Q 931 1469 631 1722 
Q 331 1975 331 2491 
Q 331 3047 712 3315 
Q 1094 3584 1881 3584 
Q 2191 3584 2531 3537 
Q 2872 3491 3272 3391 
z
" transform="scale(0.015625)"/>
     <path id="DejaVuSans-Bold-61" d="M 2106 1575 
Q 1756 1575 1579 1456 
Q 1403 1338 1403 1106 
Q 1403 894 1545 773 
Q 1688 653 1941 653 
Q 2256 653 2472 879 
Q 2688 1106 2688 1447 
L 2688 1575 
L 2106 1575 
z
M 3816 1997 
L 3816 0 
L 2688 0 
L 2688 519 
Q 2463 200 2181 54 
Q 1900 -91 1497 -91 
Q 953 -91 614 226 
Q 275 544 275 1050 
Q 275 1666 698 1953 
Q 1122 2241 2028 2241 
L 2688 2241 
L 2688 2328 
Q 2688 2594 2478 2717 
Q 2269 2841 1825 2841 
Q 1466 2841 1156 2769 
Q 847 2697 581 2553 
L 581 3406 
Q 941 3494 1303 3539 
Q 1666 3584 2028 3584 
Q 2975 3584 3395 3211 
Q 3816 2838 3816 1997 
z
" transform="scale(0.015625)"/>
     <path id="DejaVuSans-Bold-6c" d="M 538 4863 
L 1656 4863 
L 1656 0 
L 538 0 
L 538 4863 
z
" transform="scale(0.015625)"/>
     <path id="DejaVuSans-Bold-53" d="M 3834 4519 
L 3834 3531 
Q 3450 3703 3084 3790 
Q 2719 3878 2394 3878 
Q 1963 3878 1756 3759 
Q 1550 3641 1550 3391 
Q 1550 3203 1689 3098 
Q 1828 2994 2194 2919 
L 2706 2816 
Q 3484 2659 3812 2340 
Q 4141 2022 4141 1434 
Q 4141 663 3683 286 
Q 3225 -91 2284 -91 
Q 1841 -91 1394 -6 
Q 947 78 500 244 
L 500 1259 
Q 947 1022 1364 901 
Q 1781 781 2169 781 
Q 2563 781 2772 912 
Q 2981 1044 2981 1288 
Q 2981 1506 2839 1625 
Q 2697 1744 2272 1838 
L 1806 1941 
Q 1106 2091 782 2419 
Q 459 2747 459 3303 
Q 459 4000 909 4375 
Q 1359 4750 2203 4750 
Q 2588 4750 2994 4692 
Q 3400 4634 3834 4519 
z
" transform="scale(0.015625)"/>
     <path id="DejaVuSans-Bold-76" d="M 97 3500 
L 1216 3500 
L 2088 1081 
L 2956 3500 
L 4078 3500 
L 2700 0 
L 1472 0 
L 97 3500 
z
" transform="scale(0.015625)"/>
     <path id="DejaVuSans-Bold-6f" d="M 2203 2784 
Q 1831 2784 1636 2517 
Q 1441 2250 1441 1747 
Q 1441 1244 1636 976 
Q 1831 709 2203 709 
Q 2569 709 2762 976 
Q 2956 1244 2956 1747 
Q 2956 2250 2762 2517 
Q 2569 2784 2203 2784 
z
M 2203 3584 
Q 3106 3584 3614 3096 
Q 4122 2609 4122 1747 
Q 4122 884 3614 396 
Q 3106 -91 2203 -91 
Q 1297 -91 786 396 
Q 275 884 275 1747 
Q 275 2609 786 3096 
Q 1297 3584 2203 3584 
z
" transform="scale(0.015625)"/>
     <path id="DejaVuSans-Bold-6e" d="M 4056 2131 
L 4056 0 
L 2931 0 
L 2931 347 
L 2931 1631 
Q 2931 2084 2911 2256 
Q 2891 2428 2841 2509 
Q 2775 2619 2662 2680 
Q 2550 2741 2406 2741 
Q 2056 2741 1856 2470 
Q 1656 2200 1656 1722 
L 1656 0 
L 538 0 
L 538 3500 
L 1656 3500 
L 1656 2988 
Q 1909 3294 2193 3439 
Q 2478 3584 2822 3584 
Q 3428 3584 3742 3212 
Q 4056 2841 4056 2131 
z
" transform="scale(0.015625)"/>
     <path id="DejaVuSans-Bold-43" d="M 4288 256 
Q 3956 84 3597 -3 
Q 3238 -91 2847 -91 
Q 1681 -91 1000 561 
Q 319 1213 319 2328 
Q 319 3447 1000 4098 
Q 1681 4750 2847 4750 
Q 3238 4750 3597 4662 
Q 3956 4575 4288 4403 
L 4288 3438 
Q 3953 3666 3628 3772 
Q 3303 3878 2944 3878 
Q 2300 3878 1931 3465 
Q 1563 3053 1563 2328 
Q 1563 1606 1931 1193 
Q 2300 781 2944 781 
Q 3303 781 3628 887 
Q 3953 994 4288 1222 
L 4288 256 
z
" transform="scale(0.015625)"/>
     <path id="DejaVuSans-Bold-63" d="M 3366 3391 
L 3366 2478 
Q 3138 2634 2908 2709 
Q 2678 2784 2431 2784 
Q 1963 2784 1702 2511 
Q 1441 2238 1441 1747 
Q 1441 1256 1702 982 
Q 1963 709 2431 709 
Q 2694 709 2930 787 
Q 3166 866 3366 1019 
L 3366 103 
Q 3103 6 2833 -42 
Q 2563 -91 2291 -91 
Q 1344 -91 809 395 
Q 275 881 275 1747 
Q 275 2613 809 3098 
Q 1344 3584 2291 3584 
Q 2566 3584 2833 3536 
Q 3100 3488 3366 3391 
z
" transform="scale(0.015625)"/>
    </defs>
    <use xlink:href="#DejaVuSans-Bold-46"/>
    <use xlink:href="#DejaVuSans-Bold-69" x="68.310547"/>
    <use xlink:href="#DejaVuSans-Bold-67" x="102.587891"/>
    <use xlink:href="#DejaVuSans-Bold-75" x="174.169922"/>
    <use xlink:href="#DejaVuSans-Bold-72" x="245.361328"/>
    <use xlink:href="#DejaVuSans-Bold-65" x="294.677734"/>
    <use xlink:href="#DejaVuSans-Bold-20" x="362.5"/>
    <use xlink:href="#DejaVuSans-Bold-31" x="397.314453"/>
    <use xlink:href="#DejaVuSans-Bold-32" x="466.894531"/>
    <use xlink:href="#DejaVuSans-Bold-3a" x="536.474609"/>
    <use xlink:href="#DejaVuSans-Bold-20" x="576.464844"/>
    <use xlink:href="#DejaVuSans-Bold-56" x="611.279297"/>
    <use xlink:href="#DejaVuSans-Bold-69" x="686.921875"/>
    <use xlink:href="#DejaVuSans-Bold-73" x="721.199219"/>
    <use xlink:href="#DejaVuSans-Bold-75" x="780.720703"/>
    <use xlink:href="#DejaVuSans-Bold-61" x="851.912109"/>
    <use xlink:href="#DejaVuSans-Bold-6c" x="919.392578"/>
    <use xlink:href="#DejaVuSans-Bold-20" x="953.669922"/>
    <use xlink:href="#DejaVuSans-Bold-53" x="988.484375"/>
    <use xlink:href="#DejaVuSans-Bold-65" x="1060.505859"/>
    <use xlink:href="#DejaVuSans-Bold-72" x="1128.328125"/>
    <use xlink:href="#DejaVuSans-Bold-76" x="1177.644531"/>
    <use xlink:href="#DejaVuSans-Bold-6f" x="1242.830078"/>
    <use xlink:href="#DejaVuSans-Bold-69" x="1311.53125"/>
    <use xlink:href="#DejaVuSans-Bold-6e" x="1345.808594"/>
    <use xlink:href="#DejaVuSans-Bold-67" x="1417"/>
    <use xlink:href="#DejaVuSans-Bold-20" x="1488.582031"/>
    <use xlink:href="#DejaVuSans-Bold-43" x="1523.396484"/>
    <use xlink:href="#DejaVuSans-Bold-6f" x="1596.785156"/>
    <use xlink:href="#DejaVuSans-Bold-6e" x="1665.486328"/>
    <use xlink:href="#DejaVuSans-Bold-76" x="1736.677734"/>
    <use xlink:href="#DejaVuSans-Bold-65" x="1801.863281"/>
    <use xlink:href="#DejaVuSans-Bold-72" x="1869.685547"/>
    <use xlink:href="#DejaVuSans-Bold-67" x="1919.001953"/>
    <use xlink:href="#DejaVuSans-Bold-65" x="1990.583984"/>
    <use xlink:href="#DejaVuSans-Bold-6e" x="2058.40625"/>
    <use xlink:href="#DejaVuSans-Bold-63" x="2129.597656"/>
    <use xlink:href="#DejaVuSans-Bold-65" x="2188.875"/>
   </g>
  </g>
 </g>
 <defs>
  <clipPath id="pe6543d68ef">
   <rect x="47.933438" y="49.92" width="365.497355" height="267.4"/>
  </clipPath>
  <clipPath id="p889240c166">
   <rect x="491.776298" y="49.92" width="349.676923" height="267.4"/>
  </clipPath>
 </defs>
</svg>
